<?xml version="1.0" encoding="UTF-8" standalone="no"?>
<!-- Created with Inkscape (http://www.inkscape.org/) -->

<svg
   width="9.1302547mm"
   height="8.9431677mm"
   viewBox="0 0 9.1302547 8.9431677"
   version="1.1"
   id="svg8"
   xml:space="preserve"
   xmlns:xlink="http://www.w3.org/1999/xlink"
   xmlns="http://www.w3.org/2000/svg"
   xmlns:svg="http://www.w3.org/2000/svg"
   xmlns:rdf="http://www.w3.org/1999/02/22-rdf-syntax-ns#"
   xmlns:cc="http://creativecommons.org/ns#"
   xmlns:dc="http://purl.org/dc/elements/1.1/"><title
     id="title1">NSC Template Enemys</title><defs
     id="defs2"><color-profile
       name="ISO-Coated-v2-300-ECI"
       xlink:href="../../../../../WINDOWS/system32/spool/drivers/color/ISOcoated_v2_300_eci.icc"
       id="color-profile1" /></defs><metadata
     id="metadata5"><rdf:RDF><cc:Work
         rdf:about=""><dc:format>image/svg+xml</dc:format><dc:type
           rdf:resource="http://purl.org/dc/dcmitype/StillImage" /><dc:title>NSC Template Enemys</dc:title></cc:Work></rdf:RDF></metadata><g
     id="layer1"
     transform="translate(-6.9336428,-7.0166913)"><g
       id="g34"
       style="fill:#ccff00"
       transform="translate(-24.515798,-124.61872)"><ellipse
         style="fill:#ccff00;stroke:#000000;stroke-width:0.15;stroke-linejoin:round;stroke-dasharray:none"
         id="path26"
         cx="36.014568"
         cy="136.10699"
         rx="4.4901276"
         ry="4.3965836" /><path
         id="path20"
         style="fill:#ccff00;stroke:#000000;stroke-width:0.756852;stroke-linecap:round;stroke-linejoin:round;stroke-dasharray:none"
         d="m 18.521778,120.57864 c 1.311174,0.30032 2.471694,-0.16245 3.892805,1.12358 -0.03379,-1.10415 1.408846,-1.30358 2.145898,-1.12524 2.696125,0.65236 3.162657,0.24751 4.485032,0.0953 m -2.265708,3.79188 a 0.13916899,0.15054156 0 0 1 -0.139169,0.15054 0.13916899,0.15054156 0 0 1 -0.139169,-0.15054 0.13916899,0.15054156 0 0 1 0.139169,-0.15054 0.13916899,0.15054156 0 0 1 0.139169,0.15054 z m -0.301247,-0.95537 c -1.098733,-0.0884 -1.963386,0.8765 -1.379779,1.80072 0.583607,0.92422 1.624897,0.56406 2.128134,0.0702 0.503236,-0.49389 0.350378,-1.78246 -0.748355,-1.87088 z m -4.886218,0.91829 a 0.12599352,0.15064093 0 0 1 -0.125993,0.15064 0.12599352,0.15064093 0 0 1 -0.125994,-0.15064 0.12599352,0.15064093 0 0 1 0.125994,-0.15064 0.12599352,0.15064093 0 0 1 0.125993,0.15064 z m -0.296922,-0.93325 c -1.098733,-0.0884 -1.963386,0.8765 -1.379779,1.80072 0.583607,0.92422 1.624897,0.56406 2.128134,0.0702 0.503236,-0.49389 0.350378,-1.78246 -0.748355,-1.87088 z m -5.14291,-0.28887 c -0.54739,-1.97114 -0.94271,-4.11403 -0.43405,-5.05425 0.81657,-1.50938 4.67722,-2.15151 4.67722,-2.15151 3.05551,-1.40553 6.53048,0.81619 9.58829,0.18708 0,0 1.19772,2.79515 1.43526,4.32526 0.0995,0.64095 -0.0108,1.65255 -0.19413,2.69002 m -0.79647,0.0885 c 0,0 2.3496,-0.65828 1.86286,1.27088 -0.48674,1.92916 -2.05798,2.57247 -2.05798,2.57247 m -0.37418,-6.057 c 0.45937,0.27562 0.72446,3.30907 0.5145,4.8643 -0.19639,1.45465 -0.1525,3.06144 -0.93545,4.30304 -0.51566,0.81774 -2.29184,1.77734 -2.29184,1.77734 l 0.18709,2.5257 m -9.96137,-11.23033 c 0,0 -2.3744,-0.61694 -1.88766,1.31222 0.48674,1.92916 2.05797,2.57247 2.05797,2.57247 m 4.723986,1.98782 c 1.20268,-0.57023 2.532056,-0.28835 3.27406,0.0468 m -7.623866,-8.04484 c -0.45937,0.27562 -0.72446,3.30907 -0.5145,4.8643 0.19639,1.45465 0.1525,3.06144 0.93545,4.30304 0.51566,0.81774 2.29184,1.77734 2.29184,1.77734 l -0.18709,2.5257"
         transform="matrix(0.33031576,0,0,0.33031576,28.142753,94.861469)" /><ellipse
         style="fill:#000000;fill-opacity:1;stroke:#000000;stroke-width:0.0927089;stroke-linecap:round;stroke-linejoin:round"
         id="path6"
         cy="135.98233"
         cx="36.940876"
         rx="0.14284752"
         ry="0.13700098" /><ellipse
         style="fill:#000000;fill-opacity:1;stroke:#000000;stroke-width:0.0927089;stroke-linecap:round;stroke-linejoin:round"
         id="path6-38"
         cy="135.94829"
         cx="35.218399"
         rx="0.14284752"
         ry="0.13700098" /></g></g></svg>
