<?xml version="1.0" encoding="UTF-8" standalone="no"?>
<!-- Created with Inkscape (http://www.inkscape.org/) -->

<svg
   width="9.1302557mm"
   height="8.9431639mm"
   viewBox="0 0 9.1302557 8.9431639"
   version="1.1"
   id="svg8"
   xml:space="preserve"
   xmlns:xlink="http://www.w3.org/1999/xlink"
   xmlns="http://www.w3.org/2000/svg"
   xmlns:svg="http://www.w3.org/2000/svg"
   xmlns:rdf="http://www.w3.org/1999/02/22-rdf-syntax-ns#"
   xmlns:cc="http://creativecommons.org/ns#"
   xmlns:dc="http://purl.org/dc/elements/1.1/"><title
     id="title1">NSC Template Enemys</title><defs
     id="defs2"><color-profile
       name="ISO-Coated-v2-300-ECI"
       xlink:href="../../../../../WINDOWS/system32/spool/drivers/color/ISOcoated_v2_300_eci.icc"
       id="color-profile1" /></defs><metadata
     id="metadata5"><rdf:RDF><cc:Work
         rdf:about=""><dc:format>image/svg+xml</dc:format><dc:type
           rdf:resource="http://purl.org/dc/dcmitype/StillImage" /><dc:title>NSC Template Enemys</dc:title></cc:Work></rdf:RDF></metadata><g
     id="layer1"
     transform="translate(-7.0594677,-81.001044)"><g
       id="g35"
       transform="translate(-24.232071,-69.833949)"><ellipse
         style="fill:#ffdd55;stroke:#000000;stroke-width:0.15;stroke-linejoin:round;stroke-dasharray:none"
         id="path26-6"
         cx="35.856667"
         cy="155.30658"
         rx="4.4901276"
         ry="4.3965836" /><path
         id="path30"
         style="fill:none;stroke:#000000;stroke-width:0.300769;stroke-linecap:round;stroke-linejoin:round;stroke-dasharray:none"
         transform="matrix(0.82051655,-0.13285792,0.13285792,0.82051655,-64.228745,44.965946)"
         d="m 93.497556,152.33694 -0.234832,-0.2071 -0.238143,0.20329 0.124395,-0.28734 -0.266923,-0.16367 0.311712,0.0295 0.07318,-0.30444 0.06825,0.30558 0.312148,-0.0245 -0.269529,0.15934 z m 8.821264,-0.92981 -0.31171,-0.0668 -0.11006,0.2992 -0.0328,-0.31711 -0.31856,-0.0122 0.29143,-0.1292 -0.0868,-0.30674 0.21295,0.23724 0.2649,-0.17737 -0.15983,0.27583 z m -8.940944,-2.41822 -0.311715,-0.0668 -0.110054,0.2992 -0.03282,-0.31711 -0.318558,-0.0122 0.291432,-0.1292 -0.08682,-0.30674 0.212942,0.23724 0.264901,-0.17737 -0.159822,0.27583 z m 8.227324,0.7725 -0.15462,-0.34068 -0.35909,0.10504 0.27623,-0.25233 -0.21087,-0.30906 0.32535,0.18473 0.22877,-0.29604 -0.0752,0.36651 0.35224,0.12614 -0.3718,0.0418 z m -3.586046,-3.23192 -0.132752,-0.51422 -0.527799,0.0589 0.448029,-0.28516 -0.219128,-0.48376 0.409648,0.33798 0.39237,-0.35789 -0.194852,0.49404 0.461626,0.26257 -0.530077,-0.0326 z m 0.276556,4.19485 c 0,-0.0508 -0.0468,0.0855 -0.08636,0.0791 -0.03956,-0.006 -0.06507,-0.0522 -0.05698,-0.10233 0.0081,-0.0501 0.0468,-0.0855 0.08636,-0.0791 0.03957,0.006 0.05698,0.15312 0.05698,0.10234 z m 0.316109,-0.34456 c -0.443117,-0.1088 -0.860271,0.22826 -0.682948,0.64452 0.177323,0.41626 0.626637,0.33799 0.864956,0.16943 0.238311,-0.16852 0.261112,-0.70517 -0.182,-0.814 z m -2.012392,0.0459 c -0.0081,0.0501 -0.0468,0.0855 -0.08636,0.0791 -0.03957,-0.006 -0.06508,-0.0522 -0.05698,-0.10234 0.0081,-0.0501 0.0468,-0.0855 0.08636,-0.0791 0.03957,0.006 0.06508,0.0522 0.05698,0.10234 z m -0.104546,-0.39503 c -0.44312,-0.1088 -0.860275,0.22826 -0.682951,0.64452 0.177326,0.41626 0.626637,0.338 0.864958,0.16943 0.23831,-0.16853 0.261111,-0.70518 -0.181999,-0.814 z m -0.894463,-1.3554 c 0.495279,0.20109 0.979936,0.0932 1.455735,0.68802 0.05683,-0.4353 0.635466,-0.42188 0.913273,-0.3051 1.016212,0.42716 1.224959,0.29791 1.75336,0.32229 m -5.310288,0.19189 c -0.09325,-0.84167 -0.11301,-1.74345 0.157047,-2.09398 0.433531,-0.56274 2.053552,-0.56969 2.053552,-0.56969 1.341529,-0.37217 2.614482,0.7656 3.905573,0.71088 0,0 0.30447,1.2214 0.3003,1.86234 -0.002,0.2685 -0.11409,0.6745 -0.25731,1.08636 m -0.33129,-0.0166 c 0,0 1.00364,-0.11353 0.67711,0.64256 -0.32653,0.75609 -1.011137,0.915 -1.011137,0.915 m 0.247857,-2.49977 c 0.16948,0.14298 0.0771,1.40008 -0.11161,2.02169 -0.176523,0.5814 -0.2649,1.24086 -0.666943,1.69641 -0.26481,0.30003 -1.054084,0.57462 -1.054084,0.57462 l -0.09063,1.04443 m -3.327401,-5.248 c 0,0 -0.929405,-0.40921 -0.858153,0.41128 0.07125,0.82051 0.670722,1.18733 0.670722,1.18733 m 1.768842,1.18861 c 0.66674,-0.0819 0.823181,0.36478 1.334753,0.23575 m -2.553042,-3.85549 c -0.205937,0.0822 -0.514968,1.30422 -0.532074,1.95361 -0.016,0.60738 -0.140254,1.26105 0.09754,1.8202 0.156606,0.36825 0.818898,0.87787 0.818898,0.87787 l -0.243556,1.01968" /><ellipse
         style="fill:#000000;fill-opacity:1;stroke:#000000;stroke-width:0.0927089;stroke-linecap:round;stroke-linejoin:round"
         id="path6-33"
         cy="155.58949"
         cx="36.399166"
         rx="0.14284752"
         ry="0.13700098" /><ellipse
         style="fill:#000000;fill-opacity:1;stroke:#000000;stroke-width:0.0927089;stroke-linecap:round;stroke-linejoin:round"
         id="path6-33-7"
         cy="155.55521"
         cx="34.964016"
         rx="0.14284752"
         ry="0.13700098" /></g></g></svg>
