<?xml version="1.0" encoding="UTF-8" standalone="no"?>
<!-- Created with Inkscape (http://www.inkscape.org/) -->

<svg
   width="9.3638363mm"
   height="8.9431677mm"
   viewBox="0 0 9.3638363 8.9431677"
   version="1.1"
   id="svg8"
   xml:space="preserve"
   xmlns:xlink="http://www.w3.org/1999/xlink"
   xmlns="http://www.w3.org/2000/svg"
   xmlns:svg="http://www.w3.org/2000/svg"
   xmlns:rdf="http://www.w3.org/1999/02/22-rdf-syntax-ns#"
   xmlns:cc="http://creativecommons.org/ns#"
   xmlns:dc="http://purl.org/dc/elements/1.1/"><title
     id="title1">NSC Template Enemys</title><defs
     id="defs2"><color-profile
       name="ISO-Coated-v2-300-ECI"
       xlink:href="../../../../../WINDOWS/system32/spool/drivers/color/ISOcoated_v2_300_eci.icc"
       id="color-profile1" /></defs><metadata
     id="metadata5"><rdf:RDF><cc:Work
         rdf:about=""><dc:format>image/svg+xml</dc:format><dc:type
           rdf:resource="http://purl.org/dc/dcmitype/StillImage" /><dc:title>NSC Template Enemys</dc:title></cc:Work></rdf:RDF></metadata><g
     id="layer1"
     transform="translate(-27.818018,-7.0230056)"><g
       id="g32"
       transform="translate(-26.80734,-125.23057)"><ellipse
         style="fill:#aaccff;stroke:#000000;stroke-width:0.15;stroke-linejoin:round;stroke-dasharray:none"
         id="path26-25"
         cx="59.424194"
         cy="136.72516"
         rx="4.4899998"
         ry="4.3965836" /><path
         id="path17"
         style="fill:none;stroke:#000000;stroke-width:0.25;stroke-linecap:round;stroke-linejoin:round;stroke-dasharray:none"
         d="m 56.716452,136.38831 c -0.182695,-0.65788 -0.314637,-1.37309 -0.144869,-1.6869 0.272539,-0.50377 1.561069,-0.71809 1.561069,-0.71809 1.019805,-0.4691 2.17961,0.27241 3.200183,0.0624 0,0 0.399751,0.93291 0.479036,1.4436 0.03324,0.21392 -0.004,0.55156 -0.0648,0.89782 m -0.265826,0.0296 c 0,0 0.7842,-0.2197 0.621743,0.42417 -0.162448,0.64387 -0.686867,0.85858 -0.686867,0.85858 m -0.124886,-2.02157 c 0.153319,0.092 0.241796,1.10442 0.17172,1.6235 -0.06555,0.4855 -0.0509,1.02179 -0.312215,1.43618 -0.172107,0.27293 -0.764924,0.59321 -0.764924,0.59321 l 0.06244,0.84296 m -3.3247,-3.74822 c 0,0 -0.792479,-0.20591 -0.630026,0.43797 0.162454,0.64387 0.68687,0.85858 0.68687,0.85858 m 1.607896,0.67907 c 0.401405,-0.19033 0.729194,0.18524 1.092749,0.0156 m -2.57576,-2.70064 c -0.153317,0.092 -0.241797,1.10443 -0.171718,1.62351 0.06554,0.4855 0.0509,1.02179 0.312214,1.43618 0.172106,0.27293 0.764923,0.59321 0.764923,0.59321 l -0.06244,0.84297 m 2.461568,-3.64945 -0.70248,0.67126 m 0,-0.68688 0.640037,0.66346 m -1.766897,-0.69031 -0.70248,0.67126 m 0,-0.68686 0.640037,0.66344 m 3.082229,-2.19093 c 0,0 2.473769,0.93754 1.866134,1.30928 -0.705512,0.43162 -3.00955,-0.10782 -4.621903,-0.55866 M 58.402513,135.541 c -1.44784,-0.4611 -3.900012,-1.72331 -3.614523,-2.08826 0.336361,-0.42999 3.478419,0.37262 3.478419,0.37262 m 1.296981,-0.0545 c 0,0 4.475153,-1.02593 4.169781,-0.38237 -0.391952,0.82604 -3.068342,1.72703 -4.65607,2.20927 -1.41407,0.4295 -4.367312,0.75351 -4.32645,0.27462 0.04641,-0.54395 1.776311,-1.26307 1.776311,-1.26307" /></g></g></svg>
