<?xml version="1.0" encoding="UTF-8" standalone="no"?>
<!-- Created with Inkscape (http://www.inkscape.org/) -->

<svg
   width="9.1302528mm"
   height="8.9431667mm"
   viewBox="0 0 9.1302528 8.9431667"
   version="1.1"
   id="svg8"
   xml:space="preserve"
   xmlns:xlink="http://www.w3.org/1999/xlink"
   xmlns="http://www.w3.org/2000/svg"
   xmlns:svg="http://www.w3.org/2000/svg"
   xmlns:rdf="http://www.w3.org/1999/02/22-rdf-syntax-ns#"
   xmlns:cc="http://creativecommons.org/ns#"
   xmlns:dc="http://purl.org/dc/elements/1.1/"><title
     id="title1">NSC Template Enemys</title><defs
     id="defs2"><color-profile
       name="ISO-Coated-v2-300-ECI"
       xlink:href="../../../../../WINDOWS/system32/spool/drivers/color/ISOcoated_v2_300_eci.icc"
       id="color-profile1" /></defs><metadata
     id="metadata5"><rdf:RDF><cc:Work
         rdf:about=""><dc:format>image/svg+xml</dc:format><dc:type
           rdf:resource="http://purl.org/dc/dcmitype/StillImage" /><dc:title>NSC Template Enemys</dc:title></cc:Work></rdf:RDF></metadata><g
     id="layer1"
     transform="translate(-48.822593,-7.0221978)"><g
       id="g30"
       transform="translate(-28.393095,-125.44555)"><ellipse
         style="fill:#e9c6af;stroke:#000000;stroke-width:0.15;stroke-linejoin:round;stroke-dasharray:none"
         id="path26-3-9"
         cx="81.780815"
         cy="136.93933"
         rx="4.4901276"
         ry="4.3965836"
         transform="translate(-1.3125e-6)" /><path
         style="fill:none;stroke:#000000;stroke-width:0.25;stroke-linecap:round;stroke-dasharray:none"
         d="m 80.909996,134.70557 c -0.0629,-0.009 -0.11984,-0.0214 -0.19602,-0.0422 -0.0653,-0.0179 -0.12609,-0.093 -0.18962,-0.0411 -0.13724,0.16394 -0.31026,0.54626 0.0778,0.55149 0.14481,0.002 0.26768,-0.15066 0.2994,-0.2723 0.0167,-0.0641 0.02,-0.11974 0.0271,-0.19589 0.0119,-0.12697 0.01,-0.19167 0.009,-0.33581 -2e-4,-0.14599 -0.0251,-0.27971 0.0787,-0.40998 0.1058,-0.13287 0.30738,-0.17278 0.4627,-0.0992 0.0661,0.0313 0.12766,0.15467 0.21423,0.14676 0.15649,-0.0143 0.21278,-0.18429 0.40625,-0.17692 0.16446,0.006 0.24429,0.22505 0.38052,0.24758 0.17343,0.0287 0.30169,-0.11256 0.5005,-0.0964 0.18342,0.015 0.24652,0.0573 0.36175,0.15121 0.11717,0.0955 0.13885,0.19372 0.25642,0.32079 0.0858,0.0927 0.15377,0.14346 0.22019,0.1905 0.12934,0.0672 0.14367,0.18042 0.14105,0.31333 2.1e-4,0.13101 -0.0329,0.31355 -0.0664,0.44775 -0.0768,0.30735 -0.142292,0.61744 -0.22388,0.92348 -0.117893,0.44223 -0.03052,0.57725 0.0084,0.96774 -0.15341,6.2e-4 -0.283961,-0.0153 -0.381741,0.0439 -0.0711,0.043 -0.0915,0.10181 -0.12163,0.16383 -0.0338,0.0696 -0.0629,0.12918 -0.0394,0.18561 0.0626,0.15058 0.33549,0.0662 0.43297,0.0661 0.14126,-5e-5 0.25965,0.0224 0.36097,-0.0481 0.088,-0.0612 0.13816,-0.16978 0.0837,-0.28654 -0.0366,-0.0785 -0.308261,-0.11447 -0.342701,-0.15283 m -2.788439,-3.17851 c -0.12902,-0.0244 -0.33751,-0.20516 -0.52783,-0.13667 -0.0797,0.0287 -0.22187,0.14044 -0.30184,0.20725 -0.0983,0.0821 -0.16957,0.14777 -0.21825,0.20927 -0.15034,0.18992 -0.27336,0.26271 -0.32523,0.32133 -0.0519,0.0586 -0.10897,0.23838 -0.10897,0.23838 l 0.11329,0.59293 c 0.0811,0.34468 0.17904,0.62195 0.23726,1.05812 l -0.02575,0.5475 m 1.968918,-3.06605 0.01,0.77728 c 0.01,0.36113 -0.01,0.62929 -0.01,0.73388 4.1e-4,0.0725 -0.007,0.12005 0.0193,0.19589 0.0295,0.0853 0.08476,0.16698 0.14037,0.22387 0.189354,0.19372 0.497726,0.53186 0.498929,1.22408 m 0.09699,-3.09823 c 0,0.1062 -10e-4,0.24002 2e-4,0.39178 4.1e-4,0.0601 0.003,0.11578 0.004,0.19589 8.3e-4,0.0867 -0.004,0.14569 0.0204,0.22384 0.0509,0.16057 0.31582,0.28822 0.50102,0.19178 0.12792,-0.0666 -0.041,-0.46437 -0.1217,-0.49923 -0.13961,-0.0603 -0.27809,0.0626 -0.37562,0.0836 m -1.466894,2.49256 c -0.01734,-0.12719 0.116623,-0.53679 0.142724,-0.61765 0.0978,-0.30322 0.3725,-0.64208 0.51266,-0.75558 m 0.18135,1.23379 c -0.0566,0.051 -0.177278,-0.0996 -0.251498,-0.0579 -0.067,0.0376 -0.04085,0.2324 -0.125702,0.26871 -0.10004,0.0428 -0.11797,0.0375 -0.25186,0.0386 -0.15087,0.001 -0.16792,0.0162 -0.33582,-0.009 -0.16513,-0.0248 -0.18461,0.006 -0.3358,0.009 -0.16186,0.003 -0.19549,0.0165 -0.3638,-0.009 -0.1671,-0.0251 -0.2074,0.008 -0.3638,0.009 -0.12858,0.001 -0.21206,0.0236 -0.29629,-0.048 m 2.97031,0.0212 0.32075,0.0268 0.41977,0.0281 m -1.31525,-0.22387 0.004,0.2239 -0.003,0.16788 -0.007,0.25185 0.007,0.19589 0.0327,0.20381 m 0.381315,-0.24735 -0.0597,1.53046 m -2.78878,-2.18667 -0.0572,0.0615 c -0.15345,0.19378 -0.0584,0.22366 0.122355,0.48292 0.393506,0.0407 0.324805,-0.0331 0.522455,-0.0691 m 1.44721,0.23956 c 0.0455,-0.0533 0.0876,-0.0693 0.14804,-0.10321 0.096,-0.0539 0.17574,-0.0718 0.22379,-0.0804 m 0.056,-0.47573 c 0.21485,0 0.31101,-0.003 0.44775,-0.028 m -2.15479,0.056 c -0.0104,0.0388 -0.0271,0.0946 -0.0589,0.16828 -0.032,0.0742 -0.0829,0.16122 -0.01,0.22315 0.11176,0.0949 0.24589,0.0302 0.34873,0.0281 0.16344,-0.003 0.18491,-0.0279 0.39178,-8e-5 0.14291,0.0192 0.17506,0.001 0.30783,4.2e-4 0.0802,-6.2e-4 0.16658,0.0179 0.21969,-0.0481 0.041,-0.0509 0.0311,-0.10792 0.032,-0.17569 10e-4,-0.10562 1.2e-4,-0.15964 1.2e-4,-0.19601 m -0.5317,0 c -0.0371,0.13816 -0.0708,0.19345 -0.13992,0.33581 m 1.73502,-0.33581 c -0.0104,0.0388 -0.0271,0.0946 -0.0589,0.16827 -0.0328,0.076 -0.0935,0.17959 0.0107,0.23674 0.12051,0.0661 0.19665,0.0163 0.30002,0.0147 0.11519,-0.002 0.22878,-0.0187 0.27985,-0.028 m -1.14736,0.028 h 0.0482 c 0.13269,0 0.24798,-4.1e-4 0.39956,-0.028 m 1.377112,0.11329 c -0.0259,0.0648 0.05696,0.52234 0.06816,0.5863 0.0145,0.0866 0.23498,0.93535 0.25937,1.02294 m -2.599643,-1.6666 v 0.13992 m 0.0089,0.15124 c 0.0472,0.33769 0.33189,0.33349 0.41099,0.12862 m -0.850795,-0.37541 0.06224,1.70324 m -1.464152,-1.69279 c -0.0182,0.3844 -0.207208,1.17485 -0.286168,1.54923"
         id="path22-0" /></g></g></svg>
