<?xml version="1.0" encoding="UTF-8" standalone="no"?>
<!-- Created with Inkscape (http://www.inkscape.org/) -->

<svg
   width="7.9120574mm"
   height="10.523996mm"
   viewBox="0 0 7.9120574 10.523996"
   version="1.1"
   id="svg8"
   xml:space="preserve"
   xmlns:xlink="http://www.w3.org/1999/xlink"
   xmlns="http://www.w3.org/2000/svg"
   xmlns:svg="http://www.w3.org/2000/svg"
   xmlns:rdf="http://www.w3.org/1999/02/22-rdf-syntax-ns#"
   xmlns:cc="http://creativecommons.org/ns#"
   xmlns:dc="http://purl.org/dc/elements/1.1/"><title
     id="title1">NSC Template Enemys</title><defs
     id="defs2"><color-profile
       name="ISO-Coated-v2-300-ECI"
       xlink:href="../../../../../../WINDOWS/system32/spool/drivers/color/ISOcoated_v2_300_eci.icc"
       id="color-profile1" /></defs><metadata
     id="metadata5"><rdf:RDF><cc:Work
         rdf:about=""><dc:format>image/svg+xml</dc:format><dc:type
           rdf:resource="http://purl.org/dc/dcmitype/StillImage" /><dc:title>NSC Template Enemys</dc:title></cc:Work></rdf:RDF></metadata><g
     id="layer1"
     transform="translate(-50.605648,-23.69649)"><rect
       style="display:inline;fill:#999999;stroke:none;stroke-width:0.122846;stroke-linejoin:round"
       id="card_back_color"
       width="7.0521612"
       height="10.523995"
       x="51.465546"
       y="23.696489"
       data-field="card_back_color"><desc
         id="desc3">Die Hintergrundfrabe ist vom Level anhängig siehe =&gt; level_back_color</desc></rect><g
       id="g6"
       transform="matrix(0.83115004,0,0,0.83115004,-10.223601,-77.474424)"
       style="stroke-width:0.24063;stroke-dasharray:none"><path
         style="fill:none;stroke:#000000;stroke-width:0.24063;stroke-linecap:round;stroke-dasharray:none;stroke-opacity:1"
         d="m 78.458438,123.09603 0.995739,-0.005 m 0.271424,0.005 c 0.368708,-0.0159 0.675313,0.27932 0.664724,0.65434 -0.01061,0.37503 -0.390339,0.54393 -0.676974,0.53541 -0.28663,-0.009 -0.544202,-0.26771 -0.540143,-0.62319 0.0041,-0.35547 0.183685,-0.55071 0.552393,-0.56656 z m -1.921367,0.53994 H 79.1378 m 0.20547,0.53405 -0.863905,-0.005 m -1.765902,1.15254 0.301307,-0.15484 c 0.226494,-0.11223 0.290682,-0.14435 0.353238,-0.17042 0.103109,-0.0429 0.202622,-0.1013 0.301214,-0.15059 0.124167,-0.0621 0.341468,-0.19769 0.686107,-0.14232 0.630844,0.10134 1.401208,0.34119 1.61972,0.37777 0.263576,0.044 0.34534,0.053 1.049041,-0.12985 0.01645,-0.004 0.02651,-0.006 0.04155,-0.0104 0.529933,-0.17302 0.725778,0.35089 0.426774,0.58059 -0.299004,0.22969 -0.750598,0.26561 -0.76964,0.27092 -0.02562,0.007 -0.06011,0.0199 -0.0831,0.0259 -0.07434,0.0196 -0.139471,0.0356 -0.218119,0.0433 -0.08934,0.009 -0.181981,-0.0122 -0.270054,-0.0208 -0.107064,-0.0104 -0.214906,-0.0103 -0.321985,-0.0207 -0.04773,-0.005 -0.09718,-0.016 -0.145415,-0.009 -0.01676,0.002 -0.03596,0.007 -0.05194,0.0121 -0.0192,0.006 -0.03278,0.01 -0.05193,0.0208 -0.06001,0.0342 -0.12165,0.095 -0.17657,0.13849 -0.07414,0.0587 -0.145999,0.12066 -0.218122,0.18176 -0.0267,0.0226 -0.06902,0.059 -0.09348,0.0814 -0.02551,0.0234 -0.0375,0.026 -0.06232,0.0519 -0.0226,0.0237 -0.02547,0.0433 -0.03808,0.0727 l -0.0069,0.0208 c -0.01471,0.0424 -0.02551,0.0234 -0.01904,0.0623 l 0.01037,0.0208 c 0.01366,0.0185 0.02124,0.0358 0.05367,0.0537 0.01354,0.007 0.04339,0.0162 0.06232,0.0225 0.07132,0.0237 0.138707,0.0449 0.207735,0.0727 0.02426,0.01 0.67527,0.31086 0.983775,0.45213 0.156701,0.0717 0.229629,0.15313 0.232645,0.29292 0.0015,0.0789 -0.250959,0.32532 -0.488921,0.24217 -1.045959,-0.20328 -1.655721,-0.4816 -1.807278,-0.42584 -0.104398,0.0384 -0.03851,0.67039 -0.169287,0.81535 -0.01208,0.0134 -0.02465,0.022 -0.03808,0.0329 -0.407365,0.33193 -1.561611,0.32023 -1.890363,0.15582 m -2.1405,-2.88805 h 2.077333 m 1.038699,0.55051 0.103868,-0.0623 0.508913,-0.19727 0.145415,-0.0399 0.140217,-0.0277 c 0.08035,-0.0131 0.04809,0.003 0.02941,0.0276 -0.0076,0.01 -0.180762,0.35787 -0.273545,0.46574 l -0.221625,0.41554 -0.0069,0.0311 c -0.0348,0.20336 -0.04956,0.4076 -0.07237,0.61281 0.0068,0.119 -0.01532,0.232 -0.05519,0.34277 -0.378055,0.16387 -0.817144,0.0998 -1.21176,0.0434 l -0.07271,-0.0225 m -2.804399,-1.47492 h 2.077328 m 3.541824,0.48818 h 0.03115 m -4.95442,0.1871 c 0.671748,-1e-4 1.34342,0.005 2.015014,-0.0103"
         id="path5" /></g></g><g
     id="layer2"
     transform="translate(-50.605648,-23.69649)"><text
       xml:space="preserve"
       style="font-style:normal;font-variant:normal;font-weight:bold;font-stretch:normal;font-size:4.93889px;font-family:Arial;-inkscape-font-specification:'Arial, Bold';font-variant-ligatures:normal;font-variant-caps:normal;font-variant-numeric:normal;font-variant-east-asian:normal;fill:#ffffff;fill-opacity:1;stroke:none;stroke-width:0.25;stroke-linecap:round;stroke-linejoin:round"
       x="54.82597"
       y="33.050087"
       id="speed"
       data-field="speed"
       text-anchor="middle"><tspan
         id="tspan6"
         style="font-style:normal;font-variant:normal;font-weight:bold;font-stretch:normal;font-size:4.93889px;font-family:Arial;-inkscape-font-specification:'Arial, Bold';font-variant-ligatures:normal;font-variant-caps:normal;font-variant-numeric:normal;font-variant-east-asian:normal;fill:#ffffff;fill-opacity:1;stroke:none;stroke-width:0.25"
         x="54.82597"
         y="33.050087">6</tspan></text></g></svg>
