<?xml version="1.0" encoding="UTF-8" standalone="no"?>
<!-- Created with Inkscape (http://www.inkscape.org/) -->

<svg
   width="6.0192709mm"
   height="8.9296875mm"
   viewBox="0 0 6.0192709 8.9296875"
   version="1.1"
   id="svg8"
   xml:space="preserve"
   xmlns:xlink="http://www.w3.org/1999/xlink"
   xmlns="http://www.w3.org/2000/svg"
   xmlns:svg="http://www.w3.org/2000/svg"
   xmlns:rdf="http://www.w3.org/1999/02/22-rdf-syntax-ns#"
   xmlns:cc="http://creativecommons.org/ns#"
   xmlns:dc="http://purl.org/dc/elements/1.1/"><title
     id="title1">NSC Template Enemys</title><defs
     id="defs2"><color-profile
       name="ISO-Coated-v2-300-ECI"
       xlink:href="../../../../../WINDOWS/system32/spool/drivers/color/ISOcoated_v2_300_eci.icc"
       id="color-profile1" /></defs><metadata
     id="metadata5"><rdf:RDF><cc:Work
         rdf:about=""><dc:format>image/svg+xml</dc:format><dc:type
           rdf:resource="http://purl.org/dc/dcmitype/StillImage" /><dc:title>NSC Template Enemys</dc:title></cc:Work></rdf:RDF></metadata><g
     id="layer1"
     transform="translate(-43.656246,-23.812498)"><rect
       style="fill:#ffffff;stroke:none;stroke-width:0.1;stroke-linecap:round"
       id="rect1"
       width="6.0192704"
       height="8.9296875"
       x="43.656246"
       y="23.812498" /><g
       id="g36"
       transform="matrix(0.19788594,0,0,0.19788594,23.292955,10.690933)"
       style="display:inline;stroke-width:0.505342;stroke-dasharray:none"><path
         id="path8"
         style="fill:none;fill-opacity:1;stroke:#000000;stroke-width:0.505342;stroke-linecap:round;stroke-linejoin:round;stroke-dasharray:none;stroke-opacity:1"
         d="m 107.55259,69.807458 15.81892,15.871368 m 1.41428,-2.171136 -9.11563,-11.740057 -8.14095,-1.983561 1.93963,8.107878 11.72401,9.247919 m 4.68426,-0.864596 5.08495,4.957848 -1.94221,2.035765 -4.92008,-5.22527 m -3.23247,1.943195 c -0.69636,0.105009 -1.69182,-1.540645 -1.69182,-1.540645 l 4.2206,-2.756964 2.80374,-4.32525 c 0,0 1.4064,1.113324 1.53497,1.681691 0.12857,0.568366 -2.70501,4.361849 -2.70501,4.361849 0,0 -3.46613,2.47431 -4.16248,2.579319 z" /><path
         id="path32"
         style="fill:none;fill-opacity:1;stroke:#000000;stroke-width:0.505342;stroke-linecap:round;stroke-linejoin:round;stroke-dasharray:none;stroke-opacity:1"
         d="m 111.88567,88.073173 -5.02708,5.192448 -1.98438,-1.967837 5.17592,-5.010546 m -0.29766,-4.944403 2.79466,4.349089 4.29948,2.745053 c 0,0 -1.09794,1.373589 -1.68671,1.488281 -0.58878,0.114692 -4.26641,-2.579687 -4.26641,-2.579687 0,0 -2.7011,-3.401598 -2.6293,-4.183724 0.0718,-0.782127 1.48828,-1.819012 1.48828,-1.819012 z m 7.54062,3.704166 -2.57968,2.017448 m 0.39687,-3.935677 -2.59623,2.497005 m 0.24805,-4.233333 -1.60403,2.033985 m 9.77305,-6.135026 7.40833,-7.491016 m -10.02109,4.299479 1.91822,-2.331641 8.15247,-1.9513 -1.93475,8.119401 -3.24115,2.414323" /></g></g><g
     id="layer2"
     transform="translate(-43.656246,-23.812498)"><text
       xml:space="preserve"
       style="font-style:normal;font-variant:normal;font-weight:bold;font-stretch:normal;font-size:4.23333px;font-family:Arial;-inkscape-font-specification:'Arial, Bold';font-variant-ligatures:normal;font-variant-caps:normal;font-variant-numeric:normal;font-variant-east-asian:normal;fill:#000000;fill-opacity:1;stroke:#ffffff;stroke-width:0.1;stroke-linejoin:round;stroke-dasharray:none;stroke-opacity:1"
       x="45.710556"
       y="32.484673"
       id="parry"
       data-field="parry"><tspan
         id="tspan47-1"
         style="font-style:normal;font-variant:normal;font-weight:bold;font-stretch:normal;font-size:4.23333px;font-family:Arial;-inkscape-font-specification:'Arial, Bold';font-variant-ligatures:normal;font-variant-caps:normal;font-variant-numeric:normal;font-variant-east-asian:normal;stroke:#ffffff;stroke-width:0.1;stroke-dasharray:none;stroke-opacity:1"
         x="45.710556"
         y="32.484673">8</tspan></text></g></svg>
