<?xml version="1.0" encoding="UTF-8" standalone="no"?>
<!-- Created with Inkscape (http://www.inkscape.org/) -->

<svg
   width="9.2381153mm"
   height="12.356675mm"
   viewBox="0 0 9.2381153 12.356675"
   version="1.1"
   id="svg8"
   xml:space="preserve"
   xmlns:xlink="http://www.w3.org/1999/xlink"
   xmlns="http://www.w3.org/2000/svg"
   xmlns:svg="http://www.w3.org/2000/svg"
   xmlns:rdf="http://www.w3.org/1999/02/22-rdf-syntax-ns#"
   xmlns:cc="http://creativecommons.org/ns#"
   xmlns:dc="http://purl.org/dc/elements/1.1/"><title
     id="title1">NSC Template Enemys</title><defs
     id="defs2"><color-profile
       name="ISO-Coated-v2-300-ECI"
       xlink:href="../../../../../WINDOWS/system32/spool/drivers/color/ISOcoated_v2_300_eci.icc"
       id="color-profile1" /></defs><metadata
     id="metadata5"><rdf:RDF><cc:Work
         rdf:about=""><dc:format>image/svg+xml</dc:format><dc:type
           rdf:resource="http://purl.org/dc/dcmitype/StillImage" /><dc:title>NSC Template Enemys</dc:title></cc:Work></rdf:RDF></metadata><g
     id="layer1"
     transform="translate(-42.626956,-77.621527)"><g
       id="g28"
       transform="matrix(0.4846792,0,0,0.4846792,31.311182,-22.993658)"><ellipse
         style="fill:#b2b2b2;fill-opacity:1;stroke:#000000;stroke-width:0.10664;stroke-linecap:round;stroke-linejoin:round;stroke-dasharray:none;stroke-dashoffset:0;stroke-opacity:1"
         id="path31"
         cx="32.877071"
         cy="220.33858"
         rx="9.4768162"
         ry="12.693946" /><path
         style="display:inline;fill:#4e4e4e;fill-opacity:1"
         d="m 24.302064,214.93363 c 0.941654,0.12416 1.434735,0.2448 2.380018,0.32348 0.416685,-0.48857 0.833659,-0.9769 1.251658,-1.46435 0.118769,0.014 0.301779,-0.47169 0.477756,-0.48222 0.09919,0.37331 0.07658,0.8451 0.247639,1.16029 0.321362,0.18385 0.655345,0.47748 0.886659,0.587 0.362112,0.28056 0.719338,0.42055 0.201971,0.002 -0.208542,-0.19618 -0.479926,-0.38716 -0.785095,-0.65667 -0.336911,-0.2996 -0.180928,-0.86685 -0.304605,-1.28224 0.03639,-0.43634 -0.325863,-0.69176 -0.57535,-0.99549 0.03802,-0.10469 -0.672951,-0.43266 -0.479267,-0.77743 0.01907,-0.48702 0.190254,-0.7951 0.702505,-0.55049 0.535195,0.20926 0.15345,-0.58566 0.229112,-0.85941 -0.09043,-0.48753 -0.09595,-0.89527 0.515147,-0.72466 h 3.727974 c -0.08137,0.53995 -0.06879,1.08869 -0.102378,1.63285 0.276032,0.0541 0.876444,-0.38356 0.88317,0.0927 0.26752,0.40556 -0.02905,0.82174 -0.14612,0.96969 -0.28544,0.24104 -0.567788,0.55659 -0.765882,0.85195 -0.100381,0.5089 -0.07522,1.08611 -0.249908,1.55459 -0.381417,0.34899 -0.875843,0.69254 -1.187793,1.04598 0.16171,-0.0346 0.426657,-0.21617 0.472593,-0.2831 0.219565,-0.0833 0.388176,-0.2824 0.734044,-0.48649 0.443433,-0.19643 0.269353,-0.79437 0.41313,-1.18121 0.109509,-0.35693 0.459987,0.53953 0.543549,0.43528 0.408321,0.47616 0.804492,0.96289 1.225674,1.42786 l 2.799966,-0.38406 c 0.865257,0.52854 1.796801,1.01477 2.605884,1.59583 0.0047,0.74815 -0.103159,1.51289 -0.14171,2.26741 0.328275,0.40158 0.341586,0.44996 0.658926,0.83004 0.256109,0.26127 0.393815,0.60643 0.587782,0.75746 0.442171,0.42134 0.396446,1.08399 0.608619,1.63209 0.217008,0.56062 -0.181197,1.1245 -0.252375,1.68665 -0.225003,0.40727 0.06354,0.95445 0.249045,1.3343 -0.402268,1.28797 -0.985806,2.50345 -1.699697,3.66678 -0.464444,-0.87288 -1.184538,-2.30791 -1.650968,-3.17975 0.159348,-0.53665 0.299486,-1.0786 0.442013,-1.61988 -0.193445,-0.28103 -0.373239,-0.28195 -0.528208,-0.58766 -0.178158,-0.0594 -0.585051,-0.52036 -0.844138,-0.74644 -0.177484,-0.33979 -0.05535,-0.82828 -0.140128,-1.22586 0.06741,-0.3245 -0.326537,-1.04847 0.249333,-0.96962 0.426969,-0.0721 1.065768,-0.0579 1.360054,-0.19057 -1.217031,-0.46956 -2.478347,-0.92636 -3.703752,-1.34463 0.121555,0.26858 0.525768,0.61334 0.753976,0.91066 0.02715,0.16333 0.40518,0.39808 0.591871,0.69138 0.08197,0.32817 -0.181116,0.73105 -0.227153,1.08694 -0.145122,0.47851 -0.698226,0.70614 -1.014136,1.07891 -0.337815,0.2237 -0.584005,0.68569 -0.977525,0.76452 -0.917935,-0.16752 -1.93978,-0.41047 -2.795091,-0.53368 0.829434,0.43898 1.789932,0.80461 2.665242,1.22435 0.0091,1.32364 0.48792,2.59543 0.535169,3.91811 -1.183651,0.31067 -2.423824,0.43524 -3.592693,0.7648 0.202894,0.0832 0.790813,-0.0382 1.13507,-0.0352 0.890734,-0.061 1.781447,-0.12222 2.672195,-0.18296 0.502568,1.91917 0.452599,1.94781 0.957458,3.86649 -3.153373,1.19855 -6.375886,1.00278 -9.792434,-3.10604 0.06331,-0.25146 0.126527,-0.50294 0.189622,-0.75445 1.286679,0.059 2.569901,0.19153 3.856435,0.24401 -0.948346,-0.33164 -2.005798,-0.41158 -2.995914,-0.64824 -0.453213,-0.0313 -0.803759,-0.18588 -0.588229,-0.70289 0.121404,-1.13727 0.467996,-2.24266 0.509747,-3.39025 0.889841,-0.37701 1.758727,-0.78197 2.64647,-1.16652 -0.224346,-0.10243 -0.759384,0.14135 -1.101023,0.16286 -0.60901,0.10531 -1.211383,0.27745 -1.824685,0.33955 -0.598361,-0.56054 -1.267424,-1.08703 -1.812391,-1.67976 -0.07099,-0.40432 -0.325577,-0.84547 -0.290837,-1.22856 0.251991,-0.21882 0.473223,-0.73368 0.761129,-0.75887 -0.01442,-0.30512 0.499503,-0.57792 0.608868,-0.86764 -0.861468,0.27241 -1.791683,0.56406 -2.661174,0.87985 0.115466,-1.64422 0.383797,-3.22646 0.893186,-4.73937 z m 6.42761,12.83974 c 0.111009,-0.43644 0.0096,-0.99579 0.13968,-1.3676 0.520455,-0.0699 1.151653,0.0295 1.599972,-0.19264 -0.424694,-0.23418 -1.043353,-0.16329 -1.54802,-0.1824 -0.222433,-0.19446 -0.07709,-0.7807 -0.15969,-1.12411 0.07181,-0.563 -0.324278,-0.60339 -0.267361,-0.0102 -0.101192,0.34739 0.03878,0.88789 -0.122147,1.12531 -0.514131,0.0642 -1.125262,-0.0662 -1.570875,0.18283 0.207983,0.20644 0.726105,0.10135 1.049123,0.17346 0.501289,-0.0842 0.701811,0.12873 0.609102,0.63146 0.06734,0.29742 -0.06823,0.95058 0.226764,1.02407 0.01448,-0.0867 0.02897,-0.17342 0.04345,-0.26013 z"
         id="path28" /><path
         style="fill:#ffffff;fill-opacity:0.5;stroke:none;stroke-width:0.500622;stroke-linejoin:round;stroke-dasharray:none"
         d="m 39.485144,221.14519 c 0,0 -0.06287,5.11775 -1.026716,7.18703 -0.963858,2.06928 -4.320756,3.93574 -4.320756,3.93574 0,0 -3.06905,-1.81182 -4.192425,-3.76461 -1.123374,-1.95284 -1.197833,-7.14425 -1.197833,-7.14425 l 5.401085,-1.52907 z"
         id="path21-5" /></g></g><g
     id="layer2"
     transform="translate(-42.626956,-77.621527)"><text
       xml:space="preserve"
       style="font-style:normal;font-variant:normal;font-weight:bold;font-stretch:normal;font-size:4.23333px;font-family:Arial;-inkscape-font-specification:'Arial, Bold';font-variant-ligatures:normal;font-variant-caps:normal;font-variant-numeric:normal;font-variant-east-asian:normal;fill:#ffffff;fill-opacity:0.8;stroke:none;stroke-width:0.1;stroke-linejoin:round;stroke-dasharray:none;stroke-opacity:1"
       x="47.500721"
       y="82.598534"
       id="toughness"
       data-field="toughness"
       text-anchor="middle"><tspan
         id="tspan5"
         x="47.500721"
         y="82.598534">8</tspan></text><text
       xml:space="preserve"
       style="font-style:normal;font-variant:normal;font-weight:bold;font-stretch:normal;font-size:2.82222px;font-family:Arial;-inkscape-font-specification:'Arial, Bold';font-variant-ligatures:normal;font-variant-caps:normal;font-variant-numeric:normal;font-variant-east-asian:normal;fill:#000000;fill-opacity:1;stroke:none;stroke-width:0.1;stroke-linecap:round;stroke-linejoin:round"
       x="45.977039"
       y="87.276863"
       id="text4"
       data-field="armor"><tspan
         id="tspan4"
         style="font-style:normal;font-variant:normal;font-weight:bold;font-stretch:normal;font-size:2.82222px;font-family:Arial;-inkscape-font-specification:'Arial, Bold';font-variant-ligatures:normal;font-variant-caps:normal;font-variant-numeric:normal;font-variant-east-asian:normal;fill:#000000;fill-opacity:1;stroke:none;stroke-width:0.1"
         x="45.977039"
         y="87.276863">+2</tspan></text></g></svg>
