<?xml version="1.0" encoding="UTF-8" standalone="no"?>
<!-- Created with Inkscape (http://www.inkscape.org/) -->

<svg
   width="11.880129mm"
   height="11.599498mm"
   viewBox="0 0 11.880129 11.599498"
   version="1.1"
   id="svg8"
   xml:space="preserve"
   xmlns:xlink="http://www.w3.org/1999/xlink"
   xmlns="http://www.w3.org/2000/svg"
   xmlns:svg="http://www.w3.org/2000/svg"
   xmlns:rdf="http://www.w3.org/1999/02/22-rdf-syntax-ns#"
   xmlns:cc="http://creativecommons.org/ns#"
   xmlns:dc="http://purl.org/dc/elements/1.1/"><title
     id="title1">NSC Template Enemys</title><defs
     id="defs2"><color-profile
       name="ISO-Coated-v2-300-ECI"
       xlink:href="../../../../../WINDOWS/system32/spool/drivers/color/ISOcoated_v2_300_eci.icc"
       id="color-profile1" /></defs><metadata
     id="metadata5"><rdf:RDF><cc:Work
         rdf:about=""><dc:format>image/svg+xml</dc:format><dc:type
           rdf:resource="http://purl.org/dc/dcmitype/StillImage" /><dc:title>NSC Template Enemys</dc:title></cc:Work></rdf:RDF></metadata><g
     id="layer2"
     transform="translate(-40.557141,-33.186511)"><g
       id="g7"
       transform="translate(0.09921875,0.16536458)"
       style="display:inline"
       data-field="needs_mob"><ellipse
         style="fill:#5599ff;stroke:none;stroke-width:0.499999;stroke-linecap:round"
         id="path7"
         cx="46.397987"
         cy="38.820896"
         rx="5.9400649"
         ry="5.7997484" /><path
         style="display:inline;fill:none;stroke:#0044aa;stroke-width:0.23142"
         d="m 44.396099,41.678982 c 0,-0.773984 0.009,-0.861125 0.121567,-1.172137 0.17828,-0.492686 0.628035,-0.942445 1.12072,-1.120719 0.183822,-0.06651 0.42295,-0.120352 0.550927,-0.124023 0.07589,-0.0022 0.07127,-0.0044 -0.04177,-0.02067 -0.503124,-0.07195 -0.926106,-0.422766 -1.098651,-0.911221 -0.03958,-0.112014 -0.04565,-0.167583 -0.04565,-0.417453 0,-0.249866 0.0061,-0.305447 0.04565,-0.417457 0.141063,-0.399341 0.458645,-0.716917 0.857986,-0.857982 0.112014,-0.03958 0.167584,-0.04565 0.417454,-0.04565 0.249862,0 0.305447,0.0061 0.417453,0.04565 0.399341,0.141062 0.716921,0.458641 0.857986,0.857982 0.03958,0.112014 0.04565,0.167584 0.04565,0.417457 0,0.249862 -0.0061,0.305447 -0.04565,0.417453 -0.172543,0.488455 -0.595526,0.839275 -1.098648,0.911221 -0.113035,0.01604 -0.117653,0.01848 -0.04177,0.02067 0.127985,0.0036 0.367108,0.05751 0.550928,0.124023 0.492686,0.178278 0.942445,0.628033 1.12072,1.120719 0.112524,0.311012 0.121566,0.398153 0.121566,1.172137 v 0.706536 h -1.928242 -1.928242 z m -3.160664,-1.22653 c 7.1e-5,-0.819228 0.01361,-0.959323 0.121203,-1.256724 0.226288,-0.625386 0.818545,-1.126371 1.469047,-1.242664 0.240096,-0.04292 0.239999,-0.04286 0.08977,-0.07412 -0.279733,-0.05822 -0.586109,-0.243645 -0.755972,-0.457553 -0.183944,-0.231636 -0.307859,-0.57394 -0.307859,-0.850423 0,-0.276481 0.123925,-0.618782 0.307859,-0.850421 0.227649,-0.286692 0.658383,-0.491396 1.03396,-0.491396 0.375575,0 0.806298,0.204704 1.03396,0.491396 0.183943,0.231637 0.307858,0.57394 0.307858,0.850421 0,0.375577 -0.204702,0.8063 -0.491397,1.03396 -0.150957,0.119889 -0.398792,0.238783 -0.572119,0.274499 -0.152998,0.03153 -0.147237,0.0378 0.06498,0.07064 0.456743,0.07066 0.931211,0.367713 1.210555,0.757868 0.07285,0.101736 0.205432,0.325494 0.205432,0.346687 0,0.0051 -0.06962,0.06235 -0.154725,0.127133 -0.324079,0.246701 -0.612493,0.609962 -0.783861,0.987284 -0.132773,0.292337 -0.191794,0.524282 -0.212432,0.834909 l -0.01191,0.178911 -1.277212,0.0051 -1.277211,0.0051 z m 7.626763,0.727086 c -0.0073,-0.0073 -0.01337,-0.06891 -0.01337,-0.136954 0,-0.251316 -0.0802,-0.578077 -0.214402,-0.87355 -0.171375,-0.377322 -0.459784,-0.740583 -0.783862,-0.987283 -0.0851,-0.06478 -0.154724,-0.12198 -0.154724,-0.127134 0,-0.02115 0.13258,-0.244948 0.205432,-0.346687 0.279345,-0.390154 0.753811,-0.687198 1.210555,-0.757868 0.212214,-0.03284 0.217975,-0.03911 0.06498,-0.07064 -0.402356,-0.0829 -0.756036,-0.367165 -0.935446,-0.751853 -0.169503,-0.363454 -0.165443,-0.768741 0.01143,-1.13309 0.144125,-0.297017 0.348373,-0.498563 0.645774,-0.637266 0.260831,-0.12164 0.539741,-0.154432 0.820838,-0.09648 0.52471,0.108175 0.940306,0.523582 1.046451,1.046 0.03948,0.194323 0.03936,0.335318 -4.61e-4,0.528466 -0.106842,0.518273 -0.523468,0.939813 -1.031928,1.044095 -0.15047,0.03088 -0.15047,0.03088 0.08946,0.07376 0.650503,0.116293 1.242757,0.617277 1.469047,1.242664 0.107618,0.297388 0.12113,0.437507 0.121203,1.256578 l 6.3e-5,0.740485 h -1.268929 c -0.697911,0 -1.274892,-0.0061 -1.282179,-0.01337 z"
         id="path2-1" /><path
         id="path51-2"
         style="display:none;fill:#ffffff;fill-opacity:0.7;stroke:none;stroke-width:0.707232;stroke-linecap:round;stroke-dasharray:none;stroke-opacity:1"
         d="m 45.102797,35.850816 c -0.328941,-0.0495 -0.673454,0.03791 -0.845583,0.309691 -0.24143,0.380961 -0.01402,0.99507 -0.148725,1.422182 -0.0082,-0.382074 -0.05602,-0.758678 -0.366781,-1.026904 l 0.218016,2.326831 -0.289328,2.669136 c 1.215416,-0.800967 1.733593,-2.199861 2.076272,-3.490252 0.139037,-0.522314 0.318182,-1.178473 0.10594,-1.705393 -0.10915,-0.270943 -0.4209,-0.455834 -0.74982,-0.505299 z m 3.687971,0.43195 -1.096201,0.615327 c -0.172962,-0.893078 -0.755514,-0.605045 -1.3183,-0.205774 l 0.220036,1.505717 c 0.454962,-0.198478 0.868095,-0.611752 1.098242,-1.026906 l 0.291347,0.89039 c 0.383353,-0.08499 0.68463,-0.294561 0.87819,-0.615325 h 0.146704 l 0.293409,1.026906 c 0.723871,-0.480587 0.966282,-1.135189 0.73148,-1.917296 l -0.951537,0.478815 z m 1.990693,0.81704 c -0.424812,0.07713 -0.563737,0.954559 -0.660169,1.234732 -0.123623,0.358949 -0.492835,0.547723 -0.627565,0.89039 -0.137428,0.348479 -0.01608,0.797364 -0.05503,1.163416 -0.06286,0.610367 -0.295881,1.184364 -0.427883,1.780786 1.293215,-0.564163 1.980146,-2.405176 2.200556,-3.628802 0.06504,-0.358826 0.262204,-1.247176 -0.228197,-1.420146 -0.07304,-0.02556 -0.141016,-0.03174 -0.201734,-0.02061 z m -8.009629,0.08354 c -0.280053,-0.05956 -0.665635,0.250086 -0.666278,0.523639 -4.76e-4,0.198024 0.277992,0.408001 0.393244,0.560316 h 0.144684 c 0.138585,-0.221766 0.472942,-0.618202 0.354539,-0.886314 -0.05173,-0.11727 -0.132809,-0.177784 -0.226178,-0.197652 z m -0.786495,0.605327 c -0.427697,0.112373 -0.742098,0.39885 -0.584777,0.821118 h 0.146705 z"
         data-field="Bestien" /><path
         style="display:none;fill:#ffffff;fill-opacity:0.7;stroke:none;stroke-width:0.18925;stroke-dasharray:none;stroke-opacity:1"
         d="m 45.376347,42.859104 c 0.582169,-0.138351 1.386445,-2.307451 0.399453,-1.24519 -0.279054,0.384481 -1.904027,0.533817 -0.637512,0.567541 1.346654,-0.13849 -0.952949,0.310026 -0.559389,0.478769 0.226742,0.161237 0.530907,0.559048 0.797448,0.19888 z m -0.988462,-1.215808 c 1.158227,-0.107742 -0.89016,-0.389287 -0.958087,-1.047059 -0.306102,-0.604521 -0.413124,-0.817074 -0.256721,0.04667 0.08601,0.675542 0.475193,1.183947 1.214808,1.000368 z M 42.89533,41.004071 c -0.35507,-0.746464 0.08178,-2.039149 0.01742,-2.468458 -0.841612,0.534337 -1.286334,1.397922 -0.355764,2.100382 0.04383,0.02165 0.319646,0.477252 0.338342,0.368076 z m 2.595456,-1.07e-4 c -0.785794,0.131079 -1.786511,-1.591332 -1.543265,-1.501818 0.17295,0.410014 1.116266,1.240818 0.495316,0.268768 -0.421707,-1.529879 0.327632,0.717327 1.128348,0.692489 1.480924,0.295974 -0.628979,-0.503762 -0.598928,-1.161643 -0.527993,-0.804831 -0.354849,-2.419251 -0.245234,-2.921422 -0.780439,0.812252 -0.827471,2.074716 -0.636885,3.125272 -0.66065,-0.393858 -0.01433,-2.731231 -0.605612,-1.30575 -0.412169,1.261678 0.482726,3.116281 2.00626,2.804104 z m 1.990847,-0.611107 c 1.163899,-0.460819 0.578303,-1.640167 -0.396207,-1.883996 -0.250238,-0.452125 -1.113914,-0.714787 -0.11664,-0.731023 0.385829,0.621632 1.853264,1.941683 1.815736,0.356196 -0.649762,-0.611791 -1.617972,-1.427714 -2.253751,-1.719883 0.917028,-0.592507 1.234499,0.938398 2.12292,1.109005 0.818595,0.411176 0.498492,-1.308037 -0.274807,-1.305454 -0.518414,-0.198275 -1.057608,-0.874807 -1.419268,-1.005053 0.829552,-0.01332 1.56372,0.981754 2.299789,1.196648 0.312265,-1.234793 -1.553963,-1.42024 -2.314559,-1.894098 -0.472957,-0.04651 -1.438513,1.573181 -0.74248,1.030824 -0.884161,0.879366 -0.7044,2.290947 -0.442171,3.396762 0.0433,0.700144 1.213414,1.4366 0.800507,0.321505 0.307234,0.528301 1.336338,0.541817 0.699115,0.868486 -0.7996,-0.09282 -0.164714,0.457115 0.221806,0.260081 z m 1.307473,-3.198262 c 0.12332,-0.254867 -0.02996,0.134094 0,0 z m 0.267887,-1.112113 c 0.04172,-0.721721 0.155101,-0.06952 0,0 z m -3.240233,3.682659 c -0.737177,-1.145649 -0.613517,-2.665882 -0.232781,-3.92228 0.429297,-1.245831 -1.060754,0.964439 -0.677752,1.608687 -0.01652,0.822686 0.321946,1.92115 0.910533,2.313593 z m 3.989604,-1.402953 c 0.37421,-0.181691 -0.837507,-1.327975 0.06341,-1.036717 0.748213,0.452619 -0.288966,-1.88702 -0.411616,-0.461384 0.118111,0.483522 -0.743877,1.658288 0.348245,1.498101 z m 0.143284,-0.596807 c -0.160707,-0.774027 -0.556088,-0.017 0.01277,0.167679 z"
         id="path67-3-8"
         data-field="Schläger" /><path
         style="display:inline;fill:#ffffff;fill-opacity:0.796102;stroke:none;stroke-width:0.802965;stroke-dasharray:none;stroke-opacity:1"
         d="m 46.481316,43.846221 c -0.560937,-1.354371 1.35129,-1.760294 1.104814,-2.012872 -2.855119,-0.365793 1.875482,-1.385142 -0.593368,-1.527737 -1.084124,-1.72951 4.285458,-2.271065 1.248051,-4.143898 1.761287,-2.092243 -2.283526,0.912075 -1.705993,-1.919273 -0.255181,-2.942679 -0.435,3.867711 -2.644359,0.855378 1.514866,1.454798 -1.907101,2.43104 0.464803,3.411407 1.298709,0.438912 2.452852,1.825444 0.364086,2.108737 2.329518,0.193188 0.450213,1.314011 0.266028,1.513163 1.666563,-0.482203 0.44007,2.125791 1.495992,1.715095 z m -0.461467,-5.179326 c -4.899302,-1.430355 3.450576,-4.286171 1.844865,-0.599192 -0.51725,0.399284 -1.183213,0.663555 -1.844865,0.599192 z m 0.565762,-0.555099 c 0.899369,-2.705935 -1.822954,-1.019632 -0.164877,0.243031 z"
         id="path56-3-9"
         data-field="Kultist" /><path
         style="display:none;fill:#ffffff;fill-opacity:0.8;stroke:none;stroke-width:0.199124;stroke-dasharray:none;stroke-opacity:1"
         d="m 47.029537,41.455501 c 1.10938,-0.01838 1.64951,-1.376345 2.24391,-1.749409 0.70934,0.484063 0.52037,-0.883675 1.4306,-0.581074 0.54302,-0.116916 2.40243,-0.23892 0.94127,-0.370454 -0.73545,-0.126135 -1.86608,-0.0981 -1.98429,-0.85991 -1.00851,0.591127 -0.91251,-1.372257 -1.96815,-1.47107 -1.38768,-0.715238 -3.19646,0.119338 -3.65429,1.589057 -0.52547,-0.104989 -0.7529,-0.23483 -0.85554,0.371257 -0.55012,0.36462 -2.193294,0.288893 -2.290938,0.51849 0.884529,0.213711 2.318668,0.0426 2.586428,0.91813 0.99008,-0.556258 0.9391,1.370823 1.97729,1.426102 0.48606,0.22953 1.04438,0.312017 1.57371,0.208881 z m -0.79909,-0.244458 c -1.6832,-0.162112 -2.61771,-2.332471 -1.65041,-3.695022 0.80904,-1.4017 3.05447,-1.443516 3.90747,-0.06636 1.01792,1.351851 0.10696,3.544277 -1.5753,3.756 -0.22537,0.0353 -0.45583,0.03618 -0.68176,0.0054 z m 0.66922,-0.504944 c 1.47986,0.0162 1.50101,-1.936803 0.31537,-2.441969 -0.36275,-0.139827 0.56273,1.372256 -0.0697,0.493938 -0.33854,-1.238232 -1.22605,0.390467 -1.2213,0.130158 0.7231,-1.506338 -1.486,0.413558 -0.78283,1.152572 0.31097,0.642892 1.12735,0.747803 1.75851,0.665301 z m 0.27533,-2.633954 c -0.0708,-0.427344 -1.99759,-0.03649 -0.65667,0.05858 0.21247,-0.0052 0.46194,0.05336 0.65667,-0.05858 z m -0.90209,-0.313487 c -0.20726,-0.824395 0.46964,0.502159 0.64892,-0.333955 -0.16028,0.964873 1.10412,-0.472555 0.12398,-0.194848 -0.43744,-0.835938 -2.12227,0.421764 -0.77291,0.52872 z m -2.66582,1.573559 c -0.53495,-0.301328 -0.26251,-0.969962 0.23273,-0.979337 0.2135,0.07747 0.21729,1.410035 -0.23273,0.979337 z m 5.69579,0.04742 c -0.45249,-0.292522 0.0116,-1.688585 0.39188,-0.690453 0.45663,0.08405 -0.24641,0.73921 -0.39188,0.690453 z"
         id="path61-1-9"
         data-field="Söldner" /></g></g></svg>
