<svg width="65mm" height="97mm" version="1.1" viewBox="0 0 65 97" xmlns="http://www.w3.org/2000/svg" xmlns:xlink="http://www.w3.org/1999/xlink">
  <title>GnM Barriers</title>
  <g>
    <g>
      <rect x="7" y="76" width="51" height="14" ry="4.5" fill="#ff8080"/>
      <text x="8" y="79.02021" display="none" fill="#aa0000" font-family="Arial" font-size="2.8222px" font-weight="bold" stroke-linecap="round" stroke-linejoin="round" stroke-width=".3" xml:space="preserve"><tspan x="0" y="0" fill="#aa0000" stroke-width=".3">Auswirkung</tspan></text>
    </g>
    <g>
      <rect x="7" y="62" width="51" height="14" ry="4.5" fill="#acf"/>
      <text x="7.9173174" y="65.170418" display="none" fill="#0044aa" font-family="'Comic Sans MS'" font-size="2.8222px" font-weight="bold" stroke-linecap="round" stroke-linejoin="round" stroke-width=".3" style="font-variant-caps:normal;font-variant-east-asian:normal;font-variant-ligatures:normal;font-variant-numeric:normal" xml:space="preserve"><tspan x="0" y="0" fill="#0044aa" font-family="'Comic Sans MS'" font-size="2.8222px" font-weight="bold" stroke-width=".3" style="font-variant-caps:normal;font-variant-east-asian:normal;font-variant-ligatures:normal;font-variant-numeric:normal">Probe</tspan></text>
    </g>
    <rect x="7" y="7" width="51" height="14" ry="4.5" fill="#ffe680"/>
  </g>
  <g>
    <text x="32.387344" y="12.699998" fill="#000000" font-family="'Segoe Print'" font-size="4.2333px" font-weight="bold" stroke-linecap="round" stroke-linejoin="round" stroke-width=".3" text-anchor="middle" style="font-variant-caps:normal;font-variant-east-asian:normal;font-variant-ligatures:normal;font-variant-numeric:normal" data-field="name_short" xml:space="preserve"><tspan x="32.387344" y="12.699998">Geplatzte</tspan><tspan x="32.387344" y="17.991661">Dampfleitung</tspan></text>
    <text x="32.054749" y="68.356369" fill="#000000" font-family="'Comic Sans MS'" font-size="3.175px" font-style="italic" stroke-linecap="round" stroke-linejoin="round" stroke-width=".3" text-anchor="middle" style="font-variant-caps:normal;font-variant-east-asian:normal;font-variant-ligatures:normal;font-variant-numeric:normal" data-field="weapons" xml:space="preserve"><tspan x="32.054749" y="68.356369" font-family="'Comic Sans MS'" font-size="3.175px" font-style="italic" stroke-width=".3" style="font-variant-caps:normal;font-variant-east-asian:normal;font-variant-ligatures:normal;font-variant-numeric:normal">Beweglichkeit</tspan></text>
    <text x="33.098671" y="81.25695" fill="#000000" font-family="'Comic Sans MS'" font-size="3.175px" font-weight="bold" stroke-linecap="round" stroke-linejoin="round" stroke-width=".3" text-anchor="middle" style="font-variant-caps:normal;font-variant-east-asian:normal;font-variant-ligatures:normal;font-variant-numeric:normal" data-field="fail_text" xml:space="preserve"><tspan x="33.098671" y="81.25695" font-family="'Comic Sans MS'" font-size="3.175px" font-weight="bold" stroke-width=".3" style="font-variant-caps:normal;font-variant-east-asian:normal;font-variant-ligatures:normal;font-variant-numeric:normal">2W6 Hitzeschaden</tspan></text>
    <text x="33.072834" y="25.726965" fill="#000000" font-family="'Segoe Print'" font-size="3.175px" stroke-linecap="round" stroke-linejoin="round" stroke-width=".3" text-anchor="middle" style="font-variant-caps:normal;font-variant-east-asian:normal;font-variant-ligatures:normal;font-variant-numeric:normal" data-field="description" xml:space="preserve"><tspan>Alte Rohre bersten plötzlich ...</tspan></text>
    <g stroke-linecap="round" data-field="wc_wound">
      <path d="m51.449 60.009 6.361-4.116" fill="none" stroke="#000" stroke-width=".2"/>
      <path transform="matrix(.83115 0 0 .83115 -12.278 -48.232)" d="m78.458 123.1.99574-.005m.27142.005c.36871-.0159.67531.27932.66472.65434-.01061.37503-.39034.54393-.67697.53541-.28663-.009-.5442-.26771-.54014-.62319.0041-.35547.18368-.55071.55239-.56656zm-1.9214.53994h1.3336m.20547.53405-.8639-.005m-1.7659 1.1525.30131-.15484c.22649-.11223.29068-.14435.35324-.17042.10311-.0429.20262-.1013.30121-.15059.12417-.0621.34147-.19769.68611-.14232.63084.10134 1.4012.34119 1.6197.37777.26358.044.34534.053 1.049-.12985.01645-.004.02651-.006.04155-.0104.52993-.17302.72578.35089.42677.58059-.299.22969-.7506.26561-.76964.27092-.02562.007-.06011.0199-.0831.0259-.07434.0196-.13947.0356-.21812.0433-.08934.009-.18198-.0122-.27005-.0208-.10706-.0104-.21491-.0103-.32198-.0207-.04773-.005-.09718-.016-.14542-.009-.01676.002-.03596.007-.05194.0121-.0192.006-.03278.01-.05193.0208-.06001.0342-.12165.095-.17657.13849-.07414.0587-.146.12066-.21812.18176-.0267.0226-.06902.059-.09348.0814-.02551.0234-.0375.026-.06232.0519-.0226.0237-.02547.0433-.03808.0727l-.0069.0208c-.01471.0424-.02551.0234-.01904.0623l.01037.0208c.01366.0185.02124.0358.05367.0537.01354.007.04339.0162.06232.0225.07132.0237.13871.0449.20774.0727.02426.01.67527.31086.98378.45213.1567.0717.22963.15313.23264.29292.0015.0789-.25096.32532-.48892.24217-1.046-.20328-1.6557-.4816-1.8073-.42584-.1044.0384-.03851.67039-.16929.81535-.01208.0134-.02465.022-.03808.0329-.40736.33193-1.5616.32023-1.8904.15582m-2.1405-2.888h2.0773m1.0387.55051.10387-.0623.50891-.19727.14542-.0399.14022-.0277c.08035-.0131.04809.003.02941.0276-.0076.01-.18076.35787-.27354.46574l-.22162.41554-.0069.0311c-.0348.20336-.04956.4076-.07237.61281.0068.119-.01532.232-.05519.34277-.37806.16387-.81714.0998-1.2118.0434l-.07271-.0225m-2.8044-1.4749h2.0773m3.5418.48818h.03115m-4.9544.1871c.67175-1e-4 1.3434.005 2.015-.0103" fill="none" stroke="#000" stroke-width=".24063"/>
      <text x="54.583118" y="60.523182" fill="#000000" font-family="'Comic Sans MS'" font-size="3.175px" font-weight="bold" stroke-width=".2" xml:space="preserve"><tspan x="54.583118" y="60.523182" fill="#000000" stroke-width=".2">2</tspan></text>
    </g>
    <g transform="translate(20.474 36.835)" stroke="#000" data-field="consumption">
      <g transform="translate(-26.807 -88.225)" stroke-linejoin="round" data-field="Benommen">
        <ellipse cx="59.424" cy="136.73" rx="4.49" ry="4.3966" fill="#acf" stroke-width=".15"/>
        <path d="m56.716 136.39c-.1827-.65788-.31464-1.3731-.14487-1.6869.27254-.50377 1.5611-.71809 1.5611-.71809 1.0198-.4691 2.1796.27241 3.2002.0624 0 0 .39975.93291.47904 1.4436.03324.21392-.004.55156-.0648.89782m-.26583.0296s.7842-.2197.62174.42417c-.16245.64387-.68687.85858-.68687.85858m-.12489-2.0216c.15332.092.2418 1.1044.17172 1.6235-.06555.4855-.0509 1.0218-.31222 1.4362-.17211.27293-.76492.59321-.76492.59321l.06244.84296m-3.3247-3.7482s-.79248-.20591-.63003.43797c.16245.64387.68687.85858.68687.85858m1.6079.67907c.4014-.19033.72919.18524 1.0927.0156m-2.5758-2.7006c-.15332.092-.2418 1.1044-.17172 1.6235.06554.4855.0509 1.0218.31221 1.4362.17211.27293.76492.59321.76492.59321l-.06244.84297m2.4616-3.6494-.70248.67126m0-.68688.64004.66346m-1.7669-.69031-.70248.67126m0-.68686.64004.66344m3.0822-2.1909s2.4738.93754 1.8661 1.3093c-.70551.43162-3.0096-.10782-4.6219-.55866m-.642-.18661c-1.4478-.4611-3.9-1.7233-3.6145-2.0883.33636-.42999 3.4784.37262 3.4784.37262m1.297-.0545s4.4752-1.0259 4.1698-.38237c-.39195.82604-3.0683 1.727-4.6561 2.2093-1.4141.4295-4.3673.75351-4.3264.27462.04641-.54395 1.7763-1.2631 1.7763-1.2631" fill="none" stroke-linecap="round" stroke-width=".25"/>
      </g>
      <g transform="translate(-3.5146 -87.607)" stroke-linejoin="round" data-field="Abgelenkt">
        <ellipse cx="36.015" cy="136.11" rx="4.4901" ry="4.3966" fill="#cf0" stroke-width=".15"/>
        <path transform="matrix(.33032 0 0 .33032 28.143 94.861)" d="m18.522 120.58c1.3112.30032 2.4717-.16245 3.8928 1.1236-.03379-1.1042 1.4088-1.3036 2.1459-1.1252 2.6961.65236 3.1627.24751 4.485.0953m-2.2657 3.7919a.13917.15054 0 01-.13917.15054.13917.15054 0 01-.13917-.15054.13917.15054 0 01.13917-.15054.13917.15054 0 01.13917.15054zm-.30125-.95537c-1.0987-.0884-1.9634.8765-1.3798 1.8007s1.6249.56406 2.1281.0702c.50324-.49389.35038-1.7825-.74836-1.8709zm-4.8862.91829a.12599.15064 0 01-.12599.15064.12599.15064 0 01-.12599-.15064.12599.15064 0 01.12599-.15064.12599.15064 0 01.12599.15064zm-.29692-.93325c-1.0987-.0884-1.9634.8765-1.3798 1.8007s1.6249.56406 2.1281.0702c.50324-.49389.35038-1.7825-.74836-1.8709zm-5.1429-.28887c-.54739-1.9711-.94271-4.114-.43405-5.0542.81657-1.5094 4.6772-2.1515 4.6772-2.1515 3.0555-1.4055 6.5305.81619 9.5883.18708 0 0 1.1977 2.7952 1.4353 4.3253.0995.64095-.0108 1.6526-.19413 2.69m-.79647.0885s2.3496-.65828 1.8629 1.2709-2.058 2.5725-2.058 2.5725m-.37418-6.057c.45937.27562.72446 3.3091.5145 4.8643-.19639 1.4546-.1525 3.0614-.93545 4.303-.51566.81774-2.2918 1.7773-2.2918 1.7773l.18709 2.5257m-9.9614-11.23s-2.3744-.61694-1.8877 1.3122 2.058 2.5725 2.058 2.5725m4.724 1.9878c1.2027-.57023 2.5321-.28835 3.2741.0468m-7.6239-8.0448c-.45937.27562-.72446 3.3091-.5145 4.8643.19639 1.4546.1525 3.0614.93545 4.303.51566.81774 2.2918 1.7773 2.2918 1.7773l-.18709 2.5257" fill="#cf0" stroke-linecap="round" stroke-width=".75685"/>
        <ellipse cx="36.941" cy="135.98" rx=".14285" ry=".137" stroke-linecap="round" stroke-width=".092709"/>
        <ellipse cx="35.218" cy="135.95" rx=".14285" ry=".137" stroke-linecap="round" stroke-width=".092709"/>
      </g>
      <g transform="translate(-14.834 -88.004)" stroke-linejoin="round" data-field="Verwundbar">
        <ellipse cx="47.334" cy="136.5" rx="4.4901" ry="4.3966" fill="#e5ff80" stroke-width=".15"/>
        <path d="m48.34 133.91 1.6023.46999s-.03139 2.5557-.51272 3.589c-.48133 1.0334-2.1577 1.9654-2.1577 1.9654s-1.5326-.90478-2.0936-1.88c-.56099-.9752-.59817-3.5677-.59817-3.5677l2.0936-.85453.6409.5768-.96135 1.8159 1.2818 2.0722-.57681-2.0082z" fill="none" stroke-width=".25"/>
      </g>
      <g transform="translate(-38.695 -94.009)" data-field="Gebunden">
        <ellipse cx="71.195" cy="142.51" rx="4.4901" ry="4.3966" fill="#deaa87" stroke-linejoin="round" stroke-width=".15"/>
        <path d="m70.371 140.2c-.0629-.009-.11984-.0214-.19602-.0422-.0653-.0179-.12609-.093-.18962-.0411-.13724.16394-.31026.54626.0778.55149.14481.002.26768-.15066.2994-.2723.0167-.0641.02-.11974.0271-.19589.0119-.12697.01-.19167.009-.33581-2e-4-.14599-.0251-.27971.0787-.40998.1058-.13287.30738-.17278.4627-.0992.0661.0313.12766.15467.21423.14676.15649-.0143.21278-.18429.40625-.17692.16446.006.24429.22505.38052.24758.17343.0287.30169-.11256.5005-.0964.18342.015.24652.0573.36175.15121.11717.0955.13885.19372.25642.32079.0858.0927.15377.14346.22019.1905.12934.0672.14367.18042.14105.31333.00021.13101-.0329.31355-.0664.44775-.0768.30735-.14708.6162-.22388.92348-.0454.18181-.11123.28543-.0618.44171.0284.0898.12301.0865.18155.12175.12137.073.13023.20999.10308.29967-.0412.13614-.17632.11583-.29626.1163-.15341.00062-.20211-.027-.29989.0322-.0711.043-.0915.10181-.12163.16383-.0338.0696-.0629.12918-.0394.18561.0626.15058.33549.0662.43297.0661.14126-5e-5.25965.0224.36097-.0481.088-.0612.13816-.16978.0837-.28654-.0366-.0785-.0744-.10278-.10884-.14114m-3.0223-3.1902c-.12902-.0244-.33751-.20516-.52783-.13667-.0797.0287-.22187.14044-.30184.20725-.0983.0821-.16957.14777-.21825.20927-.15034.18992-.27336.26271-.32523.32133-.0519.0586-.10897.23838-.10897.23838l.11329.59293c.0811.34468.17904.62195.23726 1.0581l.0444.23178.21969.0481.27984.007.3638-.007h.41976m.61567-2.7984.01.77728c.01.36113-.01.62929-.01.73388.00041.0725-.007.12005.0193.19589.0295.0853.094.15923.14037.22387.0929.12932.24449.32312.32061.47573.0737.1478.0362.20818.0992.32428.0261.0481.0699.0583.12131.0653.0688.009.1.009.16674.01.11855.001.21038-.007.33581-.007.2019-7e-5.21578.006.3638.007.10195.001.17663-.007.30782-.007m-1.1194-2.7425c0 .1062-.001.24002 2e-4.39178.00041.0601.003.11578.004.19589.00083.0867-.004.14569.0204.22384.0509.16057.31582.28822.50102.19178.12792-.0666-.041-.46437-.1217-.49923-.13961-.0603-.27809.0626-.37562.0836m-.25185 2.1548c-.1337-2e-5-.18253.0407-.29059-.0321-.0946-.0638-.11405-.19028-.26873-.1791-.13285.01-.14791.1221-.23765.1791-.049.0311-.0982.0322-.15419.0305-.0529-.002-.10202-.002-.13526-.0465-.0495-.0658-.012-.15092.0141-.23178.0978-.30322.3725-.64208.51266-.75558m.25185 1.0354c-.006.0785-.0146.148-.0705.19837-.0566.051-.10712.0641-.18134.10578-.067.0376-.11101.0687-.19586.10501-.10004.0428-.11797.0375-.25186.0386-.15087.001-.16792.0162-.33582-.009-.16513-.0248-.18461.006-.3358.009-.16186.003-.19549.0165-.3638-.009-.1671-.0251-.2074.008-.3638.009-.12858.001-.21206.0236-.29629-.048-.0638-.0542-.0708-.1338-.0588-.20369.0298-.17291.17426-.19108.2711-.196m.5317.028c-.0447.16647-.0812.21485-.13992.33581m.83953-.33581c-.0447.16647-.0812.21485-.13992.33581m.64364-.33581v.33581m1.0914-.33581-.0714.19602.003.1969.32075.0268.41977.0281m.028-.44775c-.0447.16647-.0812.21485-.13992.33581m-1.2033-.11193.004.2239-.003.16788-.007.25185.007.19589.0327.20381.13599.0469.19563.001-.01 1.2352m-2.7888-2.1867-.0572.0615c-.15345.19378-.0584.22366-.0183.44217.0155.0842-.0207.13107-.0106.22356.0134.12294.0966.1902.19835.21506.0834.0204.13737.0107.22356.009.10564-.002.16491-.0245.27984-.0198.14112.006.15197.0202.33581.02.16381-.00013.19726-.0191.33581-.0206.0657-.00062.11051.0113.16791.0169.0564.006.11093.007.16791.007.10471.00015.14062.0176.24902-.0153.083-.0252.10836-.16088.16271-.22462.0455-.0533.0876-.0693.14804-.10321.096-.0539.17574-.0718.22379-.0804m.056-.47573c.21485 0 .31101-.003.44775-.028m-2.1548.056c-.0104.0388-.0271.0946-.0589.16828-.032.0742-.0829.16122-.01.22315.11176.0949.24589.0302.34873.0281.16344-.003.18491-.0279.39178-8e-5.14291.0192.17506.001.30783.00042.0802-.00062.16658.0179.21969-.0481.041-.0509.0311-.10792.032-.17569.001-.10562.00012-.15964.00012-.19601m-.5317 0c-.0371.13816-.0708.19345-.13992.33581m1.735-.33581c-.0104.0388-.0271.0946-.0589.16827-.0328.076-.0935.17959.0107.23674.12051.0661.19665.0163.30002.0147.11519-.002.22878-.0187.27985-.028m-3.61.028c.25285 0 .41801.008.61566-.028m1.847.028h.0482c.13269 0 .24798-.00041.39956-.028m1.5391.028.0362.0615c.086.20917-.0551.23924-.12806.42135-.0259.0648-.0132.12478-.002.18874.0145.0866.23498.93535.25937 1.0229m-3.831-1.6666c-.0412.15352-.0753.20262-.13992.33582m.83953-.33582c-.0412.15352-.0753.20262-.13992.33582m.67162-.33582v.13992m1.0634-.13992c-.0118.0438-.0377.11472-.0714.19602-.0195.047-.0498.10069-.0257.15624.0462.10651.14291.0676.29305.0675.15957-.00013.20259-.0191.33582-.0206.0913-.001.15712.0171.22387.0196.19289.007.36092.001.50372.001m-.55969-.41977c-.0412.15352-.0753.20262-.13992.33582m-.78356.056h.056m-.8955.028c.0852.19738.34066.20487.41976 0m-.78356.028-.005 1.2998m-1.5343-1.2718c-.0182.3844-.13705.7539-.21601 1.1283" fill="none" stroke-linecap="round" stroke-width=".25"/>
      </g>
      <g transform="translate(-49.281 -88.439)" data-field="Festgehalten">
        <ellipse transform="translate(-1.3125e-6)" cx="81.781" cy="136.94" rx="4.4901" ry="4.3966" fill="#e9c6af" stroke-linejoin="round" stroke-width=".15"/>
        <path d="m80.91 134.71c-.0629-.009-.11984-.0214-.19602-.0422-.0653-.0179-.12609-.093-.18962-.0411-.13724.16394-.31026.54626.0778.55149.14481.002.26768-.15066.2994-.2723.0167-.0641.02-.11974.0271-.19589.0119-.12697.01-.19167.009-.33581-2e-4-.14599-.0251-.27971.0787-.40998.1058-.13287.30738-.17278.4627-.0992.0661.0313.12766.15467.21423.14676.15649-.0143.21278-.18429.40625-.17692.16446.006.24429.22505.38052.24758.17343.0287.30169-.11256.5005-.0964.18342.015.24652.0573.36175.15121.11717.0955.13885.19372.25642.32079.0858.0927.15377.14346.22019.1905.12934.0672.14367.18042.14105.31333.00021.13101-.0329.31355-.0664.44775-.0768.30735-.14229.61744-.22388.92348-.11789.44223-.03052.57725.0084.96774-.15341.00062-.28396-.0153-.38174.0439-.0711.043-.0915.10181-.12163.16383-.0338.0696-.0629.12918-.0394.18561.0626.15058.33549.0662.43297.0661.14126-5e-5.25965.0224.36097-.0481.088-.0612.13816-.16978.0837-.28654-.0366-.0785-.30826-.11447-.3427-.15283m-2.7884-3.1785c-.12902-.0244-.33751-.20516-.52783-.13667-.0797.0287-.22187.14044-.30184.20725-.0983.0821-.16957.14777-.21825.20927-.15034.18992-.27336.26271-.32523.32133-.0519.0586-.10897.23838-.10897.23838l.11329.59293c.0811.34468.17904.62195.23726 1.0581l-.02575.5475m1.9689-3.066.01.77728c.01.36113-.01.62929-.01.73388.00041.0725-.007.12005.0193.19589.0295.0853.08476.16698.14037.22387.18935.19372.49773.53186.49893 1.2241m.09699-3.0982c0 .1062-.001.24002 2e-4.39178.00041.0601.003.11578.004.19589.00083.0867-.004.14569.0204.22384.0509.16057.31582.28822.50102.19178.12792-.0666-.041-.46437-.1217-.49923-.13961-.0603-.27809.0626-.37562.0836m-1.4669 2.4926c-.01734-.12719.11662-.53679.14272-.61765.0978-.30322.3725-.64208.51266-.75558m.18135 1.2338c-.0566.051-.17728-.0996-.2515-.0579-.067.0376-.04085.2324-.1257.26871-.10004.0428-.11797.0375-.25186.0386-.15087.001-.16792.0162-.33582-.009-.16513-.0248-.18461.006-.3358.009-.16186.003-.19549.0165-.3638-.009-.1671-.0251-.2074.008-.3638.009-.12858.001-.21206.0236-.29629-.048m2.9703.0212.32075.0268.41977.0281m-1.3152-.22387.004.2239-.003.16788-.007.25185.007.19589.0327.20381m.38132-.24735-.0597 1.5305m-2.7888-2.1867-.0572.0615c-.15345.19378-.0584.22366.12236.48292.39351.0407.3248-.0331.52246-.0691m1.4472.23956c.0455-.0533.0876-.0693.14804-.10321.096-.0539.17574-.0718.22379-.0804m.056-.47573c.21485 0 .31101-.003.44775-.028m-2.1548.056c-.0104.0388-.0271.0946-.0589.16828-.032.0742-.0829.16122-.01.22315.11176.0949.24589.0302.34873.0281.16344-.003.18491-.0279.39178-8e-5.14291.0192.17506.001.30783.00042.0802-.00062.16658.0179.21969-.0481.041-.0509.0311-.10792.032-.17569.001-.10562.00012-.15964.00012-.19601m-.5317 0c-.0371.13816-.0708.19345-.13992.33581m1.735-.33581c-.0104.0388-.0271.0946-.0589.16827-.0328.076-.0935.17959.0107.23674.12051.0661.19665.0163.30002.0147.11519-.002.22878-.0187.27985-.028m-1.1474.028h.0482c.13269 0 .24798-.00041.39956-.028m1.3771.11329c-.0259.0648.05696.52234.06816.5863.0145.0866.23498.93535.25937 1.0229m-2.5996-1.6666v.13992m.0089.15124c.0472.33769.33189.33349.41099.12862m-.8508-.37541.06224 1.7032m-1.4642-1.6928c-.0182.3844-.20721 1.1748-.28617 1.5492" fill="none" stroke-linecap="round" stroke-width=".25"/>
      </g>
      <g transform="translate(-3.2574 -106.84)" stroke-linejoin="round" data-field="Angeschlagen">
        <ellipse cx="35.857" cy="155.31" rx="4.4901" ry="4.3966" fill="#fd5" stroke-width=".15"/>
        <path transform="matrix(.82052 -.13286 .13286 .82052 -64.229 44.966)" d="m93.498 152.34-.23483-.2071-.23814.20329.1244-.28734-.26692-.16367.31171.0295.07318-.30444.06825.30558.31215-.0245-.26953.15934zm8.8213-.92981-.31171-.0668-.11006.2992-.0328-.31711-.31856-.0122.29143-.1292-.0868-.30674.21295.23724.2649-.17737-.15983.27583zm-8.9409-2.4182-.31172-.0668-.11005.2992-.03282-.31711-.31856-.0122.29143-.1292-.08682-.30674.21294.23724.2649-.17737-.15982.27583zm8.2273.7725-.15462-.34068-.35909.10504.27623-.25233-.21087-.30906.32535.18473.22877-.29604-.0752.36651.35224.12614-.3718.0418zm-3.586-3.2319-.13275-.51422-.5278.0589.44803-.28516-.21913-.48376.40965.33798.39237-.35789-.19485.49404.46163.26257-.53008-.0326zm.27656 4.1948c0-.0508-.0468.0855-.08636.0791-.03956-.006-.06507-.0522-.05698-.10233.0081-.0501.0468-.0855.08636-.0791.03957.006.05698.15312.05698.10234zm.31611-.34456c-.44312-.1088-.86027.22826-.68295.64452s.62664.33799.86496.16943c.23831-.16852.26111-.70517-.182-.814zm-2.0124.0459c-.0081.0501-.0468.0855-.08636.0791-.03957-.006-.06508-.0522-.05698-.10234.0081-.0501.0468-.0855.08636-.0791.03957.006.06508.0522.05698.10234zm-.10455-.39503c-.44312-.1088-.86028.22826-.68295.64452.17733.41626.62664.338.86496.16943.23831-.16853.26111-.70518-.182-.814zm-.89446-1.3554c.49528.20109.97994.0932 1.4557.68802.05683-.4353.63547-.42188.91327-.3051 1.0162.42716 1.225.29791 1.7534.32229m-5.3103.19189c-.09325-.84167-.11301-1.7434.15705-2.094.43353-.56274 2.0536-.56969 2.0536-.56969 1.3415-.37217 2.6145.7656 3.9056.71088 0 0 .30447 1.2214.3003 1.8623-.002.2685-.11409.6745-.25731 1.0864m-.33129-.0166s1.0036-.11353.67711.64256-1.0111.915-1.0111.915m.24786-2.4998c.16948.14298.0771 1.4001-.11161 2.0217-.17652.5814-.2649 1.2409-.66694 1.6964-.26481.30003-1.0541.57462-1.0541.57462l-.09063 1.0444m-3.3274-5.248s-.9294-.40921-.85815.41128c.07125.82051.67072 1.1873.67072 1.1873m1.7688 1.1886c.66674-.0819.82318.36478 1.3348.23575m-2.553-3.8555c-.20594.0822-.51497 1.3042-.53207 1.9536-.016.60738-.14025 1.261.09754 1.8202.15661.36825.8189.87787.8189.87787l-.24356 1.0197" fill="none" stroke-linecap="round" stroke-width=".30077"/>
        <ellipse cx="36.399" cy="155.59" rx=".14285" ry=".137" stroke-linecap="round" stroke-width=".092709"/>
        <ellipse cx="34.964" cy="155.56" rx=".14285" ry=".137" stroke-linecap="round" stroke-width=".092709"/>
      </g>
    </g>
    <path d="m15.206 73.426-.0071-.01226q-.0057-.01242.01354-.07173.0021-.0063.0096-.01.0071-.0032.0084-.0096.0016-.005.01321-.05625.01144-.05081.01335-.06134.01351-.06408.02072-.08627.0068-.02083.01431-.02609.0074-.0048.01059.0021.0058.01266-.0047.05915-.01063.04718-.01917.08037-.02679.10784-.02979.12986.01946.05059.04172.12498l.03819.1266q.0085-.02626.01597-.0896.01368-.11151.03414-.17444.0066-.02037.01358-.0053.0044.0096.0036.01945-.000925.01033-.01331.07916-.01229.06903-.02759.1809-.01531.11185-.01781.11955-.0047.01449-.01295.0144-.0082-8.4e-5-.01189-.008-.0031-.0067-.002-.02674-.03282-.14659-.05563-.2083-.0227-.06146-.02851-.06556-.01091.03499-.02748.10941-.02314.10184-.04095.15662-.0086-.000126-.01214-.0078-.0038-.0081-.0034-.01503.000395-.0069.0065-.03682.0061-.0299.02432-.09621.02649-.09768.03267-.1352zm-.4705.22902q-.000284-.02377.000503-.07372.000982-.06171.0067-.20878.0013-.03985.0012-.05042-3e-6-.01108-.0025-.02604-.0026-.01613-.0025-.02604.000125-.008.0051-.02356.0047-.01593.0081-.01931.01194-.01299.01823.01165.0061.02484.0057.0498l-.000273.01744q-.000717.04521-.0034.06903-.0078.0729-.0094.17043-.0013.0834.0056.13795.0069.05455.01542.06381.0096.01043.01181.01868.0024.0076.0021.02596-.000584.03675-.01326.05055-.01929.02101-.03336-.0035-.01424-.02432-.03167-.09939-.01-.0443-.0138-.05214-.0038-.0079-.02265-.04157-.01878-.03424-.03249-.04756-.0137-.01336-.02453-.01362-.01102-.000504-.02038.0097-.01286.01399-.02672.06751-.01404.05372-.01456.08717-.000462.02875.01279.0713.01304.04277.02566.05683.0082.0091.0076.04689-.000148.009-.0082.02798-.008.01904-.01285.02413-.0035.0038-.0047.0029-.0013-.00088-.01303-.03214-.01178-.03161-.02022-.05766-.0086-.02629-.01283-.05736-.0042-.03111-.0033-.0881.00077-.04855.01724-.10812.01629-.05986.03185-.09728.01541-.0371.01761-.0395.02518-.0274.06814.02082.04296.04774.06523.13559zm.54231-1.6532q-.02025-.02084-.05419-.0086-.01332.05935-.02.10991l-.0029.02294-.0028.02094-.0029.02294q-.0025.01987-.0036.02708-.001.0067.0013.02262.0023.01546.0015.02158-.002.01533-.01014.03473-.0079.02011-.01311.021-.01352.0027-.01547-.01532-.002-.0175.0029-.0548.0026-.0199.0098-.06312.0067-.04163.0097-.06259.0072-.04967.01673-.09632-.0038-.0012-.01189.000352-.03645.0072-.06141.02961-.02728.02481-.04713.02875-.0082.0016-.01391-.03104.01608-.06485.11572-.25923.03179-.06151.05224-.10537.02149-.04654.04648-.09329.02499-.04674.02843-.04742.01386-.0027.0111.01818-.0033.01496-.02378.10818-.0379.17711-.05241.25809.0094.01055.03871.0047l.0118-.0023q.0098-.0019.01259.0094.0031.01086-.0021.04964-.0015.01178-.0058.02152-.0043.0097-.0082.01058-.0048.000952-.0074-.0035zm-.01695-.32986q-.0088.02013-.03867.0783-.02493.04872-.03611.0753-.02593.06134-.0668.13611-.0011.0075.0021.0071.0077-.0095.05237-.02682.02514-.01.03772-.02191.0058-.03297.01466-.07454.03037-.14032.03475-.17351zm-2.0552 1.0235q-.01105.03542-.02679.03717-.0088.001-.01722-.0045-.0088-.0055-.01978-.03546l-.02839-.07963q-.01757-.0492-.03158-.10861-.01164.02699-.03741.14138-.01976.08853-.03102.12432-.02614.08326-.08346.08992-.01131.0013-.01666-.0074-.0056-.0091-.001-.02366.0033-.01065.01659-.02711.0163-.02055.02258-.03153.0063-.01146.01303-.03275.01075-.03447.033-.12503.02728-.11925.0498-.19085.01868-.05958.0479-.06293.02081-.0024.02764.02053.007.02248.01319.06649.0084.0582.01452.08125.0059.02263.02055.0442.0139-.05287.02242-.07998.01837-.05863.04296-.10195.02417-.04337.04862-.06628.02456-.02338.03903-.03579.01443-.01242.04291-.01575.02446-.0029.06428.03815.03946.04105.0372.14664-.0023.10558-.03497.20961-.0095.02989-.03272.08724-.02347.05682-.04256.07162-.01893.01432-.03424.01613-.03832.0045-.02325-.04344.000599-.0019.0042-.0074l.02108-.03464q.03632-.05737.05062-.10285.01245-.03972.02636-.1196.01352-.07987-.0078-.1305-.02171-.05056-.04506-.04785-.03977.0047-.07004.06179-.03048.0567-.05178.12443-.02971.09424-.02258.15457zm.86325.3755q-.02055.01371-.06246.03785-.05179.02985-.17201.09096-.03283.01706-.04191.02304-.0095.0058-.02449.02097-.01619.01619-.02449.02097-.0067.0039-.01546-.0023-.0091-.0055-.0092-.01325-.000135-.0279.02667-.05924.02679-.03095.04776-.04302l.01462-.0084q.03795-.02187.05577-.02653.05503-.01581.13686-.06297.06998-.04033.12286-.08931.05289-.04898.0686-.07868.01768-.03341.02673-.04425.0087-.01102.02408-.01991.03083-.01777.03098.01184.000212.04504-.03358.09907-.03385.05435-.11388.14477-.04693.05242-.05716.06779-.01023.01538-.05627.08792-.04643.07279-.07039.11971-.02396.04693-.03411.0786-.01056.03232-.01046.05421.00014.03001.03311.042.03297.01239.06103-.0038.02411-.01388.07259-.07494.04847-.06063.07205-.10475.01531-.02861.04695-.04686.0075-.0043.0163.0091.0088.01345.0088.02461 3.2e-5.0082-.002.0124-.002.0042-.03937.05496-.03782.05102-.06776.08938-.03032.03899-.06073.06769-.0304.02871-.07822.05626-.04072.02347-.07648.0071-.03615-.01573-.05371-.04131-.01755-.02515-.01757-.03031-.000274-.05876.08026-.20929.08016-.15029.17556-.26161zm.50009-1.18q-.01707-.0506-.06672-.08604-.04384.04321-.07509.08669l-.01399.01995-.01294.018-.014.01992q-.0121.01731-.01673.02328-.0043.0055-.0083.0256-.0039.01945-.0078.02458-.0095.01317-.02868.02214-.01929.0096-.02644.0034-.01882-.0164-.01332-.03804.0052-.02107.02822-.05326.01231-.01712.04068-.0524.02721-.03414.04065-.05171.03164-.0417.06474-.07713-.0045-.0067-.01565-.01648-.05071-.04422-.09318-.05625-.04659-.01277-.0742-.03684-.01143-.01-.0042-.05227.04985-.04511.26634-.10708.06884-.01927.11504-.03613.04873-.01823.10215-.03166.05341-.01343.05818-.0093.01929.01682.0064.03484-.01079.01131-.07922.07951-.12835.13168-.18338.19585.0076.02444.04829.05997l.01643.01434q.01357.01184.01218.02777-.000818.01572-.02481.04908-.0073.01011-.01722.01428-.01.0042-.01545-.000624-.0067-.0058-.008-.01416zm.12506-.36958q-.02048.0086-.08529.02707-.0542.0156-.08062.02757-.06114.02741-.14771.04764-.0047.0066-.00046.01031.01434.0011.08017.04633.0372.02529.05891.03065.02206-.02647.05236-.05721.10213-.10382.12264-.13237zm-.93851 3.6039c-.08686-.0062-.24703-.03099-.32234-.04988-.09258-.02322-.23334-.07062-.24516-.08257-.0061-.0061-.0032-.0074.0091-.0037.11662.03498.54616.05308.79304.03341.34708-.02764.67522-.0982.9332-.20068.03815-.01514.07088-.02604.07273-.02419.0051.0051-.18236.11042-.25991.14607-.15606.07173-.38642.13878-.56296.16388-.09901.01407-.33083.0239-.41768.01767zm-.14044-.32629c-.27354-.03723-.52634-.12303-.75208-.25527-.03893-.02279-.06942-.04282-.06776-.04448.0018-.0019.05394.01546.11618.03802.2151.07799.49646.13788.78962.16805.16063.01653.49944.01421.63998-.0044.11246-.01489.23309-.03684.26621-.04846.01075-.0038.01268-.0025.0063.0044-.03149.03409-.34436.12056-.51575.14254-.12983.01667-.35867.01646-.48274-.000356zm.3629-.46589c-.015-.0039-.04358-.01478-.06356-.02415-.04109-.01927-.07371-.05092-1.3055-1.2662-.10922-.10775-.18646-.19144-.1971-.21354-.03847-.07993-.03115-.17128.01929-.24091.02084-.02874.18172-.13984.7278-.50249 1.1735-.7793 1.9921-1.3093 2.0438-1.3232.09544-.02568.18876.0119.23041.09285.01827.03557.02347.06683.03451.20876.0072.09183.02736.35287.04491.58009.01756.22722.04203.53572.05442.68554.02009.243.05684.69632.10046 1.2393.01699.2115.01254.25398-.0332.31615-.04032.05482-.0767.0728-.2244.11087-.07341.01891-.39701.10267-.71912.1861-.32211.08344-.60813.15312-.6356.15485-.02746.0018-.0622-6.9e-5-.07718-.004zm.35754-.22796c.04307-.0099.1825-.04066.30984-.06843.68704-.1498.81528-.17828.84287-.1872.0445-.01439.06506-.0542.06505-.12594-2e-6-.05522-.01813-.30493-.04976-.68554-.07736-.93084-.159-1.967-.159-2.018 3e-6-.03087-.01108-.01824-.02982.03397-.03202.0892-.17366.47029-.39823 1.0714-.12966.34707-.27692.74138-.32726.87622-.10774.2886-.37625.99868-.389 1.0287-.01301.03062-.01083.05725.0062.07604.01891.02091.03263.02077.12913-.0014zm-.31581.02428c.02775-.01264.17638-.39191.95382-2.4806.10968-.29463.21145-.56773.22618-.60686.03074-.08166.03334-.11098.0109-.12253-.02219-.0114-.02675-.0092-.17933.08923-.07491.0483-.26491.17076-.42222.27214-.64078.41292-2.0493 1.3466-2.0677 1.3705-.01617.02113-.01403.05948.0042.07563.0087.0077.11033.15547.18379.22723.32225.3148.66422.6829 1.1133 1.0663.05541.0291.10771.1388.17704.10891zm2.1432-.19927c.17492-.43646.2737-1.0687.24543-1.5711-.0054-.09672-.01239-.18373-.01546-.19336-.0051-.01585-.0046-.01605.0046-.0018.01603.0249.06129.2366.07689.35962.01845.14558.01863.42061.000309.56166-.03555.27385-.1458.59876-.27675.81556-.02557.04237-.04823.07702-.05032.07702-.0021 8.4e-5.0049-.02132.01532-.04767zm-.23267-.15623c.06862-.18959.12978-.49038.14942-.73493.0156-.19411.0096-.50795-.01318-.69103-.0032-.02665.0028-.01582.0228.04086.05187.14664.09058.38416.09058.55581 0 .21276-.0618.49001-.15508.69574-.02704.05961-.11599.2194-.12215.2194-.0018-6.6e-5.0105-.03865.02765-.08576zm-5.1439-.40165c-.40125-.03028-.79791-.18382-1.1136-.43105-.05189-.04063-.09247-.07574-.09019-.07802.0023-.0021.04015.0166.08415.04196.3256.18762.98503.39894 1.3979.44798.06383.0076.0891.0135.07477.01752-.02187.0061-.27772.0073-.35306.0018zm.05902-.37207c-.41505-.02536-.76445-.14843-1.0725-.37772-.09503-.07073-.23896-.20285-.28683-.2633-.02571-.03245-.01854-.02867.069.03631.12978.09636.26591.17677.46407.27415.29266.1438.65467.27524.85517.31049.03405.006.06579.01432.07054.01849.0084.0074-.0015.0076-.09942.0014zm.19977-.61249c-.01997-.0046-.42305-.13722-.89573-.29468-.61873-.20612-.87429-.29521-.91254-.31812-.10047-.06019-.19002-.16609-.22935-.27122-.0099-.02632-.04492-.19855-.07791-.38268-.03299-.18413-.0739-.41242-.09091-.5073-.08062-.44992-.11535-.64325-.1313-.73094-.03704-.20374-.03986-.23299-.02882-.2998.01176-.07128.04061-.14139.08025-.19506.03226-.04368.1098-.10901.96516-.81307.34764-.28614.38964-.3138.51788-.34102.12616-.02678.20093-.01649.65798.09034.22473.05253.55978.13073.74456.17377.18478.04304.40451.09431.4883.11395.08379.01963.17564.04701.20412.06083.06567.03188.14376.10953.18059.1796.03887.07395.05076.13416.09415.47658.02055.1623.05151.40338.06876.53572.088.67498.11269.87385.11269.90784-1e-6.09986-.05135.25444-.11295.34008-.0281.03906-.24356.24787-.85428.82796-.37475.35595-.39884.37737-.45841.40756-.08924.04522-.22556.06201-.32224.03968zm.07399-.14873c.04421-.02896.04344-.04896-.0196-.508-.13418-.97709-.20435-1.4431-.22313-1.482-.01006-.02082-.03613-.05429-.05792-.07438-.04425-.04078-.01817-.03179-.47702-.16434-.15731-.04544-.32688-.09466-.37682-.10939-.04994-.01471-.24607-.07197-.43584-.12722-.18977-.05525-.39203-.11432-.44946-.13128-.17635-.05208-.17721-.05223-.21234-.03755-.05072.02119-.06355.04947-.05726.12624.003.03602.03428.22482.06963.41958.03535.19476.0989.5482.14123.78542.08569.4802.09306.51359.12652.57345.03078.05507.10793.13456.15923.16407.02247.01293.41881.14882.88076.30199.46194.15317.84398.28004.84898.28194.0154.0059.06155-.0044.08306-.01853zm-.60292-.4264c-.02623-.01221-.06837-.04288-.09363-.06814-.14606-.14606-.12028-.34991.04418-.34939.09573.000305.20616.07918.25789.1842.01626.03302.02085.05768.02085.11197-6e-6.06174-.0026.07238-.0227.09393-.05199.05564-.12514.06535-.2066.02743zm-.98334-.28934c-.11357-.03142-.21558-.15053-.2321-.27101-.0089-.06457.02011-.12092.07451-.14499.05082-.02248.09224-.01838.15958.01571.0626.03174.12154.09349.15333.16067.07203.15229-.01053.27966-.15532.23961zm.43015-.36373c-.05406-.01756-.09429-.04446-.14053-.09401-.13059-.13992-.11423-.32877.02986-.34466.13627-.01503.30295.15161.30295.30288-4e-6.04267-.0045.06235-.01873.08134-.04409.05906-.10271.07744-.17356.05444zm.42836-.3947c-.10496-.04997-.18679-.16409-.1936-.26999-.01004-.15618.13298-.21141.2825-.10909.13237.09059.19047.26508.11724.3521-.04905.05829-.12069.06766-.20614.02696zm-1.0469-.28845c-.05746-.02105-.14134-.10301-.17466-.17069-.03887-.07892-.04413-.14276-.0161-.19495.05595-.10419.19177-.09541.30704.01984.05898.05896.0914.12164.09745.18843.0057.06302-.0076.10648-.04321.14057-.02227.02134-.0362.02636-.07924.0285-.03129.0014-.06787-.0032-.09128-.01168zm2.0679 1.6835c.01775-.0154.14252-.13256.27726-.26043.59304-.56278.88134-.84346.90551-.88157.03929-.06191.07076-.17138.07076-.24602 4e-6-.03483-.01436-.17457-.03188-.31052-.01756-.13595-.04194-.32481-.05423-.4197-.01229-.09489-.04528-.3523-.07331-.57204-.0332-.26026-.05624-.4106-.06608-.4313-.01286-.02704-.02028-.0322-.04978-.03462-.04119-.0036-.0045-.03191-.4197.32635-.90927.7846-.91194.78706-.93408.86163-.008.0266-.01441.06367-.01441.08219-4e-6.01851.01847.16181.04105.31842.04229.29337.07887.55162.14063.99298.08462.60465.07844.56983.10529.59313.02996.026.05724.02109.10298-.01848zm.12412-.56182c-.03397-.02672-.05032-.06286-.05689-.12573-.01837-.17574.10319-.37786.21099-.35079.11799.0296.11153.29634-.01045.43136-.05861.06488-.10145.07834-.14365.04514zm.26761-.7883c-.08768-.09386-.04415-.35162.07381-.43707.07232-.05239.13956-.02387.1671.07091.03403.11704-.02973.31553-.12063.37536-.04006.02639-.09063.02251-.12032-.0093zm.29111-.75021c-.04357-.03666-.05914-.09023-.05375-.18488.0038-.06603.01004-.09241.03471-.1459.03984-.08642.09452-.13656.14894-.13657.0742 2e-6.11023.06988.10256.19892-.0076.12763-.0502.22021-.12476.27096-.03918.02668-.07396.02586-.10769-.0025zm-1.1137-.0686c.05553-.02077.0815-.04206.60435-.49519.21251-.18417.45187-.39097.53191-.45954.08004-.06857.15031-.13516.15615-.14798.01801-.03952.01264-.06764-.01889-.09898-.02459-.02444-.04467-.03273-.12031-.04981-.04994-.01126-.18682-.04292-.30418-.07036-.11736-.02743-.29101-.06767-.3859-.08942-.09488-.02176-.35944-.08272-.58791-.13549-.62654-.14471-.59502-.15036-.99655.17889-.69867.57292-.93096.76746-.93376.78203-.0062.03215.0082.06053.03735.07394.0161.0074.17841.05611.36069.10827.18228.05217.38658.111.454.13074.54826.16051.98211.2857 1.0124.29213.04976.01058.13365.0021.19063-.0192zm-.46202-.72667c-.08834-.02073-.15991-.08292-.15991-.13896 0-.11873.22193-.20421.40026-.15417.09058.0254.15194.09301.14037.15466-.01929.10284-.22061.17605-.38072.13847zm-2.3119-.27827c0-.0042.01387-.04832.03075-.09812.18027-.52848.55066-.93762 1.0815-1.1945.1129-.05465.31326-.13229.31326-.12138-9e-6.0021-.02484.01662-.0552.03195-.15149.07647-.3694.22078-.52474.34751-.3325.27126-.62231.61832-.80355.9623-.02313.04391-.04206.07638-.04207.07215zm.37228.0032c0-.01688.06463-.18176.09997-.25495.14374-.29789.37965-.53333.69456-.69319.09054-.04596.26574-.1155.27292-.10832.0021.0021-.03483.02689-.08202.05516-.23329.13968-.45898.33014-.66058.55747-.10076.11362-.23142.29098-.28123.38173-.03204.05838-.04362.07488-.04362.06211z" stroke-linecap="round" stroke-width=".037638"/>
  </g>
</svg>
