<svg width="65mm" height="97mm" version="1.1" viewBox="0 0 65 97" xmlns="http://www.w3.org/2000/svg" xmlns:xlink="http://www.w3.org/1999/xlink">
  <title>GnM Loot</title>
  <g>
    <rect width="65" height="97" fill="#ffe680" data-field="card_back_color"/>
    <g transform="translate(0,-14)">
      <rect x="7" y="76" width="51" height="28" fill="#fea"/>
      <text x="8" y="79.02021" display="none" fill="#aa8800" font-family="'Comic Sans MS'" font-size="2.8222px" font-weight="bold" stroke-linecap="round" stroke-linejoin="round" stroke-width=".3" style="font-variant-caps:normal;font-variant-east-asian:normal;font-variant-ligatures:normal;font-variant-numeric:normal" xml:space="preserve"><tspan x="8" y="79.02021">Bei Verwendung</tspan></text>
    </g>
    <g transform="translate(0,-55)">
      <rect x="7" y="62" width="51" height="14" fill="#acf"/>
      <path transform="translate(0,55)" d="m58 14a25.5 7 0 01-25.495 7 25.5 7 0 01-25.505-6.9974 25.5 7 0 0125.486-7.0026 25.5 7 0 0125.514 6.9949" fill="#d5e5ff"/>
      <text x="7.9173174" y="65.170418" display="none" fill="#0044aa" font-family="'Comic Sans MS'" font-size="2.8222px" font-weight="bold" stroke-linecap="round" stroke-linejoin="round" stroke-width=".3" style="font-variant-caps:normal;font-variant-east-asian:normal;font-variant-ligatures:normal;font-variant-numeric:normal" xml:space="preserve"><tspan x="0" y="0">Probe</tspan></text>
    </g>
  </g>
  <g>
    <g transform="translate(68.938 17.036)" data-field="type_image">
      <g transform="matrix(.31282 0 0 .31282 -51.2 -16.609)" display="none" data-field="Truhe">
        <path d="m-1.4809 168.72c-.77679-.24994-1.3513-.62229-1.9294-1.2505-.93876-1.02-1.2577-2.2274-1.1881-4.4977.0366-1.194.075-1.4422.263-1.6985.40725-.55533.82196-.67838 2.287-.67856l1.3252-.00017-.0546-43.941-.43262-.12932c-1.2329-.3685-2.2733-1.2695-2.8731-2.488l-.37155-.75481v-4.342l.39922-.80777c.21957-.44427.52225-.92334.67262-1.0646l.2734-.25684-.32188-.40641c-.17703-.22352-.47792-.73966-.66863-1.147-.60474-1.2915-.54309-3.0405.15544-4.4098.58-1.1369 2.004-2.1852 3.3443-2.4621l.63395-.13094v-1.6752l.0677-4.9541c.0221-.63665-.0585-3.4808.29956-5.178 1.5757-7.4689 7.2229-13.433 14.482-15.294 2.4829-.63655.38982-.59769 32.198-.59769h29.364l1.3519.29358c4.0721.88427 7.497 2.7177 10.277 5.5019 3.0942 3.0984 5.0457 7.0467 5.6767 11.486l.16114 8.9417v1.4011l.40558.062c1.5873.24286 2.5049.68911 3.3771 1.6423 1.7195 1.8793 1.7232 4.9251.008 6.71l-.40267.41906.36375.53629c.62501.9215.79064 1.6713.79064 3.5795 0 1.4035-.0357 1.7744-.22491 2.336-.52486 1.558-1.7502 2.6933-3.4253 3.1736-.10758.0308-.13519 4.5233-.13519 21.998v21.959h1.3013c1.5011 0 1.935.12825 2.265.66946.19569.32097.21832.54343.21868 2.15.00045 1.9977-.11696 2.6106-.66568 3.4749-.4474.70471-1.0741 1.2411-1.9163 1.6401l-.71635.33941-48.021.0215c-45.675.0204-48.05.0121-48.616-.16992z" display="inline" fill="#c8beb7"/>
        <path d="m-1.4809 168.72c-.77679-.24994-1.3513-.62229-1.9294-1.2505-.93876-1.02-1.2577-2.2274-1.1881-4.4977.0366-1.194.075-1.4422.263-1.6985.40725-.55533.82196-.67838 2.287-.67856l1.3252-.00017-.0546-43.941-.43262-.12932c-1.2329-.3685-2.2733-1.2695-2.8731-2.488l-.37155-.75481v-4.342l.39922-.80777c.21957-.44427.52225-.92334.67262-1.0646l.2734-.25684-.32188-.40641c-.17703-.22352-.47792-.73966-.66863-1.147-.60474-1.2915-.54309-3.0405.15544-4.4098.58-1.1369 2.004-2.1852 3.3443-2.4621l.63395-.13094v-1.6752l.0677-4.9541c.0221-.63665-.0585-3.4808.29956-5.178 1.5757-7.4689 7.2229-13.433 14.482-15.294 2.4829-.63655.38982-.59769 32.198-.59769h29.364l1.3519.29358c4.0721.88427 7.497 2.7177 10.277 5.5019 3.0942 3.0984 5.0457 7.0467 5.6767 11.486l.16114 8.9417v1.4011l.40558.062c1.5873.24286 2.5049.68911 3.3771 1.6423 1.7195 1.8793 1.7232 4.9251.008 6.71l-.40267.41906.36375.53629c.62501.9215.79064 1.6713.79064 3.5795 0 1.4035-.0357 1.7744-.22491 2.336-.52486 1.558-1.7502 2.6933-3.4253 3.1736-.10758.0308-.13519 4.5233-.13519 21.998v21.959h1.3013c1.5011 0 1.935.12825 2.265.66946.19569.32097.21832.54343.21868 2.15.00045 1.9977-.11696 2.6106-.66568 3.4749-.4474.70471-1.0741 1.2411-1.9163 1.6401l-.71635.33941-48.021.0215c-45.675.0204-48.05.0121-48.616-.16992zm96.34-2.8252c.57497-.35056.78226-.80185.78273-1.704l4e-4-.78412h-6.7056c-23.312 0 39.983-.48063-23.588 0-11.87.0897-20.435-.004-32.491 0-10.091.002-16.548-.004-25.724.0264l-8.8855.0277.0194.7816c.0227.91458.20941 1.306.78094 1.6374l.38934.2258 47.534.002c47.243.002 47.536.00076 47.887-.21284zm-84.011-5.5585c0-.46964-.53491-2.1143-.96749-2.9746-1.0805-2.149-2.7376-3.7568-4.9316-4.785-.80405-.37679-2.3176-.85085-2.7165-.85085-.11878 0-.14493.80008-.14493 4.4344v4.4344h8.7606zm69.48-.72392c.96792-5.2905 5.0488-9.4711 10.285-10.536l1.1897-.24194.0276-10.162.0276-10.162-.82861-.12882c-1.1064-.172-2.9192-.78889-3.9253-1.3358-3.5876-1.95-6.1661-5.5319-6.8178-9.471l-.12973-.78412h-20.854v1.4203c0 1.5655-.13014 1.9763-.70972 2.2404-.38211.17409-22.988.18405-23.313.0103-.11881-.0636-.31057-.27068-.42614-.46021-.18007-.29533-.21017-.54949-.21052-1.7777l-4e-4-1.433h-20.87l-.0499.24334c-.0274.13385-.0794.43803-.11535.67598-.12658.83692-.61947 2.3875-1.037 3.2623-1.855 3.8866-5.6442 6.7857-9.6914 7.4149l-.79121.12301v10.151c0 8.0288.0283 10.158.13519 10.187.0744.0202.64623.14536 1.2708.27814 5.315 1.1299 9.2924 5.4358 10.218 11.062l.0667.40558h66.37zm-63.877-6.1267c-.42522-.26374-.59862-.71083-.72613-1.8722-.20705-1.8858-.85668-3.2471-2.1724-4.5524-.66293-.65765-1.0384-.92611-1.8489-1.3219-1.0502-.51282-2.2624-.82715-3.1899-.82715-.66766 0-1.1615-.30994-1.3854-.86951-.15005-.37503-.17283-1.0923-.17077-5.3786.002-4.6479.0149-4.9736.21058-5.4046.26263-.57857.59422-.72701 1.9685-.88129 1.8453-.20715 3.1874-.84556 4.4664-2.1246 1.2809-1.2809 1.9158-2.617 2.1205-4.462.0641-.57767.18403-1.2063.26657-1.3969.32008-.73925-2.375-.67999 30.982-.68124 19.602-.00073 30.257.0362 30.386.10535.10942.0586.32587.25731.481.44167.2211.26276.28206.45127.28206.87224 0 .92999.31541 2.1586.82577 3.2164 1.1131 2.3072 3.4206 3.8496 6.0966 4.075 1.0068.0848 1.3984.24441 1.6613.70351.32021.5592.23162.82982.17715 5.1536v5.7582l-.33273.37895c-.21173.24115-.45755.39642-.67597.42697-.18879.0264-.77332.10292-1.299.17003-1.6735.21368-2.9318.82414-4.2105 2.0426-1.1691 1.1142-1.9569 2.6991-2.1481 4.3217-.19058 1.6171-.18819 1.6092-.58813 1.9603l-.37895.33273-30.253-.003c-28.108-.003-30.273-.0157-30.545-.18409zm17.218-2.5515c.17808-.0828 30.569-.0275 31.666.0576.37378.029.70517.0114.73643-.0392.0313-.0506 2.1415-.0919 4.6894-.0919h4.6326l.16864-.74676c.87818-3.8887 4.0246-6.9983 7.8854-7.793l.6219-.12801v-4.6353c-.0335-1.1454-.0231-1.6395-.0612-2.5761-1.1542-.12714-2.4603-.41703-3.5273-1.0673-2.52-1.4695-4.2897-3.8558-4.9159-6.6289l-.17155-.75962h-28.262c-15.544 0-28.331-.0264-28.415-.0587-.11582-.0444-.21122.18503-.39346.94636-.30689 1.2821-1.1084 2.9157-1.9708 4.0171-1.2911 1.6487-3.4773 3.0349-5.5851 3.5414l-1.0004.24039v6.9678l.67453.13271c3.0522.60047 5.7199 2.6859 7.1107 5.5587.46618.96288.62901 1.4434.91202 2.6918l.0674.29743 6.8388.002c3.7613.00091 6.9029.0423 6.9814.0921.16525.10479 1.0789.0908 1.3175-.0202zm58.188 5.2261c0-3.6343-.0262-4.4344-.14494-4.4344-.0797 0-.51647.095-.97059.21117-3.8995.99732-6.8991 4.1989-7.6301 8.1438l-.0952.51374h8.8408zm-88.093-30.905c2.7494-.85538 5.0273-2.8791 6.2713-5.5716.38534-.83402.81288-2.226.81288-2.6466v-.24552h-8.7606v8.8785l.40558-.0728c.22307-.04.79494-.19392 1.2708-.34197zm88.067-4.0579.0282-4.4059h-8.8416l.10232.56781c.25346 1.4067.99547 3.0491 1.9506 4.3176 1.019 1.3533 2.2338 2.3318 3.845 3.097.83366.3959 2.421.89161 2.725.85099.14067-.0188.16599-.60727.19049-4.4276zm-35.769-3.3917.43579-.0697-.062-13.015-.40517-.81963c-.51084-1.0334-1.5003-2.0022-2.4266-2.3759-.62811-.25341-.6385-.25389-6.3073-.28822-4.0486-.0245-5.8489.002-6.273.0923-1.312.27946-2.517 1.2517-3.1452 2.5378l-.36981.75709-.0604 13.244 9.089.004c4.999.002 9.2851-.0278 9.5248-.0662zm-4.515-7.9338c-.42765.85818-1.4751 1.8552-2.4032 2.2877l-.76609.35692v1.5391c0 1.8333-.11208 2.1814-.81129 2.5199-.54457.26362-.64156.26462-1.1896.0123l.00052-.00021c-.71866-.33086-.81117-.61186-.81117-2.4642v-1.6072l-.78109-.36391c-.54443-.25365-.98738-.5702-1.462-1.0448-3.2524-3.2524-.94952-8.8088 3.6508-8.8088.99585 0 1.9258.25894 2.6891.74876.72953.46813 1.6371 1.3909 1.8994 2.0711.26477.68657.41618 1.4718.41932 2.1637.005 1.182-.16217 2.0425-.43483 2.5896zm-2.3893-3.1872c-.18874-.87316-1.14-1.5414-2.0199-1.574-2.0328-.0754-2.1592.63884-2.6562 1.3374-.41049.57696-.21665 1.7228.20935 2.4059.27246.43685.74722.55242 1.323.79712s1.358.33982 1.9316-.0145c.40842-.2523.78048-.48141.86823-.58228.12751-.14659.28567-.53917.36996-.80686l.13355-.70148zm-14.54 4.4016.0288-2.8391h-8.6542l-18.151-5e-5c-7.8057 0-8.0785.007-8.505.21333-.26413.12786-.56176.39866-.74293.67597-.3007.46026-.30209.4708-.26945 2.0397.032 1.5362.0406 1.5873.33463 1.9724.32704.42832.59927.60842 1.1042.73054.17845.0432 8.0873.0712 17.575.0623l17.251-.0161zm60.15 2.5338c.74813-.49511.89872-.97371.85601-2.7206-.0348-1.4222-.0401-1.4491-.36246-1.8471-.6834-.84353-.34723-.80516-7.0527-.80516l-18.158-5e-5h-10.748v2.794c0 1.5367.033 2.827.0734 2.8674.0404.0404 7.9163.0606 17.502.0451l17.429-.0283zm-60.036-9.0062c.14811-.95269.57159-2.0241 1.1362-2.8748.21845-.32911.39718-.63036.39718-.66944 0-.0391-8.1925-.0584-18.206-.0429l-18.206.0282-.52387.32446c-1.5424.95529-1.3191 3.2566.38188 3.9355.17139.0684 6.4733.10908 17.58.11348l17.312.007zm60.482.43531c1.5789-1.1438 1.0993-3.531-.7908-3.9364-.74173-.15908-36.743-.15338-36.743.006 0 .0621.1185.26833.26334.45822.48179.63167 1.0518 1.9926 1.2301 2.9371l.17429.92318 35.408-.056zm-4.1418-11.822c-.0464-5.5504-.0821-5.8925-.85296-8.1736-2.3795-7.041-8.8741-11.743-16.208-11.735l-1.2438.001.32446.23491c.72515.525 2.1872 2.0392 2.9432 3.0481 1.1743 1.5672 2.026 3.4346 2.5446 5.5789.20075.83016.22684 1.348.269 5.3393.0257 2.431.0198 4.527-.013 4.6578-.0731.29109-.36413.63398-.68036.80148-.17058.0904-1.8877.12513-6.1784.12513l-22.98.0264-24.866-.0271c-7.8691-.00069-8.1558-.008-8.4622-.2098-.59712-.39362-.59417-.36956-.59831-4.8857-.004-4.436.18216-5.1478.56001-6.8987.38757-1.796.76698-2.0522 1.3169-3.1005.3252-.61996 2.002-2.843 2.9013-3.6273.3144-.2742.71765-.6304.89611-.79156l.32446-.29301-1.7305.0574c-2.6089.0865-4.3724.51437-6.7177 1.6299-5.9382 2.8246-9.7721 8.7895-9.7753 15.209l-.00065 6.5936v1.4005l43.884.0272c24.136.0149 43.997.009 44.134-.0138l.25017-.0409zm-15.116-9.639c-.53539-4.1543-3.6037-7.9872-7.5975-9.4907-2.0814-.78359-.50252-.72997-21.494-.72997h-18.873l-.96108.25404c-4.3402 1.1472-7.5802 4.3037-8.7872 8.5606-.28381 1.001-.29248 1.1187-.33674 4.5694l-.0454 3.5419 58.151.0544.0312-2.9202c.018-1.6867-.0189-3.3085-.0873-3.8395z" display="inline" fill="#6c5d53"/>
      </g>
      <g transform="matrix(.85384 0 0 .85384 -130.54 8.3371)" display="none" stroke-width=".15083" data-field="Regal">
        <path d="m95.779 31.407c-.20067-.08079-.2116-.16713-.2116-1.6712v-1.3962l-.71754-.01253-.71753-.01243-.11056-.11061-.11055-.11061-.01209-1.2862c-.0068-.7074-.00085-1.3465.01262-1.4203.01355-.07381.0676-.17705.11999-.22947.09343-.09343.10951-.09532.81547-.09532h.72016v-10.336h-1.3955l-.13034-.11639-.13033-.1164-.01243-1.3103c-.0086-.87099.0026-1.3604.03144-1.4597.07109-.24221.16832-.26961.9567-.26961h.68041v-10.336h-1.4048l-.27137-.27137v-1.315c0-.85949.01535-1.3589.04423-1.4419.02473-.071.09421-.15273.15764-.18553.09922-.05131 2.1171-.05865 16.12-.05865 14.178 0 16.02.0068 16.123.0601.19076.09865.20523.22473.19155 1.6692l-.0124 1.3103-.13033.11639-.13033.1164h-1.3955v10.336h.68041c.78838 0 .88559.02737.9567.26961.0292.09933.0397.58873.0314 1.4597l-.0124 1.3103-.13033.1164-.13032.1164h-1.3955v10.336h.72015c.70597 0 .72203.0018.81546.09532.0524.05242.10643.15568.12001.22947.0135.07381.0193.71294.0126 1.4203l-.0121 1.2862-.11055.11061-.11056.11061-.71753.01243-.71754.01254v1.3962c0 1.5193-.01 1.5919-.224 1.6733-.0564.02148-.66643.03818-1.3926.03818h-1.2922l-.11197-.09627-.11198-.09628-.0115-1.4601-.0115-1.4601h-22.981l-.01147 1.4601-.01147 1.4601-.11197.09628-.11198.09627-1.3048-.0026c-.71762-.0018-1.3442-.0184-1.3925-.03784zm2.1829-1.8952v-1.1773h-1.6362v2.3546h1.6362zm26.14 0v-1.1773h-1.6362v2.3546h1.6362zm1.6641-2.8235.008-.86805-31.104.02003-.01077.81703c-.006.44937-.0018.83999.0088.86805.01585.04134 2.973.04909 15.555.041l15.535-.01002zm-27.813-6.8042.01016-5.1581h-1.6365v5.1414c0 2.8278.01235 5.1538.02746 5.1689.01508.01508.37874.02258.80813.01662l.78071-.01077zm3.0029 2.2249.0199-2.9332.46891-.76866c.25791-.42276.46892-.78714.46892-.80975 0-.02259-.0376-.09196-.0836-.15413-.0777-.1052-.0826-.15477-.0698-.71339.0136-.59323.0152-.60237.13383-.77111.0726-.10328.19837-.21106.31814-.27271.1838-.09462.24435-.10296.8421-.11593.85803-.01857 1.0447.02053 1.2956.27147.23547.23548.29033.45397.27093 1.0792-.0117.3755-.0255.44906-.10437.55563l-.0909.12285.49001.8082.49.80821.0108 2.9232.0108 2.9232h1.1957v-4.8276l.1164-.13033.11641-.13032 1.3302-.01235c1.41-.01313 1.5877.0042 1.6788.16346.0386.06751.0552.65819.0705 2.5028l.0199 2.4144h1.5963l.0199-3.4808.0199-3.4809.0909-.0909.0909-.09089h7.4982l.0909.09089.0909.0909.0199 3.4809.0199 3.4808 2.2149.02108v-10.337h-22.987v10.337l2.2149-.02108zm23.137-2.2249.0102-5.1581h-1.6365v5.1414c0 2.8278.0123 5.1538.0275 5.1689.0151.01508.37874.02258.80813.01662l.78071-.01077zm1.6768-6.8043.0108-.86805-31.11.02003-.01077.81703c-.006.44936-.0018.83999.0088.86804.01585.04134 2.973.0491 15.555.041l15.535-.01001zm-27.807-6.7942v-5.1681h-1.6362v10.336h1.6362zm2.9931 2.6604.0199-2.4877.11197-.0963c.10854-.09335.13208-.09629.76823-.09629h.65625v-2.3607l.11844-.11844.11843-.11844 1.1177.01176c1.1022.0116 1.1189.01303 1.2085.10261.0899.08992.091.10309.10249 1.287l.0117 1.1962h1.3197l.2333.2333v4.9547h2.8534c1.7202 0 2.8534-.01467 2.8534-.0369 0-.02028-.0562-.17723-.12487-.34874-.16313-.40738-.33384-1.0913-.39566-1.5852-.0636-.50825-.0268-1.4341.0775-1.9476.10642-.52409.35723-1.2596.58246-1.708l.18594-.37024-.16873-.71586c-.16387-.69525-.16685-.71984-.10304-.85365.0361-.07578.11186-.15533.16829-.17678.13886-.05275 5.8824-.05275 6.0213 0 .0564.02148.1328.10236.16972.1798.0657.13776.0635.15609-.1009.84943l-.16803.70863.14092.27887c.33932.67148.59481 1.4903.70253 2.2514.065.45903.0226 1.5448-.0791 2.0261-.0426.20185-.15177.57897-.2425.83806-.0907.25909-.1751.5025-.18751.5409-.0211.06564.0622.06981 1.3789.06981h1.4014v-10.336h-22.987v10.337l1.1074-.01065 1.1074-.01054zm23.146-2.6604v-5.1681h-1.6362v10.336h1.6362zm1.6562-6.8043v-.85802h-31.088l-.01077.81703c-.006.44936-.0018.83999.0088.86804.01585.04134 2.973.0491 15.555.041l15.535-.01002z" display="inline" fill="#abc837"/>
        <path transform="translate(-1.2932e-6)" d="m95.779 31.407c-.20067-.0808-.2116-.16713-.2116-1.6711v-1.3962l-.71753-.01253-.71752-.01244-.11056-.1106-.11055-.1106-.0121-1.2862c-.0068-.70739-.000852-1.3465.01261-1.4203.01355-.07381.06759-.17705.11999-.22947.09343-.09343.1095-.09531.81546-.09531h.72015v-10.336h-1.3955l-.13033-.1164-.13032-.11641-.01244-1.3103c-.0085-.87098.0026-1.3604.03145-1.4597.07109-.24221.16832-.26961.95669-.26961h.6804v-10.336h-1.4047l-.27137-.27137v-1.315c0-.85948.01534-1.3589.04424-1.4419.02472-.071.09421-.15273.15764-.18553.09922-.05131 2.1171-.05864 16.12-.05864 14.178 0 16.02.0068 16.123.06009.19076.09864.20522.22473.19155 1.6692l-.0124 1.3103-.13033.1164-.13033.1164h-1.3955v10.336h.68041c.78837 0 .88558.02736.95669.26961.0291.09932.0397.58872.0314 1.4597l-.0124 1.3103-.13033.1164-.13033.1164h-1.3955v10.336h.72014c.70597 0 .72203.0017.81546.09531.0524.05242.10643.15568.12001.22947.0136.07381.0193.71293.0126 1.4203l-.0121 1.2862-.11055.1106-.11056.1106-.71753.01244-.71753.01253v1.3962c0 1.5193-.01 1.5919-.224 1.6733-.0564.02148-.66642.03818-1.3926.03818h-1.2922l-.11198-.09627-.11197-.09628-.0114-1.4601-.0114-1.4601h-22.981l-.01142 1.4601-.01142 1.4601-.11196.09628-.11197.09627-1.3047-.0026c-.71761-.0017-1.3442-.01841-1.3924-.03784zm14.973-6.3647 9.8471.01057 1.1074.01057v-10.337h-22.987v10.337l1.1074-.01057zm-4.0107-13.589h2.8534l10.711-5.2e-5h1.4014v-10.336h-22.987v10.337l1.1074-.01065 1.1074-.01057zm-5.0284 3e-6h4.2701z" display="inline" fill="#deaa87"/>
        <path d="m95.779 31.407c-.20067-.0808-.2116-.16713-.2116-1.6711v-1.3962l-.71753-.01253-.71752-.01244-.11056-.1106-.11055-.1106-.0121-1.2862c-.0068-.70739-.000852-1.3465.01261-1.4203.01355-.07381.06759-.17705.11999-.22947.09343-.09343.1095-.09531.81546-.09531h.72015v-10.336h-1.3955l-.13033-.1164-.13032-.11641-.01244-1.3103c-.0085-.87098.0026-1.3604.03145-1.4597.07109-.24221.16832-.26961.95669-.26961h.6804v-10.336h-1.4047l-.27137-.27137v-1.315c0-.85948.01534-1.3589.04424-1.4419.02472-.071.09421-.15273.15764-.18553.09922-.05131 2.1171-.05864 16.12-.05864 14.178 0 16.02.0068 16.123.06009.19076.09864.20522.22473.19155 1.6692l-.0124 1.3103-.13033.1164-.13033.1164h-1.3955v10.336h.68041c.78837 0 .88558.02736.95669.26961.0291.09932.0397.58872.0314 1.4597l-.0124 1.3103-.13033.1164-.13033.1164h-1.3955v10.336h.72014c.70597 0 .72203.0017.81546.09531.0524.05242.10643.15568.12001.22947.0136.07381.0193.71293.0126 1.4203l-.0121 1.2862-.11055.1106-.11056.1106-.71753.01244-.71753.01253v1.3962c0 1.5193-.01 1.5919-.224 1.6733-.0564.02148-.66642.03818-1.3926.03818h-1.2922l-.11198-.09627-.11197-.09628-.0114-1.4601-.0114-1.4601h-22.981l-.01142 1.4601-.01142 1.4601-.11196.09628-.11197.09627-1.3047-.0026c-.71761-.0017-1.3442-.01841-1.3924-.03784zm2.1828-1.8951v-1.1773h-1.6362v2.3545h1.6362zm26.139 0v-1.1773h-1.6362v2.3545h1.6362zm1.6641-2.8235.008-.86804-31.104.02012-.01083.81702c-.006.44937-.0017.83998.0088.86804.01585.04134 2.9729.0491 15.555.041l15.535-.01006zm-27.813-6.8042.01014-5.158h-1.6365v5.1414c0 2.8278.01236 5.1538.02745 5.1688.01509.01509.37874.02259.80813.01662l.7807-.01083zm3.0029 2.2248.0199-2.9332.46891-.76866c.2579-.42276.46892-.78714.46892-.80974 0-.02259-.0376-.09196-.0836-.15413-.0777-.10519-.0826-.15477-.0698-.71338.0136-.59323.0152-.60236.13383-.7711.0726-.10327.19836-.21106.31813-.27271.1838-.09462.24435-.10296.84209-.11592.85803-.01858 1.0447.02054 1.2956.27146.23547.23548.29033.45397.27093 1.0792-.0117.37549-.0255.44905-.10436.55563l-.0909.12285.49001.8082.48999.80821.0107 2.9232.0107 2.9232h1.1957v-4.8275l.23281-.26066 1.3302-.01236c1.41-.01313 1.5877.0043 1.6788.16346.0386.06751.0552.65818.0705 2.5028l.0199 2.4144h1.5963l.0199-3.4808.0199-3.4808.1818-.18178h7.4982l.1818.18178.0199 3.4808.0199 3.4808 2.2149.02114v-10.337h-22.986v10.337l2.2149-.02114zm3.7017.15299.0102-2.7802-1.1249-1.8716-.32579-.0068c-.2154-.0051-.34848.0104-.3928.04449-.0369.02838-.30175.44339-.58863.92216l-.52162.87049v5.6229l2.9332-.02096zm4.5193.64516v-2.155h-1.7958v2.1284c0 1.1706.0119 2.1404.0266 2.155.0147.01466.4187.02659.89792.02659h.87131zm9.5379-1.0576v-3.2125h-6.3852v6.4251h6.3852zm5.3777-1.9654.0101-5.158h-1.6365v5.1414c0 2.8278.0124 5.1538.0275 5.1688.0151.01509.37874.02259.80812.01662l.78071-.01083zm-20.263-3.2795v-.23657l-.60858-.0133c-.33473-.0077-.63104-.0068-.65848.0017-.0326.0096-.0499.09614-.0499.24985v.23518h1.317zm21.94-3.5248.0107-.86804-31.109.02012-.01083.81703c-.006.44936-.0017.83998.0088.86803.01585.04134 2.9729.0491 15.555.041l15.535-.01006zm-27.806-6.7942v-5.168h-1.6362v10.336h1.6362zm2.9931 2.6604.0199-2.4877.11197-.0963c.10854-.09334.13207-.09629.76822-.09629h.65624v-2.3607l.11844-.11843.11844-.11844 1.1176.01176c1.1021.01159 1.1189.01304 1.2085.10261.0899.08991.0909.10309.10249 1.287l.0117 1.1962h1.3197l.2333.2333v4.9547h2.8534c1.7202 0 2.8534-.01466 2.8534-.03691 0-.02029-.0562-.17723-.12487-.34874-.16312-.40738-.33383-1.0913-.39566-1.5852-.0636-.50825-.0268-1.4341.0775-1.9476.10642-.52408.35723-1.2595.58246-1.708l.18594-.37024-.16873-.71585c-.16387-.69524-.16685-.71982-.10304-.85364.0361-.07577.11186-.15533.16829-.17678.13885-.05276 5.8824-.05276 6.0212 0 .0564.02148.1328.10236.16972.1798.0657.13776.0635.15609-.10089.84942l-.16803.70863.14092.27887c.33932.67147.5948 1.4902.70252 2.2514.0649.45902.0226 1.5448-.0791 2.0261-.0426.20184-.15177.57897-.24249.83806-.0907.25909-.17511.50249-.18752.5409-.0211.06563.0622.06981 1.3789.06981h1.4014v-10.336h-22.987v10.337l1.1074-.01065 1.1074-.01057zm5.0283 1.5898v-.91788h-4.2701v1.8357h4.2701zm12.082.86798c.082-.10423.37085-.87172.46609-1.2383.0546-.21032.12046-.54077.14624-.73435.0584-.43818.0253-1.3594-.0635-1.7687-.087-.40104-.3012-1.0382-.48184-1.4334l-.14743-.32253h-4.6028l-.16755.37618c-.59115 1.3273-.71746 2.603-.38258 3.864.11056.41633.26163.83665.40163 1.1174l.0945.18956h2.349c1.8317 0 2.3576-.011 2.3882-.04986zm6.0365-5.1181v-5.168h-1.6362v10.336h1.6362zm-18.118 1.6562v-.91787h-4.2701v1.8357h4.2701zm-1.5564-2.594v-.91787h-1.1573v1.8357h1.1573zm13.539-.54872c.0382-.1701.0695-.32275.0695-.33921-1e-5-.01645-1.0596-.02992-2.3546-.02992-1.295 0-2.3543.01347-2.3539.02992.00076.03912.11534.53398.13859.5986.0141.03912.49541.04986 2.2244.04986h2.2065zm7.7916-5.3177v-.85801h-31.088l-.01083.81703c-.006.44936-.0017.83998.0088.86803.01585.04134 2.9729.0491 15.555.041l15.535-.01006z" display="inline" fill="#d38d5f"/>
      </g>
      <g transform="matrix(.69102 0 0 .69102 -110.6 -9.9737)" display="none" stroke-width=".57046" data-field="Kommode">
        <path d="m84.261 68.4c-.30345-.30345-.22323-.63716.56407-2.3465l.74968-1.6276-1.5421-.07547c-.84814-.04153-1.627-.13041-1.7308-.19757-.14888-.09636-.18867-3.335-.18867-15.358v-15.235h-1.6495c-1.2983 0-1.7-.0505-1.8867-.23718-.19614-.19614-.23719-.66111-.23719-2.6866 0-1.7039.0551-2.5046.18113-2.6306.26352-.26353 57.333-.26353 57.597 0 .12598.12599.18112.92669.18112 2.6306 0 2.0255-.0411 2.4905-.23719 2.6866-.18668.18668-.58838.23718-1.8867.23718h-1.6495v15.235c0 12.023-.0398 15.261-.18867 15.358-.10376.06716-.8826.15607-1.7308.19757l-1.5421.07547.74968 1.6276c1.1424 2.4802 1.1021 2.5526-1.385 2.4904l-1.7141-.04284-3.0958-4.1507h-32.599l-3.0958 4.1507-1.7388.04221c-1.224.02972-1.7938-.01272-1.9244-.14338z" display="inline" fill="#e9c6af"/>
        <path d="m84.261 68.4c-.30345-.30345-.22323-.63716.56407-2.3465l.74968-1.6276-1.5421-.07547c-.84814-.04153-1.627-.13041-1.7308-.19757-.14888-.09636-.18867-3.335-.18867-15.358v-15.235h-1.6495c-1.2983 0-1.7-.0505-1.8867-.23718-.19614-.19614-.23719-.66111-.23719-2.6866 0-1.7039.0551-2.5046.18113-2.6306.26352-.26353 57.333-.26353 57.597 0 .12598.12599.18112.92669.18112 2.6306 0 2.0255-.0411 2.4905-.23719 2.6866-.18668.18668-.58838.23718-1.8867.23718h-1.6495v15.235c0 12.023-.0398 15.261-.18867 15.358-.10376.06716-.8826.15607-1.7308.19757l-1.5421.07547.74968 1.6276c1.1424 2.4802 1.1021 2.5526-1.385 2.4904l-1.7141-.04284-3.0958-4.1507h-32.599l-3.0958 4.1507-1.7388.04221c-1.224.02972-1.7938-.01272-1.9244-.14338zm3.9198-2.3515c.53039-.72637 1.0163-1.4056 1.0797-1.5093.0885-.14476-.16257-.18867-1.079-.18867h-1.1943l-.62805 1.3961c-.34543.76788-.62704 1.4471-.62579 1.5093.001.06226.33545.1132.74267.1132h.7404zm40.724 1.2075c.001-.06226-.28036-.74146-.62578-1.5093l-.62806-1.3961h-1.1943c-.91639 0-1.1675.04393-1.079.18867.0635.10377.54933.78298 1.0797 1.5093l.96434 1.3207h.7404c.40722 0 .74142-.05094.74267-.1132zm2.4127-18.98v-14.716h-47.997v29.432h47.997zm-45.469 11.685c-.24305-.14156-.26413-.54846-.26413-5.097 0-3.6434.0476-4.9908.18112-5.1243.26323-.26323 42.844-.26323 43.107 0 .1335.1335.18112 1.4813.18112 5.1265 0 4.7348-.0124 4.952-.29195 5.1016-.40282.21558-42.543.20893-42.913-.0068zm41.998-5.1952v-3.9998h-41.054v7.9995h41.054zm-21.335.91282c-.48939-.45355-.52295-1.0923-.0866-1.6471.68043-.86503 2.1021-.29873 2.1021.83735 0 .55176-.64283 1.1799-1.2075 1.1799-.2248 0-.58844-.16656-.8081-.37013zm-20.745-8.8671c-.13352-.13352-.18112-1.4833-.18112-5.1355v-4.9544l.38716-.1472c.52827-.20085 42.167-.20085 42.695 0l.38717.1472v4.9544c0 3.6522-.0476 5.002-.18112 5.1355-.26323.26323-42.844.26323-43.107 0zm42.081-5.0261v-3.9998h-41.054v7.9995h41.054zm-21.422.73432c-.55441-.70482-.36041-1.534.43608-1.8639.3685-.15264.54864-.15264.91714 0 .7965.32992.99049 1.1591.43608 1.8639-.44192.56181-1.3474.56181-1.7893 0zm28.634-11.866-.043-1.5471h-55.393l-.086 3.0942h55.565z" fill="#916f6f"/>
      </g>
      <g transform="matrix(.47868 0 0 .40543 4.4688 -46.737)" display="none" data-field="Beutel">
        <path d="m-92.466 203.02c-3.9245-.12645-8.0661-.3793-9.4397-.57631-.38256-.0549-1.2992-.17075-2.037-.25751-3.5993-.42327-7.5486-1.288-10.384-2.2735-5.8097-2.0195-9.6069-5.004-11.778-9.2567-1.0365-2.0306-1.617-4.3131-1.7979-7.0701-.23142-3.5263.20365-6.5297 1.5086-10.414.72319-2.1525.9244-2.6719 1.6938-4.3721 1.4946-3.3025 3.4198-6.7068 5.7202-10.115 5.2288-7.7465 12.989-15.697 19.583-20.062.50552-.33465.91913-.64011.91913-.67879 0-.0387-.42865-.32477-.95256-.63577-3.5871-2.1293-6.0165-4.7324-6.916-7.4104-.23948-.71299-.31854-1.1263-.32309-1.6892l-.006-.74524.89429-.20716c1.6885-.39113 3.9704-.82654 5.9123-1.1281 1.9299-.29972 1.8712.0137.49158-2.6246-.65292-1.2486-1.1871-2.3303-1.1871-2.4037 0-.20976.34054-.39942 1.5802-.88006 4.2761-1.6579 10.227-2.3985 16.455-2.0478 4.4904.25288 8.6609 1.1368 11.562 2.4505.55291.25036.71681.36889.6719.48592-.03267.0851-.59656 1.1628-1.2531 2.3948-.65653 1.232-1.1686 2.2805-1.138 2.33.03062.0495.17599.0901.32306.0902.24841.00012.66586.0683 2.7515.4496.43721.0799 1.2797.23254 1.8722.33915 1.4268.25671 3.371.71027 3.4862.81328.16225.14508-.13628 1.9678-.45365 2.7699-.52062 1.3157-1.2786 2.4382-2.4878 3.6841-.98426 1.0141-2.0804 1.9214-3.3361 2.7612-.50552.3381-.91913.65674-.91913.70808 0 .0513-.1375.24996-.30557.44137l-.30557.34802.42977.30265c.23638.16647.70744.49209 1.0468.72362 4.4193 3.015 10.123 8.4387 14.326 13.623 6.6083 8.1515 10.95 16.263 12.718 23.762.35159 1.4911.52965 2.9894.57863 4.8689.12275 4.7101-1.1126 8.7927-3.5979 11.89-2.1658 2.6994-5.2843 4.7828-9.3889 6.2724-4.6286 1.6798-9.7625 2.5872-17.836 3.1522-4.0754.28525-12.881.373-18.681.18614z" display="inline" fill="#f3cc84"/>
        <path d="m-92.119 202.87c-2.0705-.0498-5.5603-.24349-7.8002-.43292-10.732-.90765-17.833-3.1594-22.311-7.0752-2.1328-1.865-3.6841-4.1812-4.5686-6.8213-1.2214-3.6456-1.3098-8.3156-.23795-12.574 1.3225-5.255 3.8197-10.542 7.8407-16.601 3.0752-4.6336 6.0853-8.2884 10.276-12.477 3.3182-3.3164 5.4564-5.1575 8.7027-7.493 1.5203-1.0938 1.9376-1.4263 1.9376-1.5439 0-.0364-.45832-.33679-1.0185-.66743-3.0803-1.8181-5.4401-4.1417-6.5297-6.4293-.36312-.7624-.69917-2.0382-.69917-2.6544 0-.46441.008-.47632.37262-.57222.78921-.20742 3.354-.70968 5.6361-1.1037 2.3847-.41175 2.5367-.44634 2.5367-.5772 0-.0386-.53658-1.0898-1.1924-2.336-.65581-1.2462-1.1924-2.3237-1.1924-2.3945 0-.14809.75468-.49963 2.03-.94559 7.7326-2.704 19.881-2.4967 26.944.45966.48976.20502.83602.40821.83602.49059 0 .0773-.53658 1.1509-1.1924 2.3856-.65581 1.2347-1.1924 2.2822-1.1924 2.3277 0 .15108.19177.2057 1.3676.38958 2.1131.33046 6.2346 1.1284 7.004 1.356.36096.1068.14407 1.6046-.42654 2.9455-.86556 2.034-3.0479 4.3734-5.6726 6.0806-.62909.40919-.77146.55142-.84386.84302-.05768.23228-.1949.41845-.40621.5511-.17551.11017-.32083.23174-.32294.27015-.0021.0384.3784.32905.84556.64588 7.9866 5.4164 16.645 14.916 22.035 24.175 4.0954 7.0359 6.2322 13.494 6.2292 18.826-.0051 9.3262-4.8266 15.247-14.881 18.274-5.0411 1.5176-11.297 2.3477-19.946 2.6466-2.4313.084-11.178.104-14.16.0323zm16.495-2.1619c7.4813-.44394 13.388-1.3432 17.687-2.6928 1.1966-.37563 3.477-1.2867 4.4715-1.7865 2.9056-1.4602 5.4445-3.826 6.6528-6.1993 1.6241-3.1898 2.1131-7.8128 1.2828-12.127-1.4334-7.4484-6.8673-17.15-14.501-25.89-2.299-2.6322-6.0685-6.3219-8.6873-8.5034-1.9781-1.6478-4.8815-3.7033-6.8066-4.819l-.84461-.48949-8.9699-.0269c-7.3261-.022-9.0163-.003-9.223.10571-.37802.19807-1.4419 1.7452-2.1666 3.1506-1.4021 2.7194-2.5254 5.9664-3.1822 9.1987-.72418 3.564-1.1476 7.5605-1.1498 10.851-.001 1.8014-.0937 2.132-.66335 2.37-.47435.1982-1.0256.0557-1.2786-.33049-.15948-.2434-.16923-.49988-.11432-3.0051.0609-2.779.20371-4.5616.57364-7.1608.4681-3.2891 1.4217-7.0824 2.398-9.5391.16289-.40988.38043-.95763.48341-1.2172.12056-.30391.14753-.47198.07574-.47198-.06133 0-.40722.31828-.76864.7073-3.0143 3.2445-5.4625 7.5196-6.9636 12.161-.89237 2.7588-.80532 2.5628-1.2302 2.7702-.32393.15819-.43989.16946-.75912.0738-.80559-.24136-.87788-.86218-.3138-2.695.69973-2.2736 1.3435-3.8693 2.4607-6.099.40743-.81319.71528-1.504.68409-1.5352-.0847-.0847-2.1556 2.0033-3.7774 3.8087-8.5971 9.5702-14.469 20.376-15.401 28.34-.35266 3.0148.0263 6.3329 1.007 8.8177 2.1807 5.5253 7.4196 8.985 16.333 10.786 4.5224.91378 8.9722 1.3469 16.743 1.6297 2.4555.0893 13.503-.0363 15.948-.18145zm-18.119-64.644c.836 0 1.0279-.0272 1.0279-.14541 0-.22403-4.0873-7.9146-4.2369-7.972-.2128-.0817-6.4116.96056-6.9666 1.1713-.30692.11655-.28218.36041.11358 1.1197.90655 1.7392 2.9818 3.7014 5.5422 5.2402 1.0768.64717 1.2425.6899 2.458.63383.56868-.0262 1.4965-.0477 2.0618-.0477zm13.127-.12421c.09592-.11834 6.3183-11.877 6.9623-13.157.41013-.81508.42371-.8051-1.8709-1.3742-3.232-.80156-5.7404-1.0805-9.7883-1.0885-2.8878-.006-4.2917.0722-6.3097.35025-2.3704.32656-5.5936 1.1082-5.8516 1.419-.07621.0918.83164 1.8991 3.4289 6.826 1.9429 3.6856 3.5969 6.8017 3.6755 6.9246l.14289.22358h4.7551c3.6841 0 4.7778-.028 4.8558-.12421zm7.3546-.11411c1.3976-.71065 3.2737-2.1289 4.5005-3.4022 1.2207-1.267 2.2236-2.9152 1.944-3.1948-.23734-.23733-6.9515-1.4065-7.1878-1.2516-.16112.10558-4.2034 7.749-4.2034 7.9481 0 .11479.38807.13886 2.239.13886 2.1665 0 2.2542-.008 2.7077-.23832z" display="inline" fill="#64788d"/>
        <path d="m-92.119 202.87c-2.0705-.0498-5.5603-.24349-7.8002-.43292-10.732-.90765-17.833-3.1594-22.311-7.0752-2.1328-1.865-3.6841-4.1812-4.5686-6.8213-1.2214-3.6456-1.3098-8.3156-.23795-12.574 1.3225-5.255 3.8197-10.542 7.8407-16.601 4.811-7.249 11.321-14.248 17.687-19.016 1.9989-1.4971 2.0128-1.4968.51341.0112-1.9332 1.9444-3.8242 4.3628-4.9623 6.3465-.1444.25168-.85003 1.0342-1.5681 1.7389-6.0286 5.9166-12.305 14.785-15.251 21.552-2.5221 5.7915-3.3696 9.9788-2.8762 14.21.84785 7.27 5.1706 11.704 13.86 14.216 4.2092 1.2169 9.3338 1.9292 16.892 2.3477 3.5243.19517 15.543.16431 19.09-.049 7.7208-.46441 13.538-1.3453 17.874-2.7064 1.1966-.37563 3.477-1.2867 4.4715-1.7865 2.9056-1.4602 5.4445-3.826 6.6528-6.1993 1.6241-3.1898 2.1131-7.8128 1.2828-12.127-.93721-4.87-3.5985-10.783-7.5279-16.726-3.191-4.8259-6.158-8.4844-10.241-12.628-4.2314-4.294-7.9348-7.2985-11.927-9.6762l-1.0436-.6215 3.9154-.00104.92389.63923c9.9693 6.8976 19.743 18.479 24.758 29.336 2.3776 5.148 3.543 9.6547 3.5408 13.692-.0051 9.3262-4.8266 15.247-14.881 18.274-5.0411 1.5176-11.297 2.3477-19.946 2.6466-2.4313.084-11.178.104-14.16.0323zm-7.2247-65.706c-1.7923-1.0901-2.6787-1.77-3.9621-3.0391-1.6851-1.6663-2.5724-3.0679-3.0152-4.7625-.11335-.43383-.20609-1.0022-.20609-1.2631 0-.46441.008-.47632.37262-.57222.78921-.20742 3.354-.70968 5.6361-1.1037 2.3847-.41175 2.5367-.44634 2.5367-.5772 0-.0386-.53658-1.0898-1.1924-2.336-.65581-1.2462-1.1924-2.3237-1.1924-2.3945 0-.14809.75468-.49963 2.03-.94559 7.7326-2.704 19.881-2.4967 26.944.45966.48976.20502.83602.40821.83602.49059 0 .0773-.53658 1.1509-1.1924 2.3856-.65581 1.2347-1.1924 2.2822-1.1924 2.3277 0 .15108.19177.2057 1.3676.38958 2.1131.33046 6.2346 1.1284 7.004 1.356.36096.1068.14407 1.6046-.42654 2.9455-.64102 1.5064-1.9865 3.1832-3.7007 4.612-.83235.69376-2.6443 1.9735-2.6953 1.9037-.01329-.0182-.08289-.18046-.15468-.36065-.18128-.45507-.55016-.61614-1.4142-.61749l-.72534-.001.63829-.35526c2.7728-1.5432 5.2123-3.8667 6.1224-5.831.19723-.42571.21649-.53959.10935-.64673-.23734-.23733-6.9515-1.4065-7.1878-1.2516-.14897.0976-4.2034 7.7412-4.2034 7.9245 0 .0809-.3696.11727-1.2403.12203-.87653.005-1.2148-.0247-1.1536-.1006.08638-.10698 6.363-11.976 6.9484-13.14.41013-.81508.42371-.8051-1.8709-1.3742-3.232-.80156-5.7404-1.0805-9.7883-1.0885-2.8878-.006-4.2917.0722-6.3097.35025-2.3702.32653-5.5936 1.1082-5.8515 1.419-.07615.0918.81903 1.8745 3.3776 6.7266 1.9147 3.631 3.5651 6.7453 3.6675 6.9208l.18623.31907-1.1122-.037c-1.4364-.0478-1.3606-.0395-1.3606-.15031 0-.19073-4.1085-7.873-4.2369-7.9223-.2128-.0817-6.4116.96056-6.9666 1.1713-.30692.11655-.28218.36041.11358 1.1197.90586 1.7379 2.982 3.7015 5.5376 5.2375.93356.56109 1.3112.68649 2.0745.68882l.54651.002-.69556.43577c-.38256.23967-.94754.61924-1.2555.84349-.30797.22425-.57626.40532-.5962.40239-.01994-.003-.53741-.31016-1.15-.6827z" display="inline" fill="#957842"/>
      </g>
      <g transform="matrix(.58712 0 0 .58712 -8.7768 11.753)" data-field="Kiste">
        <path d="m-76.864 35.218c-.22072-.16349-.29804-.52049-.37046-1.6383l-.0923-1.4254h-3.8084c-2.7561 0-3.8596-.0512-3.9938-.18538-.12977-.12977-.18538-.9801-.18538-2.8347 0-1.4571-.08504-6.7754-.09826-7.4168l-.09826-4.7675-1.6725.0793c-2.5131.11916-2.4566.18388-2.4566-2.8167 0-2.9711-.09153-2.8632 2.4289-2.8632h1.7422v-4.4615c0-1.4459.04528-1.7953.25527-1.9697.20773-.17254 2.0992-.23006 10.157-.3089 5.4462-.05328 10.198-.10542 10.559-.11586l.65656-.01899v-1.8349c0-1.2828.0581-1.8812.19311-1.9889.10621-.08469 1.6411-.20329 3.4109-.26356 4.0574-.13818 3.8114-.28321 3.8114 2.2461v1.8185l10.466-.08664c5.7565-.04765 10.499-.116 10.54-.15187.0402-.03588.0515-.84965.025-1.8084-.0652-2.3617-.21768-2.2469 3.0412-2.2899 1.4171-.01867 2.8479-.02927 3.1794-.02355.93903.0162 1.0354.26322.91628 2.3489l-.10118 1.7714 9.8765-.11307c11.712-.13408 10.417-.39528 10.389 2.1836l-.0558 4.3721 1.6486.07724c.90671.04248 1.7062.13518 1.7766.20598.22218.22343.15671 4.6933-.0721 4.9229-.12806.12852-.79553.22864-1.8538.27808l-1.6537.0772-.0932 7.6073c-.0849 3.6433-.11869 7.6259-.37712 7.8149-.21613.15804-1.0511.20758-3.4986.20758h-3.2147v1.5259c0 1.0354-.0621 1.5756-.19311 1.6804-.10621.0849-1.6644.20374-3.4625.26403-3.232.10837-3.2733.10574-3.6088-.22969-.30961-.3096-.33447-.46295-.28374-1.7514l.0556-1.412-11.895.0417c-6.5425.0229-17.075.0841-23.405.1358l-11.509.0941.0534 1.2674c.0673 1.5956-.0746 1.7825-1.353 1.7825-.49022 0-1.9278.0421-3.1945.0935-1.8303.0743-2.3577.04621-2.5814-.11946z" fill="#c8b7b7"/>
        <path d="m-76.864 35.218c-.22072-.16349-.29804-.52049-.37046-1.6383l-.0923-1.4254h-3.8084c-2.7561 0-3.8596-.0512-3.9938-.18538-.12977-.12977-.18538-.9801-.18538-2.8347 0-1.4571-.08504-6.7754-.09826-7.4168l-.09826-4.7675-1.6725.0793c-2.5131.11916-2.4566.18388-2.4566-2.8167 0-2.9711-.09153-2.8632 2.4289-2.8632h1.7422v-4.4615c0-1.4459.04528-1.7953.25527-1.9697.20773-.17254 2.0992-.23006 10.157-.3089 5.4462-.05328 10.198-.10542 10.559-.11586l.65656-.01899v-1.8349c0-1.2828.0581-1.8812.19311-1.9889.10621-.08469 1.6411-.20329 3.4109-.26356 4.0574-.13818 3.8114-.28321 3.8114 2.2461v1.8185l10.466-.08664c5.7565-.04765 10.499-.116 10.54-.15187.0402-.03588.0515-.84965.025-1.8084-.0652-2.3617-.21768-2.2469 3.0412-2.2899 1.4171-.01867 2.8479-.02927 3.1794-.02355.93903.0162 1.0354.26322.91628 2.3489l-.10118 1.7714 9.8765-.11307c11.712-.13408 10.417-.39528 10.389 2.1836l-.0558 4.3721 1.6486.07724c.90671.04248 1.7062.13518 1.7766.20598.22218.22343.15671 4.6933-.0721 4.9229-.12806.12852-.79553.22864-1.8538.27808l-1.6537.0772-.0932 7.6073c-.0849 3.6433-.11869 7.6259-.37712 7.8149-.21613.15804-1.0511.20758-3.4986.20758h-3.2147v1.5259c0 1.0354-.0621 1.5756-.19311 1.6804-.10621.0849-1.6644.20374-3.4625.26403-3.232.10837-3.2733.10574-3.6088-.22969-.30961-.3096-.33447-.46295-.28374-1.7514l.0556-1.412-11.895.0417c-6.5425.0229-17.075.0841-23.405.1358l-11.509.0941.0534 1.2674c.0673 1.5956-.0746 1.7825-1.353 1.7825-.49022 0-1.9278.0421-3.1945.0935-1.8303.0743-2.3577.04621-2.5814-.11946zm5.0286-1.4635c.57701-.0954.57932-.0988.57932-.84797v-.75222l-4.5573-.00042.0529.84989.0529.84988 1.6464-.002c.90554-.00094 1.9071-.0448 2.2258-.0975zm54.804-.905v-1.0042h-4.4801v2.0083h4.4801zm-56.078-2.2394 4.4028-.00011-.0477-1.8541-.0477-5.4593h-7.2619c-4.7104 0-7.3669-.0562-7.5607-.15992-.28728-.15374-.29873 3.5126-.29671 5.1886.0012.95887.04682 1.9105.10147 2.1147l.09936.37133 3.1041-.10058c1.7073-.05532 9.9285-.10069 7.507-.10069zm8.3115-13.647-.0465-10.942-2.5974-.001524.10091 6.0383c.02238 1.3392.10127 7.3442.10143 10.042l.00051 8.5101h2.4875zm35.519 13.424c-.0235 0 .0813-.80444.13913-1.7561l.10509-5.3355-34.265.0786-.0443 5.2168c-.0244.88641-.008 1.7061.0362 1.8216.0675.17604 2.8184.19302 17.038.10518 9.3265-.0576 17.015-.13054 16.991-.13054zm4.4208-8.751c.0332-2.868.10211-8.9084.10224-10.119l.00025-5.8066h-2.7807v6.5925c0 1.643-.046 7.6838-.10211 10.119l-.10212 8.0331h2.7805zm9.7192 8.6654 5.2139-8e-4v-7.1583l-5.2139-8e-4c-2.8676-.00044-5.8917-.0457-6.7201-.10054l-1.5062-.0997v7.5605l1.5062-.0997c.82843-.0549 3.8525-.1001 6.7201-.10054zm-61.03-8.5495h7.3844v-6.566h-15.14v2.1164c0 1.6461.0412 4.7791.18538 4.635.13902-.13902 2.0323-.18538 7.5698-.18538zm32.127 0h14.961v-6.566h-6.6947c-3.682 0-11.399.0462-17.148.10261l-10.453.10262v1.8027c0 .99149.0521 4.5615.11587 4.6286.0637.0671 1.048.0787 2.1872.0258s17.032-.0963 17.032-.0963zm34.237-4.7296.0431-1.9485-6.1453.0617c-3.3799.0339-6.4407.0982-6.8018.14276l-.65656.081v6.2343l5.6001.0454c3.0801.025 6.1215.0432 6.7588.0405l1.1586-.005zm-75.664-2.8149v-1.3131l-2.7035-.000722.04997 1.3135.04997 1.3135h2.6036zm79.406-.85674v-1.2429l-2.0856.09136-.0451 1.1973-.0451 1.1973h2.1758zm-68.317.29104 5.6047-.000626-.0432-1.9697-.0432-5.5749-1.429.0037c-.78595.002-4.175.0194-7.5312.03862l-6.1022.03494v7.6695l1.9697-.10046c1.0833-.05525 4.4918-.10074 7.5744-.10108zm34.845.05125 10.453-.10261v-2.0498c0-1.9367-.0176-5.6605-.31956-5.7564-.29806-.0946-3.3627-.07359-25.557.17518l-8.4967.09524.047 5.6731.047 2.0679h6.6863c3.6774 0 11.39-.04618 17.14-.10261zm29.754-.15144c.0367-.03279.0977-1.0318.13567-2.2201l.069-5.7656-5.5427.000926c-3.0485.000509-6.1162.04557-6.8172.10014l-1.2745.09922v8.0038l6.6815-.07939c3.6748-.04367 6.7115-.10622 6.7482-.13901zm-48.09-9.6464c-.0527-.31863-.0965-.90954-.0974-1.3131l-.002-.73381-1.429.0013c-.78594.000738-1.794.04518-2.24.09876l-.81105.09742v2.4287h4.675zm28.017-.32603c0-.32801.0442-.91892.0982-1.3131l.0982-.71675h-4.2131v2.6263h4.0166z" fill="#6c5353"/>
      </g>
      <g transform="matrix(.87453 0 0 .87453 -111 1.112)" display="none" data-field="Karte">
        <path transform="translate(1.2292e-6)" d="m96.642 38.364c-.97746-.07185-1.3688-.26958-1.5635-.78994-.0481-.12856-.1384-.58117-.20068-1.0058-.14587-.99466-.14805-1.0048-.19655-.91818-.02105.03762-.18338.46779-.36073.95594s-.36461.97162-.41613 1.0744c-.29144.58123-.71581.72135-1.9348.63882-1.7637-.11942-3.5098-.38969-7.3827-1.1428-2.1643-.42084-3.9441-.6874-5.3717-.80453-.80253-.06584-2.2232-.06467-2.8261.0023-1.5384.17097-4.118.58066-7.3406 1.1658-2.2476.40813-2.3605.42191-2.7125.33137-.35502-.09131-.54955-.2446-.70695-.55711-.2926-.5809-.20797-1.2556.88319-7.0409.46545-2.4678.51133-2.6692.66211-2.9067.22642-.35665.4312-.4968 1.0844-.74214.25664-.0964.5049-.19576.55168-.22079.07912-.04234.07983-.04844.01024-.08738-.04115-.02303-.27134-.10805-.51154-.18894-.94083-.31684-1.0603-.54232-.98091-1.8507.02451-.40377.07251-1.1904.10665-1.7481.03415-.55767.08383-1.4023.11039-1.8769.02657-.47461.06627-.9328.08822-1.0182.10576-.41147.36917-.59594 1.1663-.81672.28236-.07821.51324-.15362.51306-.16757-.000182-.01395-.22205-.12022-.49304-.23613-.84465-.3613-1.204-.6494-1.3187-1.0572-.02411-.08572-.07308-.47622-.10882-.86778-.11818-1.2947-.279-2.8049-.47324-4.4441-.49696-4.1939-.53032-4.6413-.37157-4.9834.21682-.46729.77514-.72535 2.1401-.98912 1.1906-.23008 2.2703-.32725 3.6221-.326.94279.000874 1.7048.07268 1.9767.18627.24915.1041.49411.35707.58454.60366.04501.12274.14593.46101.22426.75171.07833.2907.15609.52854.1728.52854s.12277-.28316.23569-.62925c.22818-.69936.34058-.86344.65631-.95803.25875-.07752.39689-.06645 1.1784.09449.39155.08063.95461.19616 1.2512.25674 1.8521.37822 3.1913.51954 4.9187.51901 2.316-.000707 3.4962-.20541 8.0468-1.3956 2.3429-.61279 3.3209-.77449 6.0621-1.0022.42578-.03538 1.4369-.05571 2.7829-.05596 1.8433-.000342 2.1546.0091 2.4296.07335.40449.09455.64229.22759.79462.44457.23385.3331.23053.51517-.0495 2.7177-.079.62135-.2134 1.9689-.28182 2.8261-.13456 1.6856-.16641 2.5731-.17679 4.9273l-.0112 2.5327-.10588.23129c-.0755.16492-.16646.27538-.31697.38495-.2151.1566-.78876.4032-1.2358.53124-.25343.07259-.3069.1234-.17258.16397.35448.10709 1.2934.48247 1.3954.55789.0704.05205.17548.1925.2335.31212l.10549.21748-.0173 2.2436c-.018 2.3409.005 3.1249.15094 5.1344.18884 2.6005.48404 5.0716.92776 7.7663.2289 1.39.24146 1.7177.0784 2.0449-.0688.13806-.18233.27788-.28751.35407-.35814.25944-.3215.25674-3.6977.27262-1.6967.008-3.2811.000102-3.5207-.01752z" display="inline" fill="#e9c6af"/>
        <path transform="translate(1.2292e-6)" d="m96.642 38.364c-.97746-.07185-1.3688-.26958-1.5635-.78994-.0481-.12856-.1384-.58117-.20068-1.0058-.14587-.99466-.14805-1.0048-.19655-.91818-.02105.03762-.18338.46779-.36073.95594s-.36461.97162-.41613 1.0744c-.29144.58123-.71581.72135-1.9348.63882-1.7637-.11942-3.5098-.38969-7.3827-1.1428-2.1643-.42084-3.9441-.6874-5.3717-.80453-.80253-.06584-2.2232-.06467-2.8261.0023-1.5384.17097-4.118.58066-7.3406 1.1658-2.2476.40813-2.3605.42191-2.7125.33137-.35502-.09131-.54955-.2446-.70695-.55711-.2926-.5809-.20797-1.2556.88319-7.0409.46545-2.4678.51133-2.6692.66211-2.9067.22642-.35665.4312-.4968 1.0844-.74214.25664-.0964.5049-.19576.55168-.22079.07912-.04234.07983-.04844.01024-.08738-.04115-.02303-.27134-.10805-.51154-.18894-.94083-.31684-1.0603-.54232-.98091-1.8507.02451-.40377.07251-1.1904.10665-1.7481.03415-.55767.08383-1.4023.11039-1.8769.02657-.47461.06627-.9328.08822-1.0182.10576-.41147.36917-.59594 1.1663-.81672.28236-.07821.51324-.15362.51306-.16757-.000182-.01395-.22205-.12022-.49304-.23613-.84465-.3613-1.204-.6494-1.3187-1.0572-.02411-.08572-.07308-.47622-.10882-.86778-.11818-1.2947-.279-2.8049-.47324-4.4441-.49696-4.1939-.53032-4.6413-.37157-4.9834.21682-.46729.77514-.72535 2.1401-.98912 1.1906-.23008 2.2703-.32725 3.6221-.326.94279.0008743 1.7048.072685 1.9767.18627.24915.1041.49411.35707.58454.60366.04501.12274.14593.46101.22426.75171.07833.2907.15609.52854.1728.52854s.12277-.28316.23569-.62925c.22818-.69936.34058-.86344.65631-.95803.25875-.077523.39689-.066447 1.1784.094493.39155.080631.95461.19616 1.2512.25674 1.8521.37822 3.1913.51954 4.9187.51901 2.316-.000707 3.4962-.20541 8.0468-1.3956 2.3429-.61279 3.3209-.77449 6.0621-1.0022.42578-.035376 1.4369-.055708 2.7829-.055957 1.8433-.000342 2.1546.00906 2.4296.073347.40449.094548.64229.22759.79462.44457.23385.3331.23053.51517-.0495 2.7177-.079.62135-.2134 1.9689-.28182 2.8261-.13456 1.6856-.16641 2.5731-.17679 4.9273l-.0112 2.5327-.10588.23129c-.0755.16492-.16646.27538-.31697.38495-.2151.1566-.78876.4032-1.2358.53124-.25343.07259-.3069.1234-.17258.16397.35448.10709 1.2934.48247 1.3954.55789.0704.05205.17548.1925.2335.31212l.10549.21748-.0173 2.2436c-.018 2.3409.005 3.1249.15094 5.1344.18884 2.6005.48404 5.0716.92776 7.7663.2289 1.39.24146 1.7177.0784 2.0449-.0688.13806-.18233.27788-.28751.35407-.35814.25944-.3215.25674-3.6977.27262-1.6967.008-3.2811.000102-3.5207-.01752zm6.541-.96226c.15967-.08039.15718-.28115-.0169-1.3587-.36659-2.2695-.56019-3.73-.75767-5.7162-.28502-2.8664-.35772-4.4384-.34014-7.3544.008-1.4155-.002-2.2239-.0293-2.2493-.0234-.02179-.2134-.10178-.42218-.17776-.20878-.07598-.76213-.29129-1.2297-.47848-.87979-.35224-1.0442-.45718-1.0442-.66643 0-.20963.16218-.31434.90607-.58501 1.262-.45918 1.7456-.65368 1.8337-.73757.0841-.07998.0864-.14032.0894-2.3353.004-3.1937.12991-5.1158.56332-8.6259.14671-1.1882.15323-1.2891.0896-1.3862-.0855-.13045-.14944-.14167-1.1862-.20808-.65634-.042042-1.1714-.042328-2.4378-.00135-1.7417.056353-2.571.11817-3.8707.28853-1.0668.13984-1.65.25759-3.0202.6099-3.7971.97627-4.3525 1.1063-5.6883 1.3314-2.6942.45408-5.4762.2981-9.1541-.51323-.58578-.12922-.86524-.1735-.91998-.14576-.10959.055532-.1899.25469-.57027 1.4141-.35962 1.0962-.44699 1.2512-.70507 1.2512-.30293 0-.40883-.21261-.8919-1.7906-.33303-1.0878-.36924-1.1727-.52834-1.2383-.17453-.071927-2.3105-.09826-2.9985-.036966-1.498.13347-3.1143.46136-3.3635.68233-.13132.11645-.10094.54948.24739 3.5269.1055.90176.25955 2.2609.34233 3.0202.12838 1.1777.18216 1.7207.30063 3.0355.0093.1033.04335.21315.07566.2441.0323.03096.54713.30218 1.1441.60272 1.2335.62103 1.4387.76521 1.4387 1.0106 0 .23647-.13082.33564-.61021.46258-.89581.23721-1.792.51735-1.8815.58814-.03588.02838-.05393.17062-.05393.42488 0 .21022-.01906.62043-.04236.91158-.11802 1.475-.22694 3.7944-.18273 3.8915.03222.07072.14124.13729.36211.22113.79492.30172 1.617.67632 1.7075.77807.06623.07447.09708.16388.09708.28139 0 .22079-.11403.33012-.50514.48435-.16119.06356-.64244.27664-1.0694.47352-.87011.40118-.92514.4493-1.0058.87942-.02585.13796-.1068.58091-.17987.98433-.07307.40342-.26024 1.413-.41593 2.2436-.46436 2.4773-.75029 4.2212-.81864 4.9929-.02414.27256-.0165.35289.04205.44225.09472.14457.17086.14176 1.1698-.04314 3.6521-.676 6.3974-1.1319 8.0899-1.3435.88827-.11104 3.1831-.11111 4.1636-.000138 1.7129.19387 4.0381.58268 7.6585 1.2806 1.689.3256 3.3619.54723 4.7478.62901.67022.03955.72071.01348.90469-.46696.07511-.19613.30771-.79346.51691-1.3274.20919-.53394.46131-1.226.56027-1.5379.11382-.35876.21444-.59829.2739-.65203.23088-.20868.53235-.13163.65166.16657.10486.26206.2983 1.2005.50371 2.4436.19259 1.1655.21087 1.236.33797 1.3041.18594.09951.81922.11995 3.8645.12475 2.4535.0039 3.1735-.007 3.2575-.04934zm-31.291-3.6137c-.81642-.20073-1.4283-.72514-1.6515-1.4154-.05629-.17409-.07045-.3337-.05772-.6506.01488-.37041.03393-.45457.16156-.71383.29065-.59039.92178-1.0782 1.6218-1.2536 1.2962-.3247 2.734.38499 3.0855 1.523.28401.91951-.16609 1.8671-1.1007 2.3173-.58011.27946-1.3963.356-2.0589.19309zm1.1883-.92559c.66669-.17365 1.0661-.56587 1.0639-1.0448-.0013-.28461-.11894-.51803-.37881-.75168-.31784-.28576-.65879-.40474-1.1526-.40221-.34609.0018-.42196.01741-.68771.14177-.58766.275-.90916.81904-.75681 1.2807.19909.60324 1.1282.98041 1.9121.77623zm10.225-1.6618c-.21681-.08733-.27988-.38562-.11114-.52566.03645-.03025.22654-.06747.42242-.0827.49849-.03876.76358-.16926 1.1628-.57242.65087-.65723 1.0928-.8872 1.7081-.88892.40309-.0011.38912.01194.9697-.90698 1.2709-2.0116 1.6199-2.4669 1.9365-2.5263.39524-.07415.6752.08066 1.0996.60803.15198.18886.28789.34798.30202.35359.01414.0056.26245-.34388.5518-.77663.90782-1.3578 1.1035-1.6388 1.4736-2.1163.3505-.4522.67918-.75255.92625-.84642.19539-.07424.49102-.05455.68925.04591.39586.20061 1.027.99085 1.615 2.0221.14207.24917.53944.99668.88305 1.6611.93626 1.8105 1.2924 2.3372 1.8807 2.7808.26513.19995.60076.34732.79102.34732.12565 0 .26478.21595.23585.36606-.03866.20064-.15329.26273-.74743.40493-.73889.17683-1.2469.23803-1.7152.20663-.81362-.05456-1.2347-.24229-2.1662-.96575-.8402-.65253-1.2452-.69229-1.9264-.1891-.12989.09595-.2879.22242-.35115.28103-.14581.13513-.32641.17518-.5127.1137-.19662-.06489-.58488-.57534-1.5554-2.0449-.69935-1.059-1.1394-1.6243-1.2644-1.6243-.12349 0-.36291.29534-.90509 1.1165-1.0184 1.5423-1.2207 1.8538-1.2207 1.8786 0 .01326.14076.09491.31281.18144.17205.08653.42931.23981.57169.34063.32393.22937.7353.4372.97859.49439.1025.0241.60381.08268 1.114.13019 1.1518.10724 1.5046.15939 1.6287.24072.13581.08898.12652.25618-.01956.35192-.10447.06847-.23915.0765-1.2836.0765-1.0642 0-1.2-.0084-1.5427-.09585-.51095-.13033-.8341-.2844-1.412-.67321-.62425-.41998-.87306-.51996-1.2972-.52126-.44885-.0014-.6458.10398-1.2099.64723-.48265.4648-.66558.58293-1.063.68644-.26942.07018-.79856.08185-.94974.02095zm14.911-1.1917.13577-.02716-.38048-.39352c-.57995-.59982-.79199-.94484-1.7144-2.7897-.84599-1.6919-1.3546-2.5314-1.8354-3.0295-.33647-.34859-.40023-.34185-.81685.08629-.17896.18391-.49992.58454-.71323.89028-.21332.30574-.64997.92236-.97033 1.3703-.81417 1.1383-.76169 1.0376-.64281 1.2339.4192.69245 1.2148 1.8137 1.314 1.8518.03615.01387.16062-.05057.28941-.14983.31529-.24302.67443-.4235.96113-.48302.51812-.10756 1.0212.08398 1.8752.71395.53068.39147.8953.59462 1.2343.6877.22077.06062 1.0299.08528 1.2637.03851zm-22.759-.31331c-.31196-.19023-.39735-.4594-.23185-.73085.04818-.07902.13754-.2926.19858-.47461.15063-.44912.21115-.55563.35928-.63223.3864-.19982.83112.13916.75204.57323-.03691.20263-.26028.84306-.36757 1.0539-.1411.2773-.4506.36902-.71048.21054zm.73732-2.4978c-.18189-.11469-.2534-.26948-.2274-.49221.02931-.25103.45356-1.1791.62081-1.358.11531-.12337.1633-.14394.3359-.14394.23066 0 .38999.08717.48099.26314.09958.19257.07587.31567-.1468.76237-.11512.23094-.24343.5107-.28511.6217-.04169.11099-.12103.2443-.17631.29624-.14064.13212-.43379.1568-.60207.05069zm1.4956-2.4122c-.07917-.03901-.17368-.11631-.21003-.17179-.09245-.14109-.07951-.42079.02635-.56945.14521-.20393 1.0446-1.045 1.1934-1.1159.32505-.155.70911.10988.70911.48907 0 .19334-.0063.20186-.55012.73985-.30256.29934-.59866.57942-.65798.6224-.13352.09673-.32183.09888-.51068.0058zm2.3753-1.9792c-.23024-.16127-.29664-.53822-.12801-.72668.11708-.13085.8327-.54551 1.2421-.71971.3308-.14077.53662-.15849.67939-.05849.21086.1477.2917.50869.15698.70103-.03746.05348-.2753.2031-.52854.3325-.25324.1294-.58664.30345-.74089.38678-.30709.16589-.52606.19309-.68099.08457zm2.9427-1.2653c-.16963-.10344-.29235-.35456-.25542-.52268.0517-.23538.1768-.33722.5528-.45001.54585-.16374 1.096-.28348 1.3026-.28348.23722 0 .4376.15478.4778.36906.06268.3341-.10568.5474-.49254.62401-.13432.0266-.50158.11498-.81613.19642-.31455.08143-.58637.14798-.60405.14789s-.09194-.03663-.16504-.0812zm3.0988-.57683c-.31935-.18732-.33412-.70714-.0246-.8655.07257-.03713.45952-.09364.95442-.13939.82826-.07656.83294-.07651.94919.01028.1751.13073.25009.36257.18622.57574-.02877.09603-.0992.20269-.16025.24269-.21024.13776-1.7307.27837-1.905.17617zm3.1097-.26696c-.15192-.0671-.27246-.26003-.27246-.43608 0-.16697.11827-.38883.23583-.44239.05623-.02562.46468-.08771.90767-.13797.76718-.08705.81089-.08784.92041-.01657.23378.15212.31019.3882.2062.63707-.08783.21021-.22968.26771-.84694.34332-.93332.11432-1.0038.11754-1.1507.05264zm2.8828-.52962c-.17502-.17502-.21748-.41281-.10909-.61102.07717-.14113.12468-.16448.81544-.4009.40342-.13807.78874-.25115.85627-.25129.24213-.000495.50284.25663.50284.49593 0 .16872-.13645.35495-.33141.45232-.34086.17023-1.0589.39569-1.3381.42018-.25335.02222-.27397.01674-.39593-.10522zm2.6824-1.0779c-.16431-.03187-.35803-.29482-.35803-.48598 0-.15748.03408-.20219.54512-.71509.31835-.31951.59621-.56175.66794-.58233.2977-.08538.64238.16615.64207.46856-8.9e-5.08717-.03864.2216-.08567.29873-.13374.21936-.81225.86213-1.0123.95896-.17943.08686-.21773.09234-.39917.05715zm-13.431-1.6742c-.60559-.13723-1.0394-.43192-1.6017-1.0879-.7939-.92626-1.2123-1.2635-1.5674-1.2635-.21085 0-.53055.12891-1.0807.43578-1.0721.59798-1.5949.77278-2.4052.80428-.63048.02451-.76605-.01857-.76605-.24341 0-.17407.08387-.22438.44152-.26489.82853-.09383 1.2615-.25347 2.3704-.87393.64872-.363 1.0125-.50526 1.3661-.53421.56297-.0461 1.0547.23598 1.7614 1.0105 1.1658 1.2776 1.2098 1.3042 2.2248 1.3448.55932.02233.64515.03568.71819.11166.14134.14702.1529.26659.03698.38251-.19335.19335-1.0055.29001-1.4983.17834zm14.864-.38109c-.25862-.11722-.35521-.35972-.25566-.64188.03459-.09803.10195-.37393.14971-.61312.07378-.36954.10619-.45272.21573-.55354.09855-.09071.1722-.11865.31278-.11865.36642 0 .53062.23768.49036.70981-.04152.48684-.18349.97508-.32461 1.1163-.14445.14458-.39669.18791-.58831.10106zm-23.41-2.2346c-.10291-.19228.20747-.44148 1.1678-.93764.59703-.30845.97431-.47144 1.8722-.80882 1.0681-.40133 1.1309-.44264 2.1914-1.441.34031-.32036.75443-.68427.92027-.8087.64782-.48602 1.2474-.70136 1.7103-.61422.57856.10891.96963.43968 1.6686 1.4113.24294.33772.47787.63338.52206.65703.06011.03217.10594.02311.18203-.03599.26436-.20533.92029-.56205 1.1973-.65111.24668-.07932.37023-.09469.62018-.07715.38124.02675.6024.11962 1.1966.50249.68377.44056 1.1495.60867 1.6864.60867.51904 0 .72982.09824.72982.34016 0 .18444-.11954.25928-.48895.30611-.39332.04987-.8706-.000316-1.28-.13459-.37483-.12292-.45396-.1647-1.0581-.5587-.63426-.41363-.8326-.4736-1.2067-.36485-.25308.07357-.8332.35183-.98839.47409-.07969.06278-.07909.06687.02157.14946.19497.15995.78699.49328 1.1788.6637.43689.19004.49959.24553.49959.44214 0 .3391-.33371.35927-1.0133.06123-1.1093-.4865-1.7251-.99633-2.3951-1.9828-.56796-.83628-.89626-1.1218-1.2898-1.1218-.46747 0-1.0041.35989-2.0714 1.3892-.94984.91607-1.0458.97093-2.9168 1.6676-.37969.14138-.99129.37785-1.3591.5255-1.0425.41848-1.0745.43029-1.1639.43029-.04637 0-.10639-.04126-.13338-.09168zm20.536-.45687c-.47312-.45202-.55432-.6323-.40978-.90978.03338-.06408.54935-.60032 1.1466-1.1916l1.0859-1.0751-1.1242-1.1253c-1.174-1.1752-1.2207-1.2369-1.1498-1.5194.03325-.13248.58915-.72615.76612-.81816.14956-.077764.35257-.077246.50047.00128.06408.034021.6016.54838 1.1945 1.143l1.078 1.0812 1.1225-1.117c1.1965-1.1907 1.2467-1.2273 1.5473-1.1281.0864.028515.28635.19289.49633.40801.34181.35018.35164.36609.35164.5686v.20834l-2.2622 2.2681.62412.62991c.34326.34645.83451.83689 1.0917 1.0899.50112.493.58954.61709.58954.8274 0 .18299-.06094.28586-.31904.53864-.41397.40541-.49085.45304-.73135.45304h-.21874l-2.2918-2.286-1.078 1.0812c-.59289.59464-1.1304 1.109-1.1945 1.143-.06408.03402-.19535.06186-.29171.06186-.15959 0-.20624-.02966-.52356-.33282zm1.9026-7.8218c0-.02373.03883-.043146.08629-.043146s.08629.019416.08629.043146c0 .023731-.03883.043146-.08629.043146s-.08629-.019416-.08629-.043146z" display="inline" fill="#6c5d53"/>
      </g>
    </g>
    <g transform="translate(4.8286e-8 8.067)" data-field="consumption">
      <g transform="translate(-26.807 -88.225)" stroke="#000" stroke-linejoin="round" data-field="Benommen">
        <ellipse cx="59.424" cy="136.73" rx="4.49" ry="4.3966" fill="#acf" stroke-width=".15"/>
        <path d="m56.716 136.39c-.1827-.65788-.31464-1.3731-.14487-1.6869.27254-.50377 1.5611-.71809 1.5611-.71809 1.0198-.4691 2.1796.27241 3.2002.0624 0 0 .39975.93291.47904 1.4436.03324.21392-.004.55156-.0648.89782m-.26583.0296s.7842-.2197.62174.42417c-.16245.64387-.68687.85858-.68687.85858m-.12489-2.0216c.15332.092.2418 1.1044.17172 1.6235-.06555.4855-.0509 1.0218-.31222 1.4362-.17211.27293-.76492.59321-.76492.59321l.06244.84296m-3.3247-3.7482s-.79248-.20591-.63003.43797c.16245.64387.68687.85858.68687.85858m1.6079.67907c.4014-.19033.72919.18524 1.0927.0156m-2.5758-2.7006c-.15332.092-.2418 1.1044-.17172 1.6235.06554.4855.0509 1.0218.31221 1.4362.17211.27293.76492.59321.76492.59321l-.06244.84297m2.4616-3.6494-.70248.67126m0-.68688.64004.66346m-1.7669-.69031-.70248.67126m0-.68686.64004.66344m3.0822-2.1909s2.4738.93754 1.8661 1.3093c-.70551.43162-3.0096-.10782-4.6219-.55866m-.642-.18661c-1.4478-.4611-3.9-1.7233-3.6145-2.0883.33636-.42999 3.4784.37262 3.4784.37262m1.297-.0545s4.4752-1.0259 4.1698-.38237c-.39195.82604-3.0683 1.727-4.6561 2.2093-1.4141.4295-4.3673.75351-4.3264.27462.04641-.54395 1.7763-1.2631 1.7763-1.2631" fill="none" stroke-linecap="round" stroke-width=".25"/>
      </g>
      <g transform="translate(-3.5146 -87.607)" stroke="#000" stroke-linejoin="round" data-field="Abgelenkt">
        <ellipse cx="36.015" cy="136.11" rx="4.4901" ry="4.3966" fill="#cf0" stroke-width=".15"/>
        <path transform="matrix(.33032 0 0 .33032 28.143 94.861)" d="m18.522 120.58c1.3112.30032 2.4717-.16245 3.8928 1.1236-.03379-1.1042 1.4088-1.3036 2.1459-1.1252 2.6961.65236 3.1627.24751 4.485.0953m-2.2657 3.7919a.13917.15054 0 01-.13917.15054.13917.15054 0 01-.13917-.15054.13917.15054 0 01.13917-.15054.13917.15054 0 01.13917.15054zm-.30125-.95537c-1.0987-.0884-1.9634.8765-1.3798 1.8007s1.6249.56406 2.1281.0702c.50324-.49389.35038-1.7825-.74836-1.8709zm-4.8862.91829a.12599.15064 0 01-.12599.15064.12599.15064 0 01-.12599-.15064.12599.15064 0 01.12599-.15064.12599.15064 0 01.12599.15064zm-.29692-.93325c-1.0987-.0884-1.9634.8765-1.3798 1.8007s1.6249.56406 2.1281.0702c.50324-.49389.35038-1.7825-.74836-1.8709zm-5.1429-.28887c-.54739-1.9711-.94271-4.114-.43405-5.0542.81657-1.5094 4.6772-2.1515 4.6772-2.1515 3.0555-1.4055 6.5305.81619 9.5883.18708 0 0 1.1977 2.7952 1.4353 4.3253.0995.64095-.0108 1.6526-.19413 2.69m-.79647.0885s2.3496-.65828 1.8629 1.2709-2.058 2.5725-2.058 2.5725m-.37418-6.057c.45937.27562.72446 3.3091.5145 4.8643-.19639 1.4546-.1525 3.0614-.93545 4.303-.51566.81774-2.2918 1.7773-2.2918 1.7773l.18709 2.5257m-9.9614-11.23s-2.3744-.61694-1.8877 1.3122 2.058 2.5725 2.058 2.5725m4.724 1.9878c1.2027-.57023 2.5321-.28835 3.2741.0468m-7.6239-8.0448c-.45937.27562-.72446 3.3091-.5145 4.8643.19639 1.4546.1525 3.0614.93545 4.303.51566.81774 2.2918 1.7773 2.2918 1.7773l-.18709 2.5257" fill="#cf0" stroke-linecap="round" stroke-width=".75685"/>
        <ellipse cx="36.941" cy="135.98" rx=".14285" ry=".137" stroke-linecap="round" stroke-width=".092709"/>
        <ellipse cx="35.218" cy="135.95" rx=".14285" ry=".137" stroke-linecap="round" stroke-width=".092709"/>
      </g>
      <g transform="translate(-14.834 -88.004)" stroke="#000" stroke-linejoin="round" data-field="Verwundbar">
        <ellipse cx="47.334" cy="136.5" rx="4.4901" ry="4.3966" fill="#e5ff80" stroke-width=".15"/>
        <path d="m48.34 133.91 1.6023.46999s-.03139 2.5557-.51272 3.589c-.48133 1.0334-2.1577 1.9654-2.1577 1.9654s-1.5326-.90478-2.0936-1.88c-.56099-.9752-.59817-3.5677-.59817-3.5677l2.0936-.85453.6409.5768-.96135 1.8159 1.2818 2.0722-.57681-2.0082z" fill="none" stroke-width=".25"/>
      </g>
      <g transform="translate(-38.695 -94.009)" stroke="#000" data-field="Gebunden">
        <ellipse cx="71.195" cy="142.51" rx="4.4901" ry="4.3966" fill="#deaa87" stroke-linejoin="round" stroke-width=".15"/>
        <path d="m70.371 140.2c-.0629-.009-.11984-.0214-.19602-.0422-.0653-.0179-.12609-.093-.18962-.0411-.13724.16394-.31026.54626.0778.55149.14481.002.26768-.15066.2994-.2723.0167-.0641.02-.11974.0271-.19589.0119-.12697.01-.19167.009-.33581-2e-4-.14599-.0251-.27971.0787-.40998.1058-.13287.30738-.17278.4627-.0992.0661.0313.12766.15467.21423.14676.15649-.0143.21278-.18429.40625-.17692.16446.006.24429.22505.38052.24758.17343.0287.30169-.11256.5005-.0964.18342.015.24652.0573.36175.15121.11717.0955.13885.19372.25642.32079.0858.0927.15377.14346.22019.1905.12934.0672.14367.18042.14105.31333.00021.13101-.0329.31355-.0664.44775-.0768.30735-.14708.6162-.22388.92348-.0454.18181-.11123.28543-.0618.44171.0284.0898.12301.0865.18155.12175.12137.073.13023.20999.10308.29967-.0412.13614-.17632.11583-.29626.1163-.15341.00062-.20211-.027-.29989.0322-.0711.043-.0915.10181-.12163.16383-.0338.0696-.0629.12918-.0394.18561.0626.15058.33549.0662.43297.0661.14126-5e-5.25965.0224.36097-.0481.088-.0612.13816-.16978.0837-.28654-.0366-.0785-.0744-.10278-.10884-.14114m-3.0223-3.1902c-.12902-.0244-.33751-.20516-.52783-.13667-.0797.0287-.22187.14044-.30184.20725-.0983.0821-.16957.14777-.21825.20927-.15034.18992-.27336.26271-.32523.32133-.0519.0586-.10897.23838-.10897.23838l.11329.59293c.0811.34468.17904.62195.23726 1.0581l.0444.23178.21969.0481.27984.007.3638-.007h.41976m.61567-2.7984.01.77728c.01.36113-.01.62929-.01.73388.00041.0725-.007.12005.0193.19589.0295.0853.094.15923.14037.22387.0929.12932.24449.32312.32061.47573.0737.1478.0362.20818.0992.32428.0261.0481.0699.0583.12131.0653.0688.009.1.009.16674.01.11855.001.21038-.007.33581-.007.2019-7e-5.21578.006.3638.007.10195.001.17663-.007.30782-.007m-1.1194-2.7425c0 .1062-.001.24002 2e-4.39178.00041.0601.003.11578.004.19589.00083.0867-.004.14569.0204.22384.0509.16057.31582.28822.50102.19178.12792-.0666-.041-.46437-.1217-.49923-.13961-.0603-.27809.0626-.37562.0836m-.25185 2.1548c-.1337-2e-5-.18253.0407-.29059-.0321-.0946-.0638-.11405-.19028-.26873-.1791-.13285.01-.14791.1221-.23765.1791-.049.0311-.0982.0322-.15419.0305-.0529-.002-.10202-.002-.13526-.0465-.0495-.0658-.012-.15092.0141-.23178.0978-.30322.3725-.64208.51266-.75558m.25185 1.0354c-.006.0785-.0146.148-.0705.19837-.0566.051-.10712.0641-.18134.10578-.067.0376-.11101.0687-.19586.10501-.10004.0428-.11797.0375-.25186.0386-.15087.001-.16792.0162-.33582-.009-.16513-.0248-.18461.006-.3358.009-.16186.003-.19549.0165-.3638-.009-.1671-.0251-.2074.008-.3638.009-.12858.001-.21206.0236-.29629-.048-.0638-.0542-.0708-.1338-.0588-.20369.0298-.17291.17426-.19108.2711-.196m.5317.028c-.0447.16647-.0812.21485-.13992.33581m.83953-.33581c-.0447.16647-.0812.21485-.13992.33581m.64364-.33581v.33581m1.0914-.33581-.0714.19602.003.1969.32075.0268.41977.0281m.028-.44775c-.0447.16647-.0812.21485-.13992.33581m-1.2033-.11193.004.2239-.003.16788-.007.25185.007.19589.0327.20381.13599.0469.19563.001-.01 1.2352m-2.7888-2.1867-.0572.0615c-.15345.19378-.0584.22366-.0183.44217.0155.0842-.0207.13107-.0106.22356.0134.12294.0966.1902.19835.21506.0834.0204.13737.0107.22356.009.10564-.002.16491-.0245.27984-.0198.14112.006.15197.0202.33581.02.16381-.00013.19726-.0191.33581-.0206.0657-.00062.11051.0113.16791.0169.0564.006.11093.007.16791.007.10471.00015.14062.0176.24902-.0153.083-.0252.10836-.16088.16271-.22462.0455-.0533.0876-.0693.14804-.10321.096-.0539.17574-.0718.22379-.0804m.056-.47573c.21485 0 .31101-.003.44775-.028m-2.1548.056c-.0104.0388-.0271.0946-.0589.16828-.032.0742-.0829.16122-.01.22315.11176.0949.24589.0302.34873.0281.16344-.003.18491-.0279.39178-8e-5.14291.0192.17506.001.30783.00042.0802-.00062.16658.0179.21969-.0481.041-.0509.0311-.10792.032-.17569.001-.10562.00012-.15964.00012-.19601m-.5317 0c-.0371.13816-.0708.19345-.13992.33581m1.735-.33581c-.0104.0388-.0271.0946-.0589.16827-.0328.076-.0935.17959.0107.23674.12051.0661.19665.0163.30002.0147.11519-.002.22878-.0187.27985-.028m-3.61.028c.25285 0 .41801.008.61566-.028m1.847.028h.0482c.13269 0 .24798-.00041.39956-.028m1.5391.028.0362.0615c.086.20917-.0551.23924-.12806.42135-.0259.0648-.0132.12478-.002.18874.0145.0866.23498.93535.25937 1.0229m-3.831-1.6666c-.0412.15352-.0753.20262-.13992.33582m.83953-.33582c-.0412.15352-.0753.20262-.13992.33582m.67162-.33582v.13992m1.0634-.13992c-.0118.0438-.0377.11472-.0714.19602-.0195.047-.0498.10069-.0257.15624.0462.10651.14291.0676.29305.0675.15957-.00013.20259-.0191.33582-.0206.0913-.001.15712.0171.22387.0196.19289.007.36092.001.50372.001m-.55969-.41977c-.0412.15352-.0753.20262-.13992.33582m-.78356.056h.056m-.8955.028c.0852.19738.34066.20487.41976 0m-.78356.028-.005 1.2998m-1.5343-1.2718c-.0182.3844-.13705.7539-.21601 1.1283" fill="none" stroke-linecap="round" stroke-width=".25"/>
      </g>
      <g transform="translate(-49.281 -88.439)" stroke="#000" data-field="Festgehalten">
        <ellipse transform="translate(-1.3125e-6)" cx="81.781" cy="136.94" rx="4.4901" ry="4.3966" fill="#e9c6af" stroke-linejoin="round" stroke-width=".15"/>
        <path d="m80.91 134.71c-.0629-.009-.11984-.0214-.19602-.0422-.0653-.0179-.12609-.093-.18962-.0411-.13724.16394-.31026.54626.0778.55149.14481.002.26768-.15066.2994-.2723.0167-.0641.02-.11974.0271-.19589.0119-.12697.01-.19167.009-.33581-2e-4-.14599-.0251-.27971.0787-.40998.1058-.13287.30738-.17278.4627-.0992.0661.0313.12766.15467.21423.14676.15649-.0143.21278-.18429.40625-.17692.16446.006.24429.22505.38052.24758.17343.0287.30169-.11256.5005-.0964.18342.015.24652.0573.36175.15121.11717.0955.13885.19372.25642.32079.0858.0927.15377.14346.22019.1905.12934.0672.14367.18042.14105.31333.00021.13101-.0329.31355-.0664.44775-.0768.30735-.14229.61744-.22388.92348-.11789.44223-.03052.57725.0084.96774-.15341.00062-.28396-.0153-.38174.0439-.0711.043-.0915.10181-.12163.16383-.0338.0696-.0629.12918-.0394.18561.0626.15058.33549.0662.43297.0661.14126-5e-5.25965.0224.36097-.0481.088-.0612.13816-.16978.0837-.28654-.0366-.0785-.30826-.11447-.3427-.15283m-2.7884-3.1785c-.12902-.0244-.33751-.20516-.52783-.13667-.0797.0287-.22187.14044-.30184.20725-.0983.0821-.16957.14777-.21825.20927-.15034.18992-.27336.26271-.32523.32133-.0519.0586-.10897.23838-.10897.23838l.11329.59293c.0811.34468.17904.62195.23726 1.0581l-.02575.5475m1.9689-3.066.01.77728c.01.36113-.01.62929-.01.73388.00041.0725-.007.12005.0193.19589.0295.0853.08476.16698.14037.22387.18935.19372.49773.53186.49893 1.2241m.09699-3.0982c0 .1062-.001.24002 2e-4.39178.00041.0601.003.11578.004.19589.00083.0867-.004.14569.0204.22384.0509.16057.31582.28822.50102.19178.12792-.0666-.041-.46437-.1217-.49923-.13961-.0603-.27809.0626-.37562.0836m-1.4669 2.4926c-.01734-.12719.11662-.53679.14272-.61765.0978-.30322.3725-.64208.51266-.75558m.18135 1.2338c-.0566.051-.17728-.0996-.2515-.0579-.067.0376-.04085.2324-.1257.26871-.10004.0428-.11797.0375-.25186.0386-.15087.001-.16792.0162-.33582-.009-.16513-.0248-.18461.006-.3358.009-.16186.003-.19549.0165-.3638-.009-.1671-.0251-.2074.008-.3638.009-.12858.001-.21206.0236-.29629-.048m2.9703.0212.32075.0268.41977.0281m-1.3152-.22387.004.2239-.003.16788-.007.25185.007.19589.0327.20381m.38132-.24735-.0597 1.5305m-2.7888-2.1867-.0572.0615c-.15345.19378-.0584.22366.12236.48292.39351.0407.3248-.0331.52246-.0691m1.4472.23956c.0455-.0533.0876-.0693.14804-.10321.096-.0539.17574-.0718.22379-.0804m.056-.47573c.21485 0 .31101-.003.44775-.028m-2.1548.056c-.0104.0388-.0271.0946-.0589.16828-.032.0742-.0829.16122-.01.22315.11176.0949.24589.0302.34873.0281.16344-.003.18491-.0279.39178-8e-5.14291.0192.17506.001.30783.00042.0802-.00062.16658.0179.21969-.0481.041-.0509.0311-.10792.032-.17569.001-.10562.00012-.15964.00012-.19601m-.5317 0c-.0371.13816-.0708.19345-.13992.33581m1.735-.33581c-.0104.0388-.0271.0946-.0589.16827-.0328.076-.0935.17959.0107.23674.12051.0661.19665.0163.30002.0147.11519-.002.22878-.0187.27985-.028m-1.1474.028h.0482c.13269 0 .24798-.00041.39956-.028m1.3771.11329c-.0259.0648.05696.52234.06816.5863.0145.0866.23498.93535.25937 1.0229m-2.5996-1.6666v.13992m.0089.15124c.0472.33769.33189.33349.41099.12862m-.8508-.37541.06224 1.7032m-1.4642-1.6928c-.0182.3844-.20721 1.1748-.28617 1.5492" fill="none" stroke-linecap="round" stroke-width=".25"/>
      </g>
      <g transform="translate(-3.3567 -106.81)" stroke="#000" stroke-linejoin="round" data-field="Angeschlagen">
        <ellipse cx="35.857" cy="155.31" rx="4.4901" ry="4.3966" fill="#fd5" stroke-width=".15"/>
        <path transform="matrix(.82052 -.13286 .13286 .82052 -64.229 44.966)" d="m93.498 152.34-.23483-.2071-.23814.20329.1244-.28734-.26692-.16367.31171.0295.07318-.30444.06825.30558.31215-.0245-.26953.15934zm8.8213-.92981-.31171-.0668-.11006.2992-.0328-.31711-.31856-.0122.29143-.1292-.0868-.30674.21295.23724.2649-.17737-.15983.27583zm-8.9409-2.4182-.31172-.0668-.11005.2992-.03282-.31711-.31856-.0122.29143-.1292-.08682-.30674.21294.23724.2649-.17737-.15982.27583zm8.2273.7725-.15462-.34068-.35909.10504.27623-.25233-.21087-.30906.32535.18473.22877-.29604-.0752.36651.35224.12614-.3718.0418zm-3.586-3.2319-.13275-.51422-.5278.0589.44803-.28516-.21913-.48376.40965.33798.39237-.35789-.19485.49404.46163.26257-.53008-.0326zm.27656 4.1948c0-.0508-.0468.0855-.08636.0791-.03956-.006-.06507-.0522-.05698-.10233.0081-.0501.0468-.0855.08636-.0791.03957.006.05698.15312.05698.10234zm.31611-.34456c-.44312-.1088-.86027.22826-.68295.64452s.62664.33799.86496.16943c.23831-.16852.26111-.70517-.182-.814zm-2.0124.0459c-.0081.0501-.0468.0855-.08636.0791-.03957-.006-.06508-.0522-.05698-.10234.0081-.0501.0468-.0855.08636-.0791.03957.006.06508.0522.05698.10234zm-.10455-.39503c-.44312-.1088-.86028.22826-.68295.64452.17733.41626.62664.338.86496.16943.23831-.16853.26111-.70518-.182-.814zm-.89446-1.3554c.49528.20109.97994.0932 1.4557.68802.05683-.4353.63547-.42188.91327-.3051 1.0162.42716 1.225.29791 1.7534.32229m-5.3103.19189c-.09325-.84167-.11301-1.7434.15705-2.094.43353-.56274 2.0536-.56969 2.0536-.56969 1.3415-.37217 2.6145.7656 3.9056.71088 0 0 .30447 1.2214.3003 1.8623-.002.2685-.11409.6745-.25731 1.0864m-.33129-.0166s1.0036-.11353.67711.64256-1.0111.915-1.0111.915m.24786-2.4998c.16948.14298.0771 1.4001-.11161 2.0217-.17652.5814-.2649 1.2409-.66694 1.6964-.26481.30003-1.0541.57462-1.0541.57462l-.09063 1.0444m-3.3274-5.248s-.9294-.40921-.85815.41128c.07125.82051.67072 1.1873.67072 1.1873m1.7688 1.1886c.66674-.0819.82318.36478 1.3348.23575m-2.553-3.8555c-.20594.0822-.51497 1.3042-.53207 1.9536-.016.60738-.14025 1.261.09754 1.8202.15661.36825.8189.87787.8189.87787l-.24356 1.0197" fill="none" stroke-linecap="round" stroke-width=".30077"/>
        <ellipse cx="36.399" cy="155.59" rx=".14285" ry=".137" stroke-linecap="round" stroke-width=".092709"/>
        <ellipse cx="34.964" cy="155.56" rx=".14285" ry=".137" stroke-linecap="round" stroke-width=".092709"/>
      </g>
      <g transform="translate(12.169 -36.465)" stroke-linecap="round" stroke-linejoin="round" data-field="Bonus">
        <path d="m32.789 84.965a12.458 3.8693 0 01-12.456 3.8693 12.458 3.8693 0 01-12.46-3.8679 12.458 3.8693 0 0112.451-3.8707 12.458 3.8693 0 0112.465 3.8665" fill="#0f6" stroke="#008000" stroke-width=".13428"/>
        <text x="20.210665" y="85.681007" fill="#000000" font-family="'Comic Sans MS'" font-size="2.8222px" font-style="italic" stroke-width=".2" text-anchor="middle" style="font-variant-caps:normal;font-variant-east-asian:normal;font-variant-ligatures:normal;font-variant-numeric:normal" data-field="bonus_text" xml:space="preserve"><tspan x="20.210665" y="85.681007" fill="#000000" font-family="'Comic Sans MS'" font-size="2.8222px" font-style="italic" stroke-width=".2" style="font-variant-caps:normal;font-variant-east-asian:normal;font-variant-ligatures:normal;font-variant-numeric:normal">+2 Durchdringung</tspan></text>
      </g>
      <g transform="translate(12.169 -36.465)" stroke-linecap="round" stroke-linejoin="round" data-field="Mallus">
        <path d="m32.789 84.965a12.458 3.8693 0 01-12.456 3.8693 12.458 3.8693 0 01-12.46-3.8679 12.458 3.8693 0 0112.451-3.8707 12.458 3.8693 0 0112.465 3.8665" fill="#ddafe9" stroke="#892ca0" stroke-width=".13428"/>
        <text x="20.210665" y="85.681007" fill="#000000" font-family="'Comic Sans MS'" font-size="2.8222px" font-style="italic" stroke-width=".2" text-anchor="middle" style="font-variant-caps:normal;font-variant-east-asian:normal;font-variant-ligatures:normal;font-variant-numeric:normal" data-field="mallus_text" xml:space="preserve"><tspan x="20.210665" y="85.681007">-2 Fernkampf</tspan></text>
      </g>
      <g transform="translate(12.169 -36.465)" stroke-linecap="round" stroke-linejoin="round" data-field="Schaden">
        <path d="m32.789 84.965a12.458 3.8693 0 01-12.456 3.8693 12.458 3.8693 0 01-12.46-3.8679 12.458 3.8693 0 0112.451-3.8707 12.458 3.8693 0 0112.465 3.8665" fill="#e9afaf" stroke="#a02c2c" stroke-width=".13428"/>
        <text x="20.210665" y="85.681007" fill="#000000" font-family="'Comic Sans MS'" font-size="2.8222px" font-style="italic" stroke-width=".2" text-anchor="middle" style="font-variant-caps:normal;font-variant-east-asian:normal;font-variant-ligatures:normal;font-variant-numeric:normal" data-field="damage_text" xml:space="preserve"><tspan x="20.210665" y="85.681007">2W8 Explosion</tspan></text>
      </g>
    </g>
    <text x="32.538586" y="39.182785" fill="#ffffff" font-family="'Segoe Print'" font-size="4.9389px" font-weight="bold" stroke="#000000" stroke-linecap="round" stroke-linejoin="round" stroke-width=".2" text-anchor="middle" style="font-variant-caps:normal;font-variant-east-asian:normal;font-variant-ligatures:normal;font-variant-numeric:normal" data-field="name_short" xml:space="preserve"><tspan x="32.538586" y="39.182785">Durchschlags-</tspan><tspan x="32.538586" y="45.356396">munition</tspan></text>
    <text x="32.319332" y="14.778193" fill="#000000" font-family="'Comic Sans MS'" font-size="3.175px" font-style="italic" stroke-linecap="round" stroke-linejoin="round" stroke-width=".3" text-anchor="middle" style="font-variant-caps:normal;font-variant-east-asian:normal;font-variant-ligatures:normal;font-variant-numeric:normal" data-field="test" xml:space="preserve"><tspan x="32.319332" y="14.778193">Schiessen</tspan></text>
    <text x="32.758465" y="19.284613" fill="#000000" font-family="'Comic Sans MS'" font-size="3.175px" font-weight="bold" stroke-linecap="round" stroke-linejoin="round" stroke-width=".3" text-anchor="middle" style="font-variant-caps:normal;font-variant-east-asian:normal;font-variant-ligatures:normal;font-variant-numeric:normal" data-field="test_mallus" xml:space="preserve"><tspan x="32.758465" y="19.284613">-1</tspan></text>
    <text x="32.501377" y="69.210373" fill="#000000" font-family="'Comic Sans MS'" font-size="2.8222px" stroke-linecap="round" stroke-linejoin="round" stroke-width=".3" text-anchor="middle" style="font-variant-caps:normal;font-variant-east-asian:normal;font-variant-ligatures:normal;font-variant-numeric:normal" data-field="description" xml:space="preserve"><tspan x="32.501377" y="69.210373">Ignoriert 2 Punkte Panzerung</tspan></text>
  </g>
</svg>
