<svg width="65mm" height="97mm" version="1.1" viewBox="0 0 65 97" xmlns="http://www.w3.org/2000/svg" xmlns:xlink="http://www.w3.org/1999/xlink">
  <title>GnM Deckkarte</title>
  <g>
    <path d="m26.197 25.88c-.01807-.35514-.04364-.46557-.13385-.5777l-.0628-.07808-.13028.10907c-.39129.32761-.87124.35298-1.182.06248-.15657-.14634-.3122-.24117-.54891-.33452-.19686-.07763-.5529-.16121-.77677-.18234-.08684-.0082-.25275-.02659-.36869-.04088-.11593-.01429-.33898-.02602-.49566-.02602-.43614 0-.37944-.03396.28349-.16966.53691-.10992.95859-.1537 1.1673-.12118.29354.04575.41073.09519.5393.22762.16289.16776.40998.33832.56492.38993.22264.07416.40525.05319.70904-.08149.117-.05184.15174-.08024.15085-.12325-.0019-.09736-.06757-.2464-.15932-.36224l-.08877-.11209.14141.01673c.16057.01903.42393.13406.54896.23981.11462.09694.15242.28401.13153.65095-.01634.28676-.0537.44742-.1453.62436-.12203.23576-.12694.23197-.1444-.11153zm1.066.14144c.07975-.30877.08817-.3948.05453-.55751-.04383-.21219-.09621-.33468-.14312-.33468-.0207 0-.08675.0173-.14674.03845-.12598.04447-.1381.02384-.03941-.06692.10817-.09949.17563-.27259.15464-.39682-.01942-.11496-.18849-.32007-.37946-.46033-.0594-.04364-.10824-.08995-.10859-.10296-.0013-.03787.32201.0026.50073.06299.20491.06903.35383.16628.39585.25851.01781.03915.03915.22226.04736.40697.02281.51274-.05319.88304-.23183 1.1296-.09512.13132-.13429.13982-.10401.02262zm1.081-1.0411c-.02301-.02717-.07346-.10489-.11216-.17274-.09469-.16596-.25802-.30036-.43781-.36028-.10409-.03467-.15071-.0646-.15606-.10015-.02089-.13856-.04223-.18187-.14374-.29203-.25638-.27813-.47554-.33712-1.0943-.29454l-.42615.02935-.26656-.15964c-.14661-.0878-.38509-.21025-.52996-.27211l-.26339-.11247-.16132.17245c-.17847.19078-.48778.37304-.70056.41279-.06632.01237-.12058.01807-.12058.01262 0-.0051.04768-.05293.10596-.1056.11615-.10494.33806-.38875.36944-.47249.06331-.16904.06804-.16128-.12454-.20549-.36734-.08435-.32251-.09838-.51672.1617-.37774.50584-.92154.91265-1.5579 1.1654-.08295.03294-.16285.05575-.17754.05069-.01468-.0051.08203-.09842.21493-.20747.42825-.35139.78164-.75371.98292-1.119.13299-.24134.1385-.27325.04992-.2886-.04043-.007-.16666-.03287-.28051-.05748-.33203-.07178-.3559-.06338-.48072.16975-.2397.44762-.44966.69698-.81907.97275-.13724.10245-.401.24327-.45566.24327-.0099 0 .02967-.05056.08785-.11235.12566-.13342.31159-.37808.4269-.56175.22378-.35645.44339-.90827.41404-1.0404-.02473-.11125-.09547-.29471-.11324-.29362-.0089.000551-.06318.06895-.12057.15201-.19936.2885-.56606.73284-.64119.7769-.07224.04236-.0808.04165-.19493-.01621-.61461-.31156-1.1885-.88261-1.5809-1.5731-.1703-.29966-.23866-.47244-.32103-.81142-.08043-.33101-.07146-.3685.0471-.19688.57868.83772.99935 1.2794 1.6393 1.7213l.24507.16921.22255-.22255-.06556-.04409c-.15889-.10692-.58536-.62154-.54693-.65998.0078-.0078.10732.03922.22128.1044.11397.06515.29049.15096.39226.19067.10177.03973.20058.08451.21957.09955.02602.02057.06498-.008.15795-.11591.21162-.24558.46256-.50012.49306-.50012.01608 0 .10471.15167.19701.33705.16489.33118.34967.64041.43155.72218.02281.02281.12907.05697.23608.07587.107.0189.24209.04614.30019.06043.05812.01429.12791.03031.15513.03556.91575.17636 1.7287.51031 2.277.93536.08724.06762.17282.13155.19019.14206.01737.01051.11848.000641.2247-.02153.10622-.02236.25261-.05299.32531-.06816.26526-.0553.54751-.06094.70812-.01429.12969.03768.16518.06293.2502.17778.05703.07705.17315.182.27363.24733.17859.11612.3632.32616.46837.53293.06904.13573.14332.45423.1321.56642-.008.07993-.01038.08156-.05017.03454zm-7.8125-1.1722c-.10883-.02512-.54107-.24774-.70934-.36534-.43198-.3019-.75082-.62681-1.018-1.0374-.16919-.25998-.3532-.61821-.38705-.75351-.01653-.06598.0026-.05133.1229.09358.2028.24459.7145.74064.96654.93699.48337.37656.94954.6497 1.3584.79592.10905.03902.20256.07479.20782.07956.01781.01615-.14125.14895-.23425.19559-.12442.06242-.20849.07736-.30699.0546zm14.801-.31133c-.03076-.09814-.06502-.22007-.0761-.27097-.01109-.05088-.02557-.11037-.03223-.13217-.02659-.08706-.03044-.81618-.0051-.96489.04864-.28567.05492-.31524.10685-.50227.22092-.79589.62045-1.4034 1.5825-2.4061.83372-.86897.96195-1.015 1.1911-1.3567.15216-.22693.32219-.57829.41141-.8502.06139-.1871.07418-.27336.07642-.51548.0026-.26091-.0038-.3021-.06043-.4009-.08899-.15531-.3313-.27582-.69315-.3447-.11314-.02153-1.4774-.02653-1.4775-.0051-6.4e-5.0214.49713.17171.74014.22373.20771.04447.38513.05774.84593.06344l.27757.0032-.09253.05107c-.05088.02807-.19984.08615-.331.12903-.32522.10632-.65196.12908-1.0041.06994-.20879-.03505-.2811-.038-.34366-.0139l-.07922.0305.11896.04697c.06543.02582.21413.09241.33044.14795.2033.09708.20842.10171.13218.11949-.04364.01019-.15068.02031-.23792.02256-.36786.0094-.68536.10764-.802.24819-.03025.03646-.02185.0437.06648.05793.10648.01717.40508.1436.40508.17156 0 .009-.11599.04389-.25775.07759-.14176.03364-.31387.08489-.38248.11384-.13399.05652-.21561.12614-.1479.12614.02083 0 .05966.01596.08639.0355.04466.03268.03627.04255-.10368.12261-.15149.08667-.15217.08762-.13816.19204.0082.06133.04768.14678.09492.20554l.08085.1006-.18334.03095c-.15636.02634-.20587.02442-.33646-.0132-.19614-.05652-.38104-.2397-.50695-.5022-.09506-.19818-.14431-.33919-.11372-.32559.01032.0045.08409.0405.16387.07984.26392.13003.26991.12893.37897-.06948.05255-.0956.10335-.20653.1129-.24651.0095-.03999.02704-.08509.03883-.10023.01179-.01512.02852-.06766.03717-.11673.0087-.04909.0214-.09843.02839-.1097.02922-.04723.04159-.31441.01461-.31441-.01538 0-.09347.02993-.17349.06656-.1483.06784-.19973.12512-.19973.2225 0 .0685-.01237.06822-.11175-.0026-.10286-.07324-.157-.04319-.19072.10575-.01371.06049-.03242.11001-.04165.11001-.0092 0-.04467-.02973-.07884-.06609-.03415-.03633-.08895-.06609-.12179-.06609-.0637 0-.08455.03928-.09468.17843-.0032.04723-.0097.08592-.01384.08592-.0045 0-.06578-.03249-.1369-.0722-.10662-.05953-.14206-.06765-.20191-.04627-.10152.03627-.17862.18535-.15697.30351.04966.27123.0553.31723.03851.31723-.01006 0-.0976-.06004-.19451-.1334-.33856-.2563-.46883-.60573-.33154-.88934.03441-.0711.17158-.22421.36349-.40577l.3082-.29158.0083.09408c.0051.05915-.01634.14778-.05799.23881-.03646.0796-.06075.14473-.05396.14473.03191 0 .24105-.148.34656-.24524.12863-.11856.22181-.26447.27388-.42885.02595-.08184.13057-.20135.46295-.52871.2362-.23263.49295-.50623.57055-.60801.0776-.10177.15312-.19782.16782-.21344.03505-.03723.36772-.54923.5301-.81587.07028-.1154.13192-.19739.13699-.1822.02788.08357-.38774 1.1616-.49992 1.2968-.06723.081.0019.04684.13713-.06779.5168-.43801 1.1817-1.1763 1.5512-1.7226.29455-.43536.43567-.72516.57925-1.1896.10488-.33924.13157-.3078.1068.12584-.03556.62306-.24921 1.1925-.69159 1.8436-.27504.40477-.3134.44978-.7646.89711-.18971.18808-.32458.33436-.2997.32506.29475-.1102 1.6624-.52795 1.6778-.5125.02557.02563-.64296.55138-1.0304.81037l-.17797.11896.18017.03037c.09909.01673.48135.03794.84946.04723.71838.01807.7516.02397.95368.17036.26242.19009.37298.43808.39037.87554.01128.28312.0064.3239-.07244.59361-.13841.4742-.29219.7369-.75867 1.296-.15732.18857-.44663.5145-.64292.72431-.28472.30434-.84502.93997-1.1329 1.2853-.25196.30218-.6237.85642-.76243 1.1367-.1061.21437-.16671.36889-.23851.60801-.02185.0727-.06789.2095-.10237.30401-.03448.09451-.06967.22536-.0782.29079-.0085.06543-.02557.16654-.03781.2247-.02115.10047-.03973.48869-.0364.76001.000641.06907-.000288.12557-.0026.12557-.0026 0-.02929-.0803-.06004-.17844zm-.34956-7.6909c.20564-.10124.54741-.37695.61047-.49246.02192-.04018.0058-.03704-.10101.0198-.13464.07167-.24374.08632-.29098.03909-.02051-.02051-.06479.02538-.15651.16205-.07035.10486-.1598.22479-.19878.26651-.08846.0947-.04838.09616.13681.0051zm-4.588 7.4196c-.14539-.01256-.32978-.03512-.40975-.05005-.07997-.01493-.23461-.04044-.34366-.05658-.17006-.02518-.31969-.06049-.77984-.18394-.41827-.11222-1.3185-.51415-1.758-.78491-.42919-.26442-.88412-.60885-1.1947-.90453l-.21069-.20057.07242-.19827c.08236-.2255.14061-.47219.14356-.60801.0019-.08501.0132-.09776.13972-.15693.20437-.0956.38254-.2938.53818-.59867.07361-.14419.17851-.33948.23311-.43399.0546-.09451.11383-.21347.13162-.26435.04736-.13546.05082-.37173.0067-.45681-.05037-.09708-.75636-.61612-1.0789-.79319-.07929-.04351-.15133-.11717-.22785-.23293-.20056-.30338-.35157-.39642-.86896-.5354-.40771-.10951-.837-.24-.88287-.26834-.06714-.04152.03473-.87255.16524-1.3482.01596-.05818.03146-.11764.03441-.13217.03178-.1562.23689-.68469.38285-.9864.19246-.39781.37382-.69159.65365-1.0588.48477-.63616 1.1396-1.2327 1.8358-1.6724.33347-.2106 1.1885-.63663 1.4221-.70859.39319-.12112.55574-.16768.83665-.23961.17664-.04524.34913-.08291.38331-.08372.03415-.000641.15137-.0166.26042-.03505.10904-.01846.228-.03377.26435-.03403.03633-.000269.26237-.0148.50227-.03236.2399-.01749.54325-.02525.6741-.01711.37208.02301.80676.0678.95167.09811.0727.01519.17976.03396.23792.04165.2857.03787.9334.22865 1.3429.39556.6666.27166 1.2992.67331 1.6986 1.0785.18584.18851.5306.68374.5963.85657.01557.04095-.10858-.06325-.32385-.27181-.93973-.91047-1.947-1.4521-3.2612-1.7537-.43828-.10057-1.1615-.16473-1.5332-.136-.67431.0521-.99471.13283-1.4737.37134-.45112.22462-1.0413.73683-1.3076 1.1348-.2593.38754-.38736.68795-.48453 1.1365-.08089.37342-.09252.65457-.03935.95167.02467.13812.05101.2866.05844.32994.0232.13534.16947.54838.2529.71425.25266.50234.78812 1.0362 1.3246 1.3207.32737.17361.8973.35462 1.7089.54276.11014.0255.17183.04729.62123.21948.42452.16262.56965.23487.87237.43428.58069.38252.89315.74266 1.1309 1.3034.2016.47555.30445.96458.27332 1.2996-.0216.23238-.11106.6371-.16305.73765-.02185.04223-.03294.07679-.02467.07679.03076 0-.25538.52102-.36873.67138-.38046.50469-1.0161.97128-1.588 1.1656-.25012.08498-.28096.1057-.11896.07995 1.2221-.19427 2.12-.55653 3.0467-1.2292.0836-.06068.152-.10297.152-.09397 0 .04031-.12147.24891-.2029.34845-.18367.22452-.61042.53529-1.0007.72873-.35923.17805-.9935.37772-1.4003.44081-.10177.01576-.26237.04056-.35687.05505-.24207.0371-1.2307.05434-1.5465.02704zm.62651-2.3643c.24328-.07382.5303-.3099.59628-.49043.0079-.02179.03089-.05883.05094-.08229.05473-.06402.06638-.14204.06612-.4428-.000218-.26381-.0032-.27818-.08186-.38764-.04492-.06254-.08163-.12386-.08163-.1363 0-.04761-.2195-.27226-.33828-.34618-.40145-.24983-.9607-.14027-1.2863.252-.18393.22159-.23764.37285-.23697.66737.000468.20394.0087.24008.08941.39109.04889.09152.1361.22001.19377.28554.10302.11704.34954.26416.50774.30302.13386.03287.39002.02627.52077-.01339zm-12.509 2.1832c-.12184-.0784-.27978-.21668-.40975-.35871-.11632-.12712-.3343-.35202-.48441-.49978-.33783-.33254-.69878-.74316-.84908-.96592-.14016-.20772-.28752-.52381-.38682-.82973-.04133-.12741-.08343-.22852-.09349-.2247-.04332.01647-.31854.26961-.34317.31562-.04851.09068.12842.59174.40446 1.1453.26522.53185.38758.71733.66634 1.0101l.26202.27517-.14769-.06532c-.30074-.13299-.5392-.33392-.8831-.74407-.28385-.33854-.52714-.73596-.67056-1.0954-.0471-.118-.09466-.22012-.10571-.22696-.04691-.02896-.62914.28455-1.0776.58028-.10608.06996-.19856.12152-.2055.11457-.0069-.0069.06795-.08191.16644-.16659.09849-.08468.19096-.16667.2055-.18221.02531-.02711.29477-.26471.48905-.43132.05088-.04364.20109-.17303.33377-.28754.13269-.11451.33391-.28552.44716-.38003.11325-.09451.32563-.27592.47194-.40314.14632-.12722.28683-.23131.31225-.23131.07338 0 .11921.10387.13703.31061.02358.27353.12419.64583.25535.94489.12175.27761.22194.43779.43002.6875.10196.12236.1283.14285.11522.08965-.05652-.23008-.09067-.742-.07117-1.0678.0038-.06543.01166-.05389.04434.06609.06439.23655.2495.77188.30462.88086.02807.05556.15245.35296.27636.66088.27458.68235.35984.85939.48334 1.0036.21441.25032.20654.25802-.07717.07544zm17.792-1.2811c-.000442-.01198.04832-.14744.10835-.30099.1671-.42738.27527-.59673.68911-1.0789.02467-.02871.32895-.34371.67616-.69992.34722-.35622.68527-.70714.75122-.77984.06596-.07269.2148-.23457.33077-.35971.11597-.12514.24546-.27384.28777-.33045.04229-.05658.09021-.11704.10644-.13431.04473-.04755.26538-.483.35525-.70098.09601-.23287.14741-.46097.17153-.7612.02967-.36952-.07614-.70162-.33072-1.0379l-.131-.17304.10409.04088c.14045.05517.38634.25699.50601.41533.05383.07122.13142.21961.17243.32977.06876.18469.07428.22703.07092.54394-.0038.35887-.02352.44689-.19212.85914l-.05947.14539.08346-.0793c.36252-.34447.88757-1.1949 1.1216-1.8165.14825-.39385.25313-.91028.25291-1.2453-.000237-.35969-.10573-.7893-.27668-1.1266-.16452-.32467-.51316-.68166-.93591-.95834-.19825-.12975-.57542-.32257-.78318-.4004-.53644-.20094-.57095-.2184-.52112-.26349.0546-.04941.36115-.1558.61364-.213.86935-.19693 2.3253-.21902 3.4102-.05171.13813.02127.28683.04319.33044.04864.04364.0058.13283.02153.19826.03569.17233.0373.52098.10678.6741.13433.07269.01307.15002.02871.17183.03473.02179.0058.08724.01993.1454.03089.16123.03037.46254.12068.58889.17652.06216.02749.13613.04998.16432.04998.0282 0 .09034.01698.13808.03774.04774.02076.15224.05761.2322.08195.12406.03774.54897.20746.87236.34848.31603.13781 1.0753.526 1.2429.63541.18928.1236.56503.40276 1.1535.85698.23986.18514.66051.59565.63574.62042-.0051.0051-.12759-.05524-.2718-.13445-.44872-.24654-.87095-.39153-1.5179-.52118-.24137-.04838-.8799-.04345-1.4403.01109-.55548.05402-.51588.05223-.51588.02384 0-.0453.49574-.26608.71375-.31789.28731-.06828.67202-.09078 1.0574-.06184.1672.01256.30702.02089.3107.01852.0038-.0026-.11528-.08021-.26435-.17301-.2948-.1835-.84188-.47013-1.1566-.60599-.10905-.04704-.28154-.12504-.38331-.17326-.15256-.07229-.92778-.33179-1.1764-.39378-.03633-.009-.24453-.06197-.46262-.11761-.82352-.21004-1.0078-.24414-1.6579-.3067-.21397-.02057-.43158-.04543-.48359-.05517-.4536-.08509-1.7062-.15705-1.6683-.09584.0083.01339.05998.03153.11486.04024.17869.02839.54396.14058.78709.24177 1.6516.68738 2.2822 1.0429 3.3868 1.9094.51912.40722 1.2271 1.0625 1.4795 1.3693.10765.13086.28572.34499.39572.47584.4835.57517 1.1311 1.5581 1.3672 2.0752.20261.44372.26226.58533.25123.59636-.0064.0064-.09215-.07806-.19062-.18765-.1876-.20878-.5176-.49634-.74186-.64647-.24865-.16644-.77134-.42018-.976-.47378-.11233-.02941-.33125-.0723-.48649-.09528-.15524-.02301-.32388-.04793-.37477-.05543-.13906-.02051-.2978-.06482-.28346-.07917.007-.007.12828-.03595.26958-.06435.49069-.09871.82156-.05915 1.3753.16457.14539.05876.28193.11374.30342.12224.02147.0085-.0079-.04934-.06523-.12848-.21245-.29319-.81728-1.0968-.85071-1.1302-.01903-.01903-.1766-.19749-.35018-.39653-.69561-.79763-1.598-1.5393-2.5796-2.12-.20355-.12043-.39983-.23898-.43619-.26344-.06613-.04454-.51606-.26508-.54073-.26508-.0072 0-.09369-.03691-.19219-.08209-.23692-.10859-.69905-.29236-.70934-.28206-.01096.01096.3528.28485.37838.28485.01109 0 .04985.02679.0861.05947.03627.03274.15508.1301.26408.21643.67651.53574 1.3767 1.397 2 2.4601.05114.08724.14678.27757.21252.42297.06575.1454.17668.38927.24651.54193.26186.57244.4835 1.2271.65842 1.9448.05998.24617.12607.513.14684.59297.04153.15995.08173.4439.05985.42297-.0076-.0072-.08247-.13813-.16639-.29079-.19946-.36286-.48455-.76144-.65291-.9128-.07396-.0665-.23432-.16924-.35637-.22831-.1881-.09105-.25487-.10944-.43842-.12075-.24083-.01487-.43493.02807-.58091.12839-.29168.20048-.34966.26026-.58655.60476-.33911.49316-.48819.75266-.76694 1.335-.25301.52855-.44106.88993-.45554.87545-.0097-.0097.04146-.24393.15646-.71684.04242-.17447.08122-.33507.08621-.35687.0051-.02179.0471-.20025.09358-.39653.04646-.19628.08972-.38662.09611-.42296.0064-.03633.01666-.08393.02288-.10574.0064-.02179.01801-.08129.02627-.13218.0083-.05088.02608-.12821.0396-.17183.01352-.04364.03217-.13879.0414-.21149.02743-.21567.0339-.25992.05139-.35336.01858-.09923.0264-.18997.06441-.7437.02563-.37367.01762-.70166-.05056-2.0752-.01442-.29079-.02557-.58224-.02473-.64767.0013-.11588.0038-.1128.08086.11896.13466.40388.22828.79602.27137 1.1367.07589.60002.1065 1.4158.06844 1.824-.01493.15993-.03352.36811-.04133.46262-.0078.09451-.01923.1867-.02538.20487-.02127.06306.02038.03185.26436-.19827.27623-.26053.45446-.37725.71816-.47031.19694-.0695.32506-.07895.53372-.03934.15298.02903.43759.15482.60695.26829.06254.04191.1174.07617.12195.07617.01955 0-.25416-.77828-.36719-1.0442-.06798-.15993-.17456-.42164-.23686-.58158-.06229-.15993-.15609-.36217-.20844-.4494-.05235-.08724-.12326-.21215-.15758-.27757-.183-.34886-.70029-1.0861-1.0201-1.4539-.35401-.40709-.60137-.63215-1.0211-.92908-.20125-.14236-.20245-.14248-.14826-.01602.06261.14601.17092.51088.21782.73365.04864.23096.04845 1.083-.000244 1.3482-.10867.59149-.22728.95875-.46614 1.4432-.36581.74196-.92346 1.4104-1.7048 2.0434-.28647.23209-.91949.73928-1.2557 1.0061-.47854.37977-1.0572.89101-1.3143 1.1611-.2093.21992-.62754.73365-.70224.86252-.01685.02909-.03102.04306-.03146.03108zm-12.095-.08213c-.11497-.04255-.14455-.07407-.31171-.33224-.09676-.14943-.14372-.19154-.36033-.32306-.29958-.18189-.39631-.27161-.48743-.45213-.08181-.16206-.17952-.52405-.14988-.55525.01141-.01205.05498-.01801.09671-.0132.08018.0092.10067.03928.23147.34063.09566.22037.20358.30328.51856.39836.18106.05466.3454.17898.45393.34342.07244.10973.12618.15976.20589.19165.12805.05126.16716.05255.39542.01314.15037-.02595.18926-.04524.28635-.14192.06177-.06152.11235-.12394.11235-.13871 0-.01474-.06248-.05203-.13879-.08282-.10946-.04415-.19171-.05549-.38921-.05376-.28658.0026-.28843.0013-.42629-.2717-.09747-.19309-.18528-.27354-.37408-.34273-.08609-.03153-.15201-.07174-.15201-.09269 0-.02038.03038-.09699.06756-.17032.21533-.42493.56387-.82851.76845-.8898.13082-.03922.37586-.04037.53862-.0026.06543.01519.21413.04223.33045.06011.11631.01788.23306.04223.25944.05402.11364.05101.54912-.06942.5845-.16162.01826-.04761-.01141-.10609-.16059-.31623-.06325-.08908-.11499-.18885-.11499-.22171 0-.05729.007-.05921.17183-.04595.09451.0076.17181.0064.17179-.0032-2.5e-5-.0092-.05652-.05158-.12557-.09417-.06903-.04255-.22069-.13951-.337-.21544-.11631-.07593-.28381-.17569-.3722-.22169-.13168-.06853-.18107-.11459-.27336-.25497-.23305-.35446-.59247-.47403-1.0184-.33878-.19925.06325-.42416.08131-.59296.04755-.04543-.0091-.08261-.02557-.08261-.03653 0-.01102.0628-.04979.13959-.08613.13554-.06418.22524-.13922.19844-.16601-.01557-.01564-.35949-.09019-.4189-.09085-.02269-.00025-.10145.05761-.17508.12856-.11673.11251-.3077.21495-.34017.18248-.0058-.0058.000641-.05178.015-.10159.01429-.04986.02602-.12964.02602-.17734 0-.11206-.0654-.13831-.34464-.13831h-.20902l.06534.1229c.06578.12371.08409.23249.04338.25766-.01211.0075-.16972-.05703-.35027-.14328-.18055-.08628-.34613-.1573-.36793-.15781-.02179-.000513-.08914-.0182-.14964-.03928-.14084-.04909-.219-.06395-.43844-.08334l-.17832-.01576.03845.10904c.12734.36092.48309.63481.91033.70087l.19856.0307-.07813.05543c-.10419.07392-.35947.12434-.52105.1029-.4618-.06126-.79089-.38668-.8817-.87186-.02993-.16-.01865-.4168.01935-.44089.04768-.03018.36644-.02845.69723.0038.14539.01416.52011.03191.83271.03941.79278.01897 1.3125.08564 1.7454.22394.08454.02698.2885.08611.45324.13133.65402.17954.77715.24647.96233.52309.09351.1397.1614.1996.43437.38331.17794.11976.34885.23255.3798.25065.03095.01807.15145.10198.26776.1864.20005.1452.21192.15943.21955.26318.0098.13386-.09096.35468-.23833.52211-.05511.06261-.1003.12983-.10044.1494-.000641.12791-.24081.49326-.39678.60432l-.0784.05582.03384-.39985h-.1224c-.1202 0-.12359.0026-.18888.1312-.08115.16013-.19161.2884-.30571.35498l-.08569.04998.01711-.07644c.0094-.04204.02454-.16044.03364-.26312l.01653-.18668-.15179-.03396c-.09046-.02025-.20134-.02659-.2744-.0157-.29033.04319-.49491.46421-.35714.73499.06267.1232.27186.36217.31701.36217.02127 0 .09627-.05383.16658-.11958l.12784-.11959.01339.07024c.0074.03864.008.12218.0013.18567-.0066.0635-.0026.11539.0096.11534.03986-.000185.17904-.09978.31241-.22355.11695-.10852.13315-.1164.14064-.06837.01153.07399-.06457.3271-.14708.48916-.0373.07332-.07252.17449-.07821.22482-.02884.25532-.21071.44861-.52336.55628-.21236.07313-.52248.09252-.66088.04133zm-1.8997-.74298c-.08525-.01858-.21015-.0544-.27757-.07965-.16575-.06203-.5175-.29566-.67014-.44506-.06854-.06708-.13171-.12196-.1404-.12196-.02217 0 .01025.21589.06616.44105.05748.23156.03576.22668-.18187-.04082-.18705-.22992-.28531-.44454-.33568-.73312-.02256-.1293-.04543-.2395-.05082-.24488-.0051-.0051-.06693.07918-.13677.18791-.06984.10874-.14166.22012-.15959.24752-.02659.04063-.03191-.01705-.02896-.31342.0067-.66813.16222-1.1472.47772-1.4715.12801-.13159.39965-.29259.43464-.2576.0081.0081-.03601.08897-.09797.17975-.13322.19518-.21244.36718-.28482.61843-.06363.22087-.08341.32927-.06011.32927.0095 0 .0698-.05351.13401-.11895.06422-.06543.12432-.11896.13356-.11896.0092 0 .02999.0932.04614.20711.04095.28948.11747.47506.29366.71207.329.44256.76451.74875 1.3414.94302l.17889.06024-.17285.03012c-.20724.03608-.30367.03409-.50856-.01057zm-3.8816-.34113c-.11192-.05902-.23989-.1423-.2844-.18512-.11059-.10641-.38852-.58218-.4386-.75082-.08637-.29082-.11515-.73171-.06746-1.0334.01166-.0736.01743-.13381.01282-.13381-.0045 0-.05934.028-.12162.06229-.30825.16949-1.0727.55525-1.3425.67748-.46298.20972-.45591.20876-.29079.03915.403-.41401 1.029-.86763 1.6258-1.178.43366-.22553 1.2858-.58926 1.5993-.68264.27193-.081.27325-.08146.26153-.09215-.0095-.0087-.33296-.03832-.45979-.04216-.04729-.0013-.04813-.0045-.0084-.02755.18107-.10564.80735-.21038 1.2579-.21038h.29702v.10543c0 .05947-.03922.2007-.08986.32383-.21515.52291-.31536 1.0266-.25668 1.2902.01442.06481.03172.14757.03845.18391.0067.03633.02121.10132.03223.14439l.02006.0783-.10637-.08425c-.15681-.12419-.2453-.25379-.31771-.4653-.05569-.1627-.06273-.22135-.05126-.42655.01692-.3022.02928-.35705.12311-.5461l.07681-.15482-.07144.01666c-.03928.0092-.15411.04902-.25514.08857l-.18369.07193-.05953.19488c-.15975.52316-.1148 1.3268.09762 1.7451.05216.1027.2428.34946.39169.50699.05152.05453.07904.09913.06113.09913-.05261 0-.35309-.15882-.46032-.24331-.11711-.09228-.42684-.5535-.51132-.76142-.1018-.25052-.14186-.7979-.07931-1.0837.05114-.23371.05235-.21835-.015-.19743-.17544.05447-.61457.2705-.64636.31794-.07849.11712-.1692.5803-.1692.86396 0 .31763.08444.82528.16366.98391.0578.11572.24637.37251.37419.50954.04389.04704.07463.08937.06835.09406-.0064.0045-.10298-.03973-.2149-.09874zm19.647.10385c0-.08727 1.2671-1.3598 1.4035-1.4096.04902-.01788 1.119-1.158 1.3219-1.4086.11509-.14211.28865-.37499.38569-.51752.09704-.14253.16899-.23906.1599-.21453-.0091.02454-.02916.09143-.04454.14865-.10188.37836-.39389.87006-.81318 1.3693-.06235.07426-.1134.14082-.1134.1479 0 .0071.06408-.0087.14234-.03518.5462-.18439 1.0305-.09468 1.1957.22148l.038.0727h-.22192c-.48637 0-.92212.12307-1.5903.44917-.44461.21699-.71563.38424-1.2481.7702-.35753.25914-.61554.42934-.61554.40604zm-15.478-.58683c-.02909-.007-.1302-.04313-.22471-.08027-.50607-.19902-.75152-.53929-.73714-1.0219.0096-.32231.1356-.63118.33054-.81034l.07025-.06456-.02191.15861c-.02717.19708-.03127.71422-.0065.81547.06926.28244.30217.60744.61653.86034.19648.15806.19886.16138.11321.15838-.04813-.0019-.11128-.0088-.14035-.01576zm.59479-.52388c-.27509-.08534-.50769-.26037-.63905-.48088-.13471-.22614-.1544-.30299-.1439-.56158.0083-.20535.02012-.2515.10575-.41345.05299-.10026.13358-.22393.17906-.27482l.0827-.09252-.01705.34882c-.01089.22344-.0064.39923.01275.48905.06376.30038.2943.6497.5753.87162l.19524.15419-.11594-.0019c-.06376-.0013-.16947-.01839-.2349-.03864zm.44958-.42596c.000557-.07019.53508-.32961.83715-.40628.27626-.07013.61539-.08968.81283-.04684.08612.01871.16095.04729.1663.06363.01461.04454-.08484.06209-.3538.06248-.3756.000558-.9505.1346-1.4164.33025-.02544.0107-.0462.0092-.04607-.0032zm-.2381-.48294c0-.05979.57331-.29916.83271-.34766.10177-.01903.3159-.03518.47583-.03589.2483-.0013.32546.0097.52804.07367.47618.1505.42887.2051-.11023.12725-.47728-.06893-.78192-.06036-1.158.03262-.15993.03954-.35325.09375-.42958.12048-.07633.02672-.13878.04005-.13878.02954zm.71375-.5776c-.03633-.02409-.11073-.08294-.1653-.13079-.08743-.07667-.11725-.08703-.25114-.08726-.17922-.000301-.37665-.08303-.49246-.20635l-.07617-.08111.1687.03979c.13342.03146.25771.03595.5943.02153.46636-.01999.56153-.0045.72357.11652.0505.03774.16348.10467.25114.14873.08766.04409.15342.092.14615.10654-.0072.01455-.09649.02762-.19826.02903-.10931.0013-.22528.02044-.28333.04627-.12505.05556-.33116.05408-.4172-.0032zm16.456-2.4c-.1941-.32082-.30908-.47108-.5519-.72123-.20366-.20981-.56936-.47927-.82262-.60614-.37205-.18638-.99812-.32352-1.4769-.32352-.1364 0-.28576-.0076-.33189-.01679l-.08388-.01679.06534-.04268c.03595-.02345.16308-.11408.28253-.20132.11945-.08724.26217-.19133.31715-.23131.16428-.11947.81139-.43162 1.1067-.53388.33046-.11441.62764-.17906.77263-.16809.10405.0079.09865.01185-.25858.19078-.31939.15996-.50524.27403-.94829.58203l-.10574.07351.27757-.01788c.15267-.0098.39653-.03531.54193-.05665.90955-.13336.93432-.13431 1.1719-.04473.13069.04928.11196.07087-.08638.09955-.13715.0198-.46569.12992-.5564.18646-.02928.01826-.11554.05325-.19171.07785-.07616.02454-.1444.05428-.15165.06599-.0072.01173.061.04883.15169.08243.33325.12351.67883.28574.8359.39239.22594.15343.45248.46547.45248.62325v.06865l-.09913-.07861c-.11335-.08988-.35282-.22094-.37081-.20294-.0067.0066.0264.07456.0734.15096.04704.0764.10113.1833.12028.23756.04793.13579.07174.43484.04588.57562l-.02147.11672zm-10.164-1.1859c-.19331-.03537-.35121-.10955-.4871-.22888-.12257-.10762-.32254-.44457-.34755-.58563-.0323-.18217-.01436-.41704.03986-.52078.02717-.05203.06363-.1326.08107-.1791.01743-.04652.08699-.14206.1546-.21237.23616-.24559.50992-.3441.87743-.31576.18139.01397.23763.03063.3645.10768.17272.10492.22105.15402.36804.37391.13537.2025.1641.30897.15563.57668-.0058.17828-.02102.24492-.08957.38757-.12136.25263-.21893.37206-.38508.47135-.22184.13255-.46488.17418-.73184.12534zm6.3974-1.5835c0-.14887-.12546-.53717-.29406-.9101-.15174-.33563-.50884-.86371-.81234-1.2013-.16762-.18644-.52023-.46554-.75045-.594-.20022-.11172-.54718-.24455-.77348-.29611-.18862-.043-.83679-.11044-1.0706-.11142-.10905-.000461-.23878-.0079-.28829-.01647l-.09003-.01564.07183-.03761c.29533-.15474 1.0371-.38354 1.4696-.45334.7196-.11611 2.2525-.17294 2.974-.11026.17447.01519.46592.04005.64767.0553.53272.04473.89897.1018 1.4672.2287.22837.05101.95417.23882 1.0442.2702.03633.01269.22669.07449.42297.13738.34718.11123.96975.3976 1.4539.66879.23752.13303.79895.49376.78693.50562-.0038.0038-.05466-.0026-.11283-.01448-1.0949-.22269-1.6231-.30127-2.0223-.30088-.19628.000186-.40282.0092-.45897.01999l-.10209.01967.05421.05774c.05402.05748.1681.28636.15121.30325-.0051.0051-.10827-.04434-.22974-.10933-.23711-.12691-.56236-.24015-.77601-.2702l-.13218-.01858.13414-.05992c.1992-.08901.51379-.16502.86931-.21005.37612-.04761.6372-.04883.93284-.0045.1199.01807.20858.02339.19709.01192-.0462-.0462-.94741-.35917-1.4328-.49761-.4633-.13213-1.2157-.2828-1.7183-.3441-.12359-.01506-.31987-.03935-.43619-.05389-.11631-.01455-.35423-.03749-.5287-.05101s-.45997-.03665-.63445-.05139c-.36022-.0305-1.2287-.03589-1.6724-.01032-.16376.0094-.29425.02063-.28999.02493.0045.0045.20962.05466.45636.11193.24673.05729.63488.15863.86255.22517.45098.13183 1.4506.49758 1.767.64649.18869.08883.64142.34027.75268.41804.04953.0346.04838.03646-.02326.03646-.08927 0-.61225-.11335-.87482-.18962-.10177-.02954-.43984-.14821-.75125-.26367-.50454-.18706-1.3898-.4457-1.5246-.4454-.03576 8.3e-5-.01897.02127.05767.0727.57718.38732 1.154 1.1547 1.4455 1.9231.18072.47633.18047.46576.01589.70057-.19842.28307-.23456.31438-.23456.20321z" fill="#808080"/>
    <text x="14.712748" y="30.719481" fill="#000000" font-family="'Segoe Script'" font-size="4.9389px" font-weight="bold" stroke-linecap="round" stroke-width=".1" style="font-variant-caps:normal;font-variant-east-asian:normal;font-variant-ligatures:normal;font-variant-numeric:normal" xml:space="preserve"><tspan x="14.712748" y="30.719481" fill="#000000" font-family="'Segoe Script'" font-size="4.9389px" font-weight="bold" stroke-width=".1" style="font-variant-caps:normal;font-variant-east-asian:normal;font-variant-ligatures:normal;font-variant-numeric:normal">Guns'n Magic</tspan></text>
    <rect x="7" y="7" width="51" height="83" ry="3" fill="none" stroke="#000" stroke-linecap="round" stroke-width=".2"/>
  </g>
  <g>
    <text x="32.331535" y="52.013363" display="none" fill="#000000" font-family="'Comic Sans MS'" font-size="3.175px" stroke-linecap="round" stroke-width=".2" text-anchor="middle" style="font-variant-caps:normal;font-variant-east-asian:normal;font-variant-ligatures:normal;font-variant-numeric:normal" xml:space="preserve"><tspan x="32.331535" y="52.013363">Beschreibung und Funktion ...</tspan></text>
    <g transform="translate(.51849 -.26458)" display="none">
      <rect x="9.6573" y="33.999" width="44.648" height="11.509" ry="5.7547" display="inline" fill="#7fff2a"/>
      <text x="32.331535" y="40.852669" fill="#225500" font-family="'Segoe Print'" font-size="4.2333px" font-weight="bold" stroke-linecap="round" stroke-width=".2" text-anchor="middle" style="font-variant-caps:normal;font-variant-east-asian:normal;font-variant-ligatures:normal;font-variant-numeric:normal" xml:space="preserve"><tspan x="32.331535" y="40.852669">Begegnungen</tspan></text>
    </g>
    <g transform="translate(.51849 -.26458)" display="none">
      <rect x="9.6573" y="33.999" width="44.648" height="11.509" ry="5.7547" display="inline" fill="#7fff2a"/>
      <text x="32.331535" y="40.852669" fill="#225500" font-family="'Segoe Print'" font-size="4.2333px" font-weight="bold" stroke-linecap="round" stroke-width=".2" text-anchor="middle" style="font-variant-caps:normal;font-variant-east-asian:normal;font-variant-ligatures:normal;font-variant-numeric:normal" xml:space="preserve"><tspan x="32.331535" y="40.852669">Loot</tspan></text>
    </g>
    <g transform="translate(-.049609 -.43963)" display="none">
      <rect x="10.225" y="34.174" width="44.648" height="11.509" ry="5.7547" display="inline" fill="#fd5"/>
      <text x="32.331535" y="40.852669" fill="#806600" font-family="'Segoe Print'" font-size="4.2333px" font-weight="bold" stroke-linecap="round" stroke-width=".2" text-anchor="middle" style="font-variant-caps:normal;font-variant-east-asian:normal;font-variant-ligatures:normal;font-variant-numeric:normal" xml:space="preserve"><tspan x="32.331535" y="40.852669">Gegner</tspan></text>
    </g>
    <g transform="translate(-.074414 -.27323)">
      <rect x="10.25" y="34.008" width="44.648" height="11.509" ry="5.7547" fill="#de8787"/>
      <text x="32.331535" y="40.852669" fill="#782121" font-family="'Segoe Print'" font-size="4.2333px" font-weight="bold" stroke-linecap="round" stroke-width=".2" text-anchor="middle" style="font-variant-caps:normal;font-variant-east-asian:normal;font-variant-ligatures:normal;font-variant-numeric:normal" xml:space="preserve"><tspan x="32.331535" y="40.852669">Wildcard Gegner</tspan></text>
    </g>
    <g transform="translate(.075447 .31071)" display="none">
      <rect x="10.1" y="33.424" width="44.648" height="11.509" ry="5.7547" display="inline" fill="#fd5"/>
      <text x="32.331535" y="40.852669" fill="#806600" font-family="'Segoe Print'" font-size="4.2333px" font-weight="bold" stroke-linecap="round" stroke-width=".2" text-anchor="middle" style="font-variant-caps:normal;font-variant-east-asian:normal;font-variant-ligatures:normal;font-variant-numeric:normal" xml:space="preserve"><tspan x="32.331535" y="40.852669">Hindernisse</tspan></text>
    </g>
  </g>
</svg>
